<?xml version="1.0" standalone="no"?>
<!DOCTYPE svg PUBLIC "-//W3C//DTD SVG 20010904//EN"
 "http://www.w3.org/TR/2001/REC-SVG-20010904/DTD/svg10.dtd">
<svg version="1.0" xmlns="http://www.w3.org/2000/svg"
 width="210.000000pt" height="198.000000pt" viewBox="0 0 210.000000 198.000000"
 preserveAspectRatio="xMidYMid meet">
<metadata>
Created by potrace 1.10, written by Peter Selinger 2001-2011
</metadata>
<g transform="translate(0.000000,198.000000) scale(0.100000,-0.100000)"
fill="#000000" stroke="none">
<path d="M265 1743 c-11 -3 -30 -14 -42 -26 l-23 -20 0 -531 0 -531 27 -25 26
-25 341 -3 c187 -2 351 0 364 3 18 4 23 11 20 33 l-3 27 -355 5 -355 5 -3 507
-2 507 22 15 c20 13 120 14 713 11 380 -1 693 -3 697 -4 4 -1 14 -8 22 -17 14
-13 16 -59 16 -350 l0 -334 25 -6 c14 -4 28 -4 31 -1 3 3 5 162 5 352 -2 382
-2 383 -63 404 -31 11 -1419 14 -1463 4z"/>
<path d="M341 1611 c-12 -8 -13 -14 -3 -35 24 -52 128 -23 108 30 -6 16 -82
19 -105 5z"/>
<path d="M503 1604 c-3 -9 -2 -24 4 -33 8 -13 33 -17 136 -19 119 -2 127 -1
137 18 23 42 0 50 -142 50 -110 0 -130 -2 -135 -16z"/>
<path d="M1132 1610 c-27 -12 -45 -54 -37 -90 5 -22 -2 -37 -32 -73 -32 -39
-44 -46 -74 -46 -50 -1 -99 -46 -99 -91 0 -42 47 -90 89 -90 42 0 94 63 85
103 -5 22 2 37 36 77 34 41 48 50 74 50 27 0 40 -9 73 -47 34 -41 39 -53 35
-84 -3 -30 1 -41 28 -67 42 -43 76 -42 119 2 29 29 33 40 27 66 -5 27 0 39 36
81 25 30 47 48 55 44 19 -7 68 20 87 47 22 32 20 62 -8 94 -53 63 -154 16
-142 -65 5 -32 1 -41 -35 -81 -35 -38 -46 -45 -79 -45 -34 0 -44 7 -77 45 -31
36 -38 52 -38 87 -1 68 -61 109 -123 83z m66 -73 c4 -20 -25 -34 -40 -19 -15
15 -1 44 19 40 10 -2 19 -11 21 -21z m390 0 c4 -20 -25 -34 -40 -19 -15 15 -1
44 19 40 10 -2 19 -11 21 -21z m-581 -213 c4 -13 -23 -44 -38 -44 -13 0 -22
27 -15 46 7 17 47 16 53 -2z m390 0 c7 -20 -22 -45 -43 -37 -14 5 -19 35 -7
46 12 13 44 7 50 -9z"/>
<path d="M341 1467 c-19 -21 -20 -26 -7 -36 22 -18 110 -10 114 10 9 47 -69
65 -107 26z"/>
<path d="M625 1480 l-120 -5 -3 -27 -3 -28 141 0 c117 0 142 3 147 15 5 15
-23 57 -36 53 -3 -1 -60 -4 -126 -8z"/>
<path d="M375 1340 c-34 -4 -40 -8 -40 -30 0 -50 106 -53 113 -3 4 28 -22 40
-73 33z"/>
<path d="M500 1310 l0 -30 140 0 140 0 0 30 0 30 -140 0 -140 0 0 -30z"/>
<path d="M567 1193 c-4 -3 -7 -107 -7 -229 0 -254 -4 -244 88 -244 81 0 82 2
82 246 0 150 -3 213 -12 222 -13 13 -140 17 -151 5z m91 -55 c8 -8 12 -64 12
-184 0 -153 -2 -173 -17 -178 -36 -14 -43 18 -38 191 5 186 10 204 43 171z"/>
<path d="M349 1082 c-17 -12 -19 -27 -19 -172 0 -185 2 -190 81 -190 91 0 89
-4 89 190 0 168 0 170 -22 174 -55 12 -111 11 -129 -2z m91 -61 c5 -11 10 -64
10 -118 0 -106 -11 -140 -43 -127 -15 5 -17 22 -17 129 0 120 3 131 32 134 4
1 12 -8 18 -18z"/>
<path d="M1370 1025 c-19 -7 -45 -14 -58 -14 -51 -2 -190 -115 -224 -183 -48
-95 -51 -108 -50 -216 0 -101 2 -113 32 -173 46 -96 148 -198 213 -214 15 -4
30 -11 33 -16 3 -5 60 -9 127 -9 118 0 124 1 187 32 65 34 190 146 190 173 0
7 6 20 13 27 16 16 37 116 37 178 0 146 -54 253 -171 340 -43 32 -95 61 -124
70 -70 19 -163 22 -205 5z m60 -106 c0 -39 -4 -51 -17 -55 -54 -16 -128 -62
-157 -98 -18 -23 -41 -65 -51 -95 -17 -51 -17 -56 1 -115 34 -114 94 -169 203
-187 76 -13 138 -2 162 28 19 22 53 15 82 -18 34 -39 34 -43 0 -67 -63 -42
-99 -52 -197 -52 -105 0 -138 11 -214 67 -99 73 -142 161 -142 292 0 77 4 97
26 142 50 99 121 157 242 199 26 9 50 14 55 12 4 -2 7 -26 7 -53z m130 38 c88
-32 175 -108 209 -182 48 -105 50 -113 37 -124 -10 -8 -54 -9 -97 -2 -4 1 -9
13 -12 29 -14 69 -93 149 -174 177 -40 14 -51 40 -39 91 7 27 25 30 76 11z
m-19 -175 c73 -50 100 -95 100 -170 1 -48 -4 -68 -23 -94 -76 -108 -201 -125
-295 -40 -22 20 -44 51 -48 67 -26 114 -9 161 85 235 34 26 143 28 181 2z
m267 -216 c5 -24 -17 -95 -35 -117 -7 -8 -13 -21 -13 -27 0 -6 -9 -16 -21 -23
-18 -9 -26 -7 -50 17 -34 33 -35 38 -9 87 11 20 20 45 20 55 0 28 10 33 60 30
35 -2 46 -7 48 -22z"/>
<path d="M791 991 c-6 -11 -11 -69 -11 -129 0 -130 7 -142 86 -142 83 0 85 5
82 155 l-3 130 -72 3 c-63 2 -73 0 -82 -17z m97 -128 c-3 -90 -12 -107 -42
-78 -12 12 -16 35 -16 84 0 75 3 81 37 81 23 0 24 -1 21 -87z"/>
</g>
</svg>
