<?xml version="1.0" standalone="no"?>
<!DOCTYPE svg PUBLIC "-//W3C//DTD SVG 20010904//EN"
 "http://www.w3.org/TR/2001/REC-SVG-20010904/DTD/svg10.dtd">
<svg version="1.0" xmlns="http://www.w3.org/2000/svg"
 width="177.000000pt" height="198.000000pt" viewBox="0 0 177.000000 198.000000"
 preserveAspectRatio="xMidYMid meet">
<metadata>
Created by potrace 1.10, written by Peter Selinger 2001-2011
</metadata>
<g transform="translate(0.000000,198.000000) scale(0.100000,-0.100000)"
fill="#000000" stroke="none">
<path d="M700 1671 c-70 -8 -125 -26 -180 -60 -19 -11 -46 -25 -59 -31 -30
-13 -183 -166 -202 -202 -89 -168 -89 -170 -89 -366 0 -188 10 -241 60 -324
11 -18 23 -40 27 -48 3 -8 20 -33 37 -55 89 -118 221 -207 367 -249 81 -23
283 -22 369 3 230 66 384 212 474 449 23 62 23 346 -1 417 -49 147 -120 249
-233 338 -70 54 -99 71 -192 110 -43 19 -275 30 -378 18z m134 -418 c7 -16 11
-42 9 -60 -6 -40 13 -99 35 -109 9 -5 68 -11 131 -14 110 -5 115 -6 134 -32
18 -25 19 -30 7 -54 -22 -40 -47 -48 -142 -46 -114 3 -154 -12 -164 -62 -3
-20 -4 -46 -1 -58 8 -28 -19 -78 -42 -78 -19 0 -231 207 -243 238 -19 48 -9
64 109 184 64 65 125 118 135 118 9 0 24 -12 32 -27z"/>
</g>
</svg>
