<?xml version="1.0" standalone="no"?>
<!DOCTYPE svg PUBLIC "-//W3C//DTD SVG 20010904//EN"
 "http://www.w3.org/TR/2001/REC-SVG-20010904/DTD/svg10.dtd">
<svg version="1.0" xmlns="http://www.w3.org/2000/svg"
 width="210.000000pt" height="216.000000pt" viewBox="0 0 210.000000 216.000000"
 preserveAspectRatio="xMidYMid meet">
<metadata>
Created by potrace 1.10, written by Peter Selinger 2001-2011
</metadata>
<g transform="translate(0.000000,216.000000) scale(0.100000,-0.100000)"
fill="#000000" stroke="none">
<path d="M585 1805 c-27 -8 -61 -15 -75 -15 -38 -1 -102 -42 -132 -86 -25 -36
-27 -47 -28 -133 0 -55 6 -112 15 -140 8 -25 21 -74 30 -108 8 -35 22 -90 30
-123 8 -33 22 -88 30 -122 9 -35 22 -84 30 -109 8 -26 15 -54 15 -64 0 -10 7
-38 15 -64 8 -25 21 -74 30 -108 68 -278 72 -289 114 -324 28 -23 45 -29 83
-29 41 0 54 5 85 33 33 31 36 38 37 93 0 32 -7 87 -17 122 -9 34 -24 90 -32
125 -9 34 -22 83 -30 108 -8 26 -15 54 -15 64 0 10 -7 38 -15 64 -8 25 -21 74
-30 109 -8 34 -22 90 -30 125 -9 34 -22 83 -30 108 -8 26 -15 58 -15 73 l0 26
149 0 150 0 3 27 c4 33 28 44 28 12 0 -13 -6 -41 -14 -64 -8 -22 -22 -67 -31
-100 -10 -33 -25 -79 -33 -103 -13 -38 -13 -49 2 -102 17 -63 39 -149 61 -240
7 -30 18 -75 25 -100 6 -25 14 -56 17 -70 3 -14 13 -35 21 -48 13 -20 22 -23
66 -20 47 3 52 6 68 38 17 37 14 68 -21 200 -7 25 -19 72 -27 105 -9 33 -22
83 -30 111 -18 63 -18 88 0 139 8 22 22 67 31 100 10 33 24 75 31 93 8 18 14
45 14 61 0 16 7 34 16 42 14 12 15 8 13 -32 -3 -41 -2 -44 21 -46 49 -5 100
63 100 132 0 109 -101 202 -255 236 -87 19 -406 22 -470 4z m583 -154 c12 -11
22 -26 22 -35 0 -9 4 -16 9 -16 13 0 22 -30 16 -51 -10 -31 -25 -22 -25 15 0
21 -6 36 -15 40 -8 3 -15 12 -15 20 0 7 -12 16 -27 19 -39 7 -93 -3 -93 -19 0
-7 -6 -17 -14 -21 -8 -4 -16 -26 -18 -47 -2 -22 -9 -41 -15 -44 -19 -6 -17 63
2 82 8 8 15 20 15 26 0 25 45 49 90 49 29 0 53 -6 68 -18z"/>
<path d="M1439 1551 c-134 -84 -151 -249 -39 -372 29 -31 65 -48 127 -58 75
-12 129 3 185 49 58 48 81 102 81 192 1 74 -1 78 -37 123 -62 76 -102 95 -193
95 -69 0 -84 -4 -124 -29z"/>
</g>
</svg>
