<?xml version="1.0" standalone="no"?>
<!DOCTYPE svg PUBLIC "-//W3C//DTD SVG 20010904//EN"
 "http://www.w3.org/TR/2001/REC-SVG-20010904/DTD/svg10.dtd">
<svg version="1.0" xmlns="http://www.w3.org/2000/svg"
 width="246.000000pt" height="219.000000pt" viewBox="0 0 246.000000 219.000000"
 preserveAspectRatio="xMidYMid meet">
<metadata>
Created by potrace 1.10, written by Peter Selinger 2001-2011
</metadata>
<g transform="translate(0.000000,219.000000) scale(0.100000,-0.100000)"
fill="#000000" stroke="none">
<path d="M1242 1794 c-30 -21 -25 -51 11 -78 26 -19 30 -19 55 -5 18 9 28 25
30 44 6 50 -49 72 -96 39z"/>
<path d="M935 1644 c-44 -40 -27 -94 31 -94 27 0 37 5 45 24 16 34 5 69 -25
82 -22 10 -29 9 -51 -12z"/>
<path d="M763 1636 c-27 -24 -28 -25 -11 -53 20 -34 62 -42 89 -17 24 22 24
56 1 77 -25 23 -46 21 -79 -7z"/>
<path d="M1261 1647 c-39 -20 -46 -40 -26 -70 13 -20 26 -27 49 -27 40 0 56
16 56 55 0 24 -6 35 -25 43 -31 14 -25 14 -54 -1z"/>
<path d="M1568 1646 c-21 -15 -24 -66 -6 -84 18 -18 69 -15 84 6 19 25 17 49
-6 72 -23 23 -47 25 -72 6z"/>
<path d="M1732 1644 c-39 -27 -19 -94 27 -94 39 0 61 18 61 52 0 51 -45 73
-88 42z"/>
<path d="M608 1489 c-12 -6 -18 -22 -18 -45 0 -28 5 -36 26 -45 49 -18 93 17
78 64 -11 37 -49 48 -86 26z"/>
<path d="M783 1490 c-43 -17 -40 -74 5 -91 56 -21 98 51 50 85 -25 18 -25 18
-55 6z"/>
<path d="M938 1493 c-37 -10 -31 -88 7 -97 55 -14 96 36 67 81 -9 14 -50 23
-74 16z"/>
<path d="M1260 1494 c-9 -3 -21 -14 -29 -26 -28 -44 27 -90 83 -68 21 8 26 16
26 45 0 29 -5 37 -26 45 -26 10 -29 10 -54 4z"/>
<path d="M1573 1490 c-18 -7 -23 -17 -23 -45 0 -29 5 -37 25 -45 32 -12 71 2
80 29 6 21 -9 61 -25 61 -4 0 -14 2 -22 4 -7 3 -23 1 -35 -4z"/>
<path d="M1740 1487 c-37 -18 -35 -67 3 -85 24 -12 31 -11 53 2 31 21 32 60 2
80 -27 19 -26 19 -58 3z"/>
<path d="M1891 1491 c-16 -10 -21 -75 -8 -88 13 -13 78 -8 88 8 14 22 11 56
-7 73 -17 18 -51 21 -73 7z"/>
<path d="M2059 1336 c-17 -8 -25 -21 -27 -47 -3 -30 1 -37 22 -47 18 -8 34 -8
52 -2 22 9 25 15 22 51 -3 48 -29 65 -69 45z"/>
<path d="M435 1303 c-6 -31 -3 -40 15 -55 29 -23 45 -23 70 2 40 40 18 90 -39
90 -37 0 -39 -2 -46 -37z"/>
<path d="M607 1322 c-22 -24 -21 -55 1 -75 50 -46 119 21 78 76 -17 22 -58 22
-79 -1z"/>
<path d="M762 1320 c-6 -11 -12 -29 -12 -39 0 -22 35 -51 61 -51 21 0 49 32
49 57 0 47 -74 72 -98 33z"/>
<path d="M920 1321 c-16 -31 -12 -50 16 -76 l26 -25 29 21 c50 35 33 99 -26
99 -24 0 -38 -6 -45 -19z"/>
<path d="M1237 1320 c-22 -26 -22 -43 1 -62 27 -24 50 -28 77 -16 19 8 25 19
25 43 0 17 -5 36 -12 43 -19 19 -72 14 -91 -8z"/>
<path d="M1562 1328 c-7 -7 -12 -26 -12 -43 0 -41 37 -64 74 -47 54 24 40 102
-19 102 -17 0 -36 -5 -43 -12z"/>
<path d="M1721 1316 c-18 -32 -11 -58 20 -75 24 -13 29 -13 53 2 31 21 34 56
8 80 -27 25 -66 21 -81 -7z"/>
<path d="M1880 1321 c-17 -32 -12 -60 15 -77 47 -31 96 15 75 71 -8 20 -16 25
-44 25 -25 0 -38 -6 -46 -19z"/>
<path d="M450 1170 c-11 -11 -20 -29 -20 -40 0 -22 33 -60 53 -60 25 0 57 31
57 56 0 27 -32 64 -55 64 -8 0 -24 -9 -35 -20z"/>
<path d="M1246 1169 c-33 -26 -31 -55 7 -83 26 -19 29 -19 55 -4 37 22 42 70
10 92 -30 21 -40 20 -72 -5z"/>
<path d="M2052 1174 c-30 -20 -30 -68 0 -88 28 -20 43 -20 62 0 31 30 11 104
-27 104 -7 0 -23 -7 -35 -16z"/>
<path d="M449 1009 c-11 -11 -18 -27 -15 -36 3 -8 6 -23 6 -34 0 -28 75 -28
90 0 16 31 12 59 -12 75 -30 21 -44 20 -69 -5z"/>
<path d="M1261 1017 c-39 -20 -46 -40 -26 -70 13 -20 26 -27 49 -27 40 0 56
16 56 55 0 24 -6 35 -25 43 -31 14 -25 14 -54 -1z"/>
<path d="M2053 1018 c-17 -8 -23 -20 -23 -43 0 -39 16 -55 56 -55 35 0 44 13
44 61 0 22 -6 32 -26 39 -14 6 -26 10 -27 9 -1 0 -12 -5 -24 -11z"/>
<path d="M459 863 c-20 -5 -31 -60 -17 -87 8 -14 17 -17 46 -13 19 4 39 12 44
19 10 16 10 49 0 65 -9 14 -50 23 -73 16z"/>
<path d="M1260 864 c-9 -3 -21 -14 -29 -26 -28 -44 27 -90 83 -68 21 8 26 16
26 45 0 29 -5 37 -26 45 -26 10 -29 10 -54 4z"/>
<path d="M2048 859 c-12 -6 -18 -22 -18 -45 0 -43 34 -64 75 -46 20 9 25 19
25 46 0 48 -40 70 -82 45z"/>
<path d="M447 703 c-13 -23 -16 -66 -7 -83 20 -38 100 -12 100 31 0 39 -19 59
-55 59 -18 0 -36 -3 -38 -7z"/>
<path d="M1235 683 c-21 -31 -13 -51 28 -71 39 -19 77 2 77 43 0 39 -16 55
-56 55 -23 0 -36 -7 -49 -27z"/>
<path d="M2042 698 c-7 -7 -12 -26 -12 -43 0 -24 6 -35 25 -43 39 -18 75 0 75
37 0 48 -9 61 -44 61 -18 0 -37 -5 -44 -12z"/>
<path d="M449 539 c-16 -16 -20 -29 -15 -51 3 -17 6 -34 6 -39 0 -5 15 -9 34
-9 59 0 86 61 44 100 -28 25 -43 25 -69 -1z"/>
<path d="M607 542 c-35 -38 -9 -102 40 -102 25 0 53 30 53 56 0 54 -60 83 -93
46z"/>
<path d="M767 542 c-21 -23 -22 -51 -1 -80 30 -43 94 -16 94 40 0 50 -61 76
-93 40z"/>
<path d="M926 538 c-9 -12 -16 -29 -16 -38 0 -27 30 -60 54 -60 49 0 75 70 38
103 -26 23 -58 21 -76 -5z"/>
<path d="M1246 539 c-33 -26 -31 -55 7 -83 26 -19 30 -19 55 -5 37 20 42 71
10 93 -30 21 -40 20 -72 -5z"/>
<path d="M1561 534 c-14 -18 -19 -34 -15 -48 17 -52 78 -60 104 -13 13 24 13
30 0 55 -22 38 -61 41 -89 6z"/>
<path d="M1727 542 c-35 -38 -9 -102 40 -102 47 0 71 71 35 103 -24 22 -55 21
-75 -1z"/>
<path d="M1886 538 c-9 -12 -16 -29 -16 -38 0 -27 30 -60 55 -60 15 0 31 10
40 24 40 60 -38 132 -79 74z"/>
<path d="M2052 544 c-42 -29 -18 -104 34 -104 29 0 44 19 44 56 0 33 -21 64
-43 64 -7 0 -23 -7 -35 -16z"/>
<path d="M1270 393 c-26 -9 -50 -35 -50 -53 0 -20 41 -60 61 -60 56 0 83 86
34 108 -14 7 -27 12 -28 11 -1 0 -9 -3 -17 -6z"/>
</g>
</svg>
