<?xml version="1.0" standalone="no"?>
<!DOCTYPE svg PUBLIC "-//W3C//DTD SVG 20010904//EN"
 "http://www.w3.org/TR/2001/REC-SVG-20010904/DTD/svg10.dtd">
<svg version="1.0" xmlns="http://www.w3.org/2000/svg"
 width="198.000000pt" height="183.000000pt" viewBox="0 0 198.000000 183.000000"
 preserveAspectRatio="xMidYMid meet">
<metadata>
Created by potrace 1.10, written by Peter Selinger 2001-2011
</metadata>
<g transform="translate(0.000000,183.000000) scale(0.100000,-0.100000)"
fill="#000000" stroke="none">
<path d="M825 1581 c-3 -10 0 -38 6 -62 7 -24 14 -104 16 -178 4 -118 2 -138
-16 -177 -12 -24 -31 -49 -43 -55 -54 -29 -88 -82 -88 -137 0 -35 -9 -57 -46
-113 l-47 -69 6 -69 c4 -50 2 -74 -8 -87 -13 -18 -16 -17 -59 14 -48 33 -83
40 -117 22 -29 -16 -27 -89 4 -115 40 -35 71 -48 124 -49 73 -2 83 -15 49 -65
-39 -55 -33 -85 17 -89 21 -2 45 2 52 8 24 20 88 50 107 50 14 0 18 -8 18 -40
0 -31 5 -43 25 -56 28 -19 55 -12 92 22 39 36 85 32 128 -10 42 -42 99 -66
117 -48 7 7 18 12 26 12 8 0 33 20 56 45 24 25 47 45 53 45 6 0 26 -8 45 -17
18 -9 45 -22 60 -30 79 -40 139 10 108 91 -12 33 11 59 46 50 43 -11 113 49
114 98 0 52 -68 68 -152 36 -21 -8 -33 -6 -56 7 l-28 17 4 163 c4 137 2 168
-12 195 -9 18 -16 41 -16 50 0 18 -49 70 -66 70 -6 0 -20 10 -32 23 -21 22
-22 31 -22 240 0 190 -2 218 -16 224 -9 3 -20 0 -25 -8 -5 -8 -8 -110 -7 -232
3 -216 3 -217 -18 -217 -12 0 -26 -6 -33 -13 -18 -22 8 -37 64 -37 43 0 55 -4
76 -27 44 -48 60 -112 70 -276 4 -84 11 -169 15 -189 5 -34 3 -41 -27 -69 -27
-25 -39 -30 -63 -25 -17 4 -35 11 -40 16 -12 12 -9 291 4 303 4 5 16 7 26 5
17 -3 20 -17 24 -126 3 -69 9 -123 15 -125 13 -3 18 253 6 272 -9 14 -37 17
-195 22 -10 0 -27 -8 -37 -17 -18 -16 -19 -16 -19 9 0 15 5 27 10 27 12 0 13
37 1 44 -10 6 -39 -24 -55 -56 -6 -12 -25 -29 -41 -37 -17 -8 -38 -18 -48 -23
-10 -5 -21 -6 -26 -4 -16 11 -79 -15 -107 -44 -23 -23 -38 -30 -72 -30 -39 0
-43 -2 -40 -22 3 -22 7 -23 76 -20 111 5 152 -20 136 -82 -6 -25 -10 -26 -83
-28 -159 -5 -168 -4 -190 22 -19 22 -21 36 -19 103 2 43 8 81 13 85 12 9 55
69 55 77 0 4 7 13 15 21 9 10 15 34 15 62 0 57 32 98 98 127 38 17 58 45 32
45 -16 0 -12 30 6 48 14 14 16 39 12 199 -4 159 -7 185 -23 203 -23 25 -42 26
-50 1z m395 -777 c6 -14 10 -60 10 -102 0 -42 5 -94 11 -116 9 -34 8 -40 -10
-53 -18 -12 -20 -21 -15 -54 5 -30 3 -39 -8 -39 -24 0 -51 36 -44 58 5 14 1
21 -13 25 -18 4 -19 13 -16 148 1 79 3 147 4 152 0 4 17 7 36 7 29 0 37 -5 45
-26z m-129 -1 c0 -5 1 -66 3 -136 l3 -128 -28 -16 c-16 -10 -29 -27 -31 -41
-4 -33 -40 -58 -57 -39 -8 11 -5 20 14 43 24 28 24 29 5 38 -17 8 -19 19 -18
121 0 62 4 118 9 126 4 7 25 19 46 25 48 15 53 16 54 7z m-143 -57 c2 -10 -1
-23 -7 -29 -14 -14 -57 25 -46 43 11 17 49 8 53 -14z m-3 -201 c0 -11 -12 -26
-27 -35 -25 -13 -30 -13 -55 2 -45 27 -41 46 9 51 64 6 73 4 73 -18z m188 -72
c6 -31 -9 -67 -24 -58 -15 10 -40 65 -34 75 3 6 17 10 29 10 18 0 25 -7 29
-27z"/>
<path d="M397 822 c-30 -33 -17 -63 41 -97 60 -36 92 15 52 80 -25 40 -66 47
-93 17z"/>
<path d="M1569 787 c-17 -13 -49 -69 -49 -87 0 -6 10 -15 23 -21 34 -15 94 11
103 45 11 45 -3 76 -34 76 -15 0 -34 -6 -43 -13z"/>
<path d="M423 472 c-50 -8 -59 -79 -12 -96 42 -14 78 0 96 39 9 19 14 37 11
41 -10 9 -71 20 -95 16z"/>
<path d="M1580 421 c-12 -23 -4 -48 24 -78 34 -37 85 -24 100 24 17 52 -98
102 -124 54z"/>
<path d="M694 320 c-29 -12 -36 -45 -14 -72 17 -21 18 -21 44 -5 31 21 45 65
25 78 -17 11 -27 10 -55 -1z"/>
<path d="M954 303 c-9 -9 -14 -28 -12 -47 2 -25 8 -32 30 -34 19 -2 30 3 38
17 24 46 -21 99 -56 64z"/>
<path d="M1280 300 c-11 -20 -4 -70 10 -70 5 0 15 -3 23 -6 10 -3 22 4 32 20
16 24 16 28 1 51 -20 30 -51 32 -66 5z"/>
<path d="M795 240 c-20 -22 -15 -64 9 -73 42 -16 94 45 66 78 -17 21 -54 19
-75 -5z"/>
<path d="M1152 233 c-12 -2 -27 -14 -33 -25 -9 -18 -8 -24 7 -35 19 -14 52
-17 78 -7 17 7 23 64 7 64 -5 0 -15 2 -23 4 -7 2 -23 1 -36 -1z"/>
</g>
</svg>
