<?xml version="1.0" standalone="no"?>
<!DOCTYPE svg PUBLIC "-//W3C//DTD SVG 20010904//EN"
 "http://www.w3.org/TR/2001/REC-SVG-20010904/DTD/svg10.dtd">
<svg version="1.0" xmlns="http://www.w3.org/2000/svg"
 width="183.000000pt" height="216.000000pt" viewBox="0 0 183.000000 216.000000"
 preserveAspectRatio="xMidYMid meet">
<metadata>
Created by potrace 1.10, written by Peter Selinger 2001-2011
</metadata>
<g transform="translate(0.000000,216.000000) scale(0.100000,-0.100000)"
fill="#000000" stroke="none">
<path d="M661 1716 c-18 -19 -21 -30 -15 -66 6 -38 4 -44 -22 -65 l-29 -23 28
-13 c32 -15 35 -41 7 -69 -11 -11 -20 -25 -20 -31 0 -6 9 -13 20 -16 13 -3 20
-14 20 -29 0 -13 -9 -28 -20 -34 -11 -6 -20 -15 -20 -20 0 -6 9 -18 20 -27 11
-10 20 -27 20 -40 0 -13 -8 -24 -20 -28 -24 -8 -26 -37 -4 -59 20 -21 33 -20
89 4 32 14 69 20 115 20 38 0 81 5 97 11 15 6 75 13 132 16 l104 6 -7 -35 c-6
-31 -4 -36 16 -42 13 -3 33 -6 46 -6 12 0 22 -3 22 -7 1 -5 2 -79 2 -166 2
-177 -2 -186 -73 -187 -62 0 -66 12 -64 208 0 95 -3 176 -7 178 -5 3 -16 3
-26 0 -15 -5 -17 -21 -14 -179 l4 -174 -29 -18 c-39 -26 -196 -28 -231 -3 -23
16 -24 20 -25 189 -2 153 -4 174 -19 177 -14 3 -17 -11 -23 -93 -4 -53 -5
-132 -3 -176 4 -74 3 -80 -18 -94 -26 -17 -81 -20 -103 -6 -12 8 -14 44 -14
195 1 189 -5 220 -34 180 -11 -14 -13 -62 -12 -211 l1 -193 29 -40 c16 -22 29
-43 29 -46 0 -3 14 -23 30 -44 17 -21 30 -41 30 -44 0 -9 43 -70 53 -74 4 -2
7 -8 7 -14 0 -6 12 -27 28 -47 15 -20 32 -43 37 -53 62 -102 78 -118 116 -118
32 0 43 6 73 44 20 23 36 46 36 51 0 4 14 24 30 45 17 21 30 41 30 45 0 4 14
24 30 45 17 21 30 41 30 45 0 4 12 24 28 44 31 41 49 69 59 91 4 8 9 17 13 20
3 3 16 24 28 48 20 39 22 57 22 217 0 149 -2 176 -17 190 -11 11 -26 15 -44
11 -19 -3 -29 -1 -33 10 -12 30 -6 53 16 65 l22 12 -22 17 c-29 24 -29 66 0
90 l22 17 -22 12 c-26 14 -29 52 -7 71 19 16 19 46 0 54 -22 8 -18 41 8 59
l22 16 -22 16 c-13 9 -23 23 -23 30 0 8 -10 26 -22 40 l-22 25 -231 0 c-230 0
-232 0 -254 -24z m495 -27 c16 -26 -24 -39 -141 -49 -66 -5 -149 -14 -185 -20
-36 -5 -84 -10 -107 -10 l-43 0 0 38 c0 21 3 42 7 45 12 12 461 8 469 -4z m2
-121 c-4 -28 -31 -35 -184 -48 -66 -6 -147 -15 -180 -20 -32 -6 -72 -10 -87
-10 -25 0 -28 3 -25 27 3 27 4 28 113 40 153 18 272 30 323 32 39 1 43 -1 40
-21z m-3 -108 c0 -24 -4 -25 -95 -37 -52 -6 -149 -17 -215 -23 -66 -6 -128
-13 -137 -16 -22 -6 -44 31 -26 43 16 9 84 18 238 33 63 5 135 14 160 19 63
13 75 10 75 -19z m5 -110 c0 -27 -29 -40 -92 -40 -29 0 -84 -5 -123 -11 -127
-19 -249 -27 -262 -17 -38 30 29 52 197 63 52 3 111 10 130 15 19 4 61 8 93 9
50 1 57 -1 57 -19z m-378 -569 c2 -6 34 -16 71 -24 72 -15 124 -9 180 19 33
16 63 18 72 4 3 -5 25 -10 49 -10 49 0 60 -7 43 -25 -7 -7 -19 -23 -27 -35 -8
-12 -30 -42 -47 -66 -18 -23 -33 -46 -33 -49 0 -4 -13 -24 -28 -44 -16 -20
-32 -43 -35 -51 -10 -22 -31 -54 -40 -61 -4 -3 -16 -21 -26 -40 -20 -37 -53
-49 -74 -27 -7 7 -22 29 -33 48 -10 19 -31 51 -46 71 -16 20 -28 40 -28 44 0
4 -13 24 -30 45 -16 21 -30 41 -30 45 0 5 -53 80 -80 112 -19 23 -10 33 34 33
25 0 48 5 51 10 8 13 52 13 57 1z"/>
</g>
</svg>
