<?xml version="1.0" standalone="no"?>
<!DOCTYPE svg PUBLIC "-//W3C//DTD SVG 20010904//EN"
 "http://www.w3.org/TR/2001/REC-SVG-20010904/DTD/svg10.dtd">
<svg version="1.0" xmlns="http://www.w3.org/2000/svg"
 width="198.000000pt" height="216.000000pt" viewBox="0 0 198.000000 216.000000"
 preserveAspectRatio="xMidYMid meet">
<metadata>
Created by potrace 1.10, written by Peter Selinger 2001-2011
</metadata>
<g transform="translate(0.000000,216.000000) scale(0.100000,-0.100000)"
fill="#000000" stroke="none">
<path d="M790 1900 c-11 -11 -20 -26 -20 -34 0 -20 37 -64 60 -71 19 -6 20
-16 20 -200 l0 -195 -29 -52 c-52 -97 -93 -173 -124 -228 -17 -30 -50 -93 -74
-140 -24 -47 -54 -103 -67 -125 -47 -83 -101 -182 -129 -239 -25 -49 -29 -66
-24 -110 9 -83 62 -162 125 -187 13 -5 242 -9 520 -9 l496 0 39 27 c58 40 89
95 95 168 5 66 -7 100 -82 230 -19 33 -45 80 -58 105 -13 25 -25 47 -28 50 -3
3 -26 46 -51 95 -45 88 -89 170 -156 290 -63 113 -62 108 -63 315 -2 206 -4
198 53 231 24 14 23 75 -2 89 -12 6 -110 10 -250 10 -218 0 -232 -1 -251 -20z
m457 -37 c2 -6 -9 -13 -25 -16 -19 -4 -32 -14 -36 -29 -3 -13 -6 -116 -6 -230
l0 -208 52 -92 c28 -51 65 -120 82 -153 17 -33 34 -61 39 -63 4 -2 7 -8 7 -14
0 -6 27 -55 60 -110 58 -96 68 -118 53 -118 -14 0 -59 35 -92 70 -24 25 -34
31 -38 21 -12 -30 -76 -81 -108 -87 -61 -11 -101 3 -143 51 -22 25 -44 45 -50
45 -5 0 -21 -15 -35 -34 -31 -40 -82 -66 -130 -66 -36 0 -102 41 -130 81 l-16
22 -45 -47 c-25 -25 -54 -46 -65 -46 -22 0 -20 8 32 88 15 23 44 73 64 110 37
68 50 92 118 217 21 39 44 79 51 90 11 15 14 71 14 243 0 230 -5 262 -40 262
-18 0 -34 13 -26 21 10 10 410 2 413 -8z m-491 -1040 c30 -28 92 -53 130 -53
31 0 59 12 138 57 17 10 25 9 41 -3 35 -25 106 -54 135 -54 35 0 99 26 127 53
24 22 18 23 98 -20 17 -9 43 -19 59 -22 24 -5 37 -20 74 -91 70 -133 77 -159
57 -216 -20 -60 -29 -70 -79 -95 -38 -18 -65 -19 -490 -19 -503 0 -511 1 -555
66 -29 42 -34 132 -10 179 46 88 82 151 92 161 7 6 32 16 56 23 24 7 53 21 64
32 26 24 38 24 63 2z"/>
</g>
</svg>
