<?xml version="1.0" standalone="no"?>
<!DOCTYPE svg PUBLIC "-//W3C//DTD SVG 20010904//EN"
 "http://www.w3.org/TR/2001/REC-SVG-20010904/DTD/svg10.dtd">
<svg version="1.0" xmlns="http://www.w3.org/2000/svg"
 width="249.000000pt" height="198.000000pt" viewBox="0 0 249.000000 198.000000"
 preserveAspectRatio="xMidYMid meet">
<metadata>
Created by potrace 1.10, written by Peter Selinger 2001-2011
</metadata>
<g transform="translate(0.000000,198.000000) scale(0.100000,-0.100000)"
fill="#000000" stroke="none">
<path d="M885 1639 c-73 -72 -115 -120 -115 -134 0 -24 227 -255 250 -255 27
1 50 27 49 56 0 23 -13 39 -60 78 -91 76 -85 79 121 75 285 -6 588 -5 596 4
13 12 8 68 -7 78 -8 5 -172 9 -386 8 -204 -1 -377 2 -384 6 -9 6 -8 11 5 20 9
7 39 33 65 57 72 67 76 101 13 114 -31 6 -38 1 -147 -107z"/>
<path d="M313 1356 l-23 -11 0 -560 c0 -572 1 -585 37 -585 7 0 33 20 57 45
25 25 48 45 52 45 7 0 75 53 118 92 17 16 35 28 41 28 6 0 18 8 27 18 25 27
68 64 136 116 34 26 77 61 94 77 18 16 38 29 45 29 6 0 16 6 20 13 4 8 34 32
66 56 73 53 75 77 12 122 -25 18 -45 36 -45 41 0 4 -7 8 -15 8 -8 0 -15 4 -15
9 0 5 -8 12 -18 15 -9 3 -32 19 -50 35 -17 16 -59 51 -93 76 -33 26 -72 58
-87 72 -52 48 -109 93 -120 93 -6 0 -12 4 -14 9 -3 9 -31 33 -145 121 -50 39
-61 44 -80 36z m239 -313 c229 -184 277 -224 283 -234 18 -28 -11 -63 -126
-155 -67 -53 -144 -117 -171 -140 -27 -24 -53 -44 -58 -44 -4 0 -15 -3 -23 -6
-8 -3 -22 2 -31 11 -14 14 -16 52 -16 306 0 181 4 298 10 310 18 32 44 22 132
-48z"/>
<path d="M2150 1353 c-14 -9 -29 -22 -35 -28 -5 -6 -30 -27 -55 -45 -25 -18
-49 -39 -55 -45 -9 -10 -73 -61 -215 -169 -25 -20 -57 -46 -72 -60 -15 -14
-65 -53 -110 -87 -100 -75 -148 -119 -148 -135 0 -7 15 -24 33 -39 17 -14 41
-34 52 -44 16 -14 122 -95 160 -123 6 -4 28 -22 50 -40 22 -19 60 -49 85 -68
25 -19 81 -65 125 -103 44 -38 87 -72 95 -75 8 -3 35 -25 59 -49 43 -42 73
-53 86 -33 4 6 6 263 6 573 0 537 0 562 -18 574 -16 11 -23 10 -43 -4z m-70
-269 c6 -14 10 -148 10 -308 0 -310 -4 -331 -51 -309 -28 13 -256 193 -330
261 -65 60 -62 73 29 146 37 30 94 76 127 103 90 73 177 133 192 133 7 0 18
-12 23 -26z"/>
<path d="M1238 1293 c-42 -11 -43 -24 -38 -523 l5 -474 26 -15 c24 -13 29 -13
53 2 l26 17 0 484 0 484 -25 16 c-13 9 -26 15 -27 15 -2 -1 -11 -3 -20 -6z"/>
</g>
</svg>
