<?xml version="1.0" standalone="no"?>
<!DOCTYPE svg PUBLIC "-//W3C//DTD SVG 20010904//EN"
 "http://www.w3.org/TR/2001/REC-SVG-20010904/DTD/svg10.dtd">
<svg version="1.0" xmlns="http://www.w3.org/2000/svg"
 width="225.000000pt" height="189.000000pt" viewBox="0 0 225.000000 189.000000"
 preserveAspectRatio="xMidYMid meet">
<metadata>
Created by potrace 1.10, written by Peter Selinger 2001-2011
</metadata>
<g transform="translate(0.000000,189.000000) scale(0.100000,-0.100000)"
fill="#000000" stroke="none">
<path d="M993 1762 c-7 -4 -13 -49 -15 -117 l-4 -110 -120 3 c-128 4 -291 -11
-308 -28 -5 -5 -20 -10 -33 -10 -33 0 -157 -68 -201 -110 -45 -43 -92 -101
-92 -113 0 -4 -7 -15 -15 -23 -8 -9 -15 -25 -15 -38 0 -12 -6 -28 -13 -35 -21
-21 -16 -281 7 -361 17 -62 39 -117 58 -150 4 -8 11 -22 15 -30 25 -54 166
-180 201 -180 7 0 24 -7 37 -16 19 -13 50 -16 139 -15 63 0 121 4 130 7 13 5
16 25 16 129 0 147 -4 155 -85 155 -29 0 -66 7 -81 15 -16 8 -37 15 -47 15
-21 0 -35 10 -96 70 -39 38 -48 55 -62 114 -13 58 -14 77 -3 123 7 30 18 61
25 69 20 24 90 55 149 65 73 13 369 30 399 23 26 -6 26 -2 2 -164 -12 -75 -3
-97 33 -78 11 6 26 17 31 23 6 7 48 41 95 76 47 35 91 69 98 76 7 7 16 13 20
13 4 0 23 14 42 31 19 17 49 43 67 56 18 14 35 35 39 46 7 22 7 22 15 2 4 -11
8 -32 8 -46 1 -24 6 -27 47 -34 26 -4 54 -11 63 -15 9 -5 39 -19 66 -32 112
-52 158 -142 134 -267 -7 -36 -20 -71 -30 -80 -33 -30 -48 -41 -56 -41 -4 0
-19 -6 -33 -13 -36 -19 -157 -36 -285 -39 l-110 -3 -7 60 c-5 33 -4 81 1 107
9 53 7 58 -26 58 -15 0 -27 -8 -34 -22 -6 -13 -43 -47 -83 -76 -39 -29 -85
-69 -101 -90 -17 -20 -56 -63 -87 -95 -51 -53 -58 -65 -64 -114 l-6 -54 78
-77 c44 -43 102 -96 129 -119 28 -23 61 -51 75 -63 50 -45 87 -70 101 -70 16
0 53 148 48 191 -5 38 6 47 53 42 63 -7 319 28 343 46 5 5 24 11 40 15 101 22
255 141 255 197 0 6 6 25 14 42 7 18 19 68 26 112 7 44 16 103 20 130 14 85
11 194 -6 233 -32 75 -49 108 -73 140 -26 36 -132 122 -150 122 -6 0 -11 4
-11 10 0 5 -12 13 -27 16 -16 4 -32 10 -38 14 -34 23 -152 52 -198 47 -56 -5
-70 -19 -62 -64 3 -17 1 -34 -5 -38 -18 -11 -94 41 -161 111 -109 113 -240
233 -254 234 -5 0 -15 -4 -22 -8z m178 -196 c68 -68 139 -131 157 -140 21 -11
32 -23 30 -33 -2 -9 -50 -52 -108 -95 -58 -42 -125 -96 -149 -118 -24 -22 -48
-40 -52 -40 -5 0 -9 40 -9 89 0 65 -4 92 -14 101 -22 18 -387 14 -443 -5 -84
-29 -152 -83 -185 -147 -48 -94 -53 -113 -51 -187 0 -40 6 -78 12 -84 6 -6 11
-18 11 -27 0 -25 62 -106 106 -140 21 -16 54 -32 73 -36 19 -4 46 -13 60 -20
14 -8 47 -14 72 -14 40 0 48 -3 53 -22 8 -33 7 -106 -2 -112 -4 -3 -26 0 -48
5 -21 6 -61 14 -89 19 -27 5 -61 15 -75 21 -64 29 -110 54 -110 61 0 3 -9 9
-19 13 -10 3 -41 28 -69 56 -52 52 -73 102 -102 239 -19 86 3 253 37 288 7 7
13 18 13 23 0 26 119 139 147 139 7 0 13 5 13 10 0 6 6 10 13 10 6 0 24 6 39
14 14 8 45 17 67 21 23 4 43 11 47 16 3 5 97 9 209 9 112 0 206 4 209 8 3 5 6
49 7 98 1 91 4 104 18 104 5 0 64 -56 132 -124z m412 -102 c29 -9 66 -22 84
-30 17 -8 34 -14 38 -14 14 0 130 -82 154 -109 35 -39 69 -96 77 -128 4 -15
11 -33 16 -40 17 -21 -9 -269 -31 -297 -4 -6 -11 -26 -14 -44 -6 -29 -51 -106
-90 -152 -19 -23 -75 -60 -90 -60 -7 0 -17 -4 -23 -9 -15 -16 -159 -33 -329
-40 -88 -3 -166 -10 -173 -14 -10 -7 -11 -31 -6 -103 6 -83 5 -94 -10 -94 -19
0 -67 39 -121 100 -22 24 -69 74 -105 110 l-66 65 46 46 c25 25 61 63 81 85
44 49 118 114 130 114 5 0 9 -30 9 -67 1 -109 0 -108 195 -108 118 0 168 4
177 13 6 6 26 12 43 12 17 0 40 7 51 15 10 8 26 15 34 15 29 0 109 80 133 133
49 105 54 248 10 301 -72 88 -159 142 -253 157 -73 12 -100 29 -82 52 6 6 13
30 17 52 12 64 14 65 98 39z m-183 -129 c0 -14 -122 -115 -139 -115 -5 0 -11
-4 -13 -10 -7 -20 -193 -151 -197 -138 -5 14 105 118 125 118 7 0 14 4 16 8 2
5 35 33 73 62 39 30 74 60 78 67 7 12 57 19 57 8z m-409 -51 c23 -28 -9 -34
-189 -34 -131 0 -181 -4 -209 -15 -40 -17 -93 -20 -93 -5 0 12 59 38 125 55
28 7 115 13 201 14 127 1 154 -2 165 -15z m624 -27 c105 -53 175 -125 175
-180 0 -39 -19 -43 -27 -6 -13 68 -172 179 -255 179 -37 0 -54 12 -43 30 9 15
103 1 150 -23z m-1265 -627 c12 -8 39 -26 59 -40 73 -50 183 -86 279 -92 81
-5 49 -23 -48 -26 -92 -3 -97 -2 -170 35 -77 38 -170 119 -170 148 0 14 2 14
14 3 7 -7 24 -20 36 -28z m1491 -33 c-31 -30 -45 -37 -53 -29 -8 8 -6 13 8 19
10 4 30 19 43 34 14 16 29 25 34 22 5 -3 -9 -24 -32 -46z m-911 -87 c74 -81
183 -190 191 -190 15 0 69 -52 69 -66 0 -14 -26 -20 -32 -6 -1 4 -34 31 -73
61 -112 87 -225 201 -225 228 0 35 21 28 70 -27z m845 41 c7 -12 -31 -25 -45
-16 -6 4 -8 11 -5 16 8 12 42 12 50 0z m-72 -36 c1 -5 -13 -11 -32 -13 -19 -2
-40 -10 -48 -18 -9 -9 -36 -14 -74 -14 -33 0 -69 -5 -80 -10 -24 -14 -168 -25
-203 -16 -17 4 -26 13 -26 26 0 11 3 20 8 21 4 0 77 2 162 5 95 2 172 10 200
19 49 15 89 16 93 0z"/>
</g>
</svg>
