<?xml version="1.0" standalone="no"?>
<!DOCTYPE svg PUBLIC "-//W3C//DTD SVG 20010904//EN"
 "http://www.w3.org/TR/2001/REC-SVG-20010904/DTD/svg10.dtd">
<svg version="1.0" xmlns="http://www.w3.org/2000/svg"
 width="222.000000pt" height="198.000000pt" viewBox="0 0 222.000000 198.000000"
 preserveAspectRatio="xMidYMid meet">
<metadata>
Created by potrace 1.10, written by Peter Selinger 2001-2011
</metadata>
<g transform="translate(0.000000,198.000000) scale(0.100000,-0.100000)"
fill="#000000" stroke="none">
<path d="M852 1857 c-21 -22 -22 -31 -22 -240 l0 -217 28 -30 27 -31 220 0
c121 0 228 3 237 6 10 4 27 22 38 40 18 30 20 49 20 231 0 181 -2 202 -20 232
l-20 32 -243 0 c-242 0 -244 0 -265 -23z"/>
<path d="M1463 1579 c-14 -14 -6 -39 12 -39 18 0 26 27 11 39 -9 7 -16 7 -23
0z"/>
<path d="M717 1574 c-4 -4 -7 -18 -7 -31 0 -17 5 -24 17 -21 9 2 18 8 20 13 5
15 -21 48 -30 39z"/>
<path d="M1547 1514 c-3 -4 -2 -15 4 -26 8 -15 13 -17 25 -7 20 16 17 39 -4
39 -10 0 -22 -3 -25 -6z"/>
<path d="M617 1486 c-8 -20 16 -39 30 -25 14 14 6 39 -12 39 -7 0 -15 -6 -18
-14z"/>
<path d="M1634 1435 c-7 -18 3 -35 22 -35 8 0 14 10 14 25 0 27 -27 35 -36 10z"/>
<path d="M534 1415 c-7 -18 2 -45 15 -45 14 0 33 38 26 50 -9 15 -35 12 -41
-5z"/>
<path d="M1707 1364 c-4 -4 -7 -18 -7 -31 0 -26 27 -32 37 -7 6 17 -19 49 -30
38z"/>
<path d="M472 1313 c4 -36 33 -39 33 -3 0 16 -6 26 -18 28 -15 3 -18 -2 -15
-25z"/>
<path d="M1094 1268 c-4 -6 -6 -55 -5 -110 2 -104 -4 -125 -48 -165 -95 -88
-211 -208 -208 -217 2 -6 11 -12 21 -14 16 -3 63 35 201 162 l60 55 50 -47
c27 -26 52 -50 55 -53 40 -43 133 -119 145 -119 9 0 19 8 22 17 5 12 -27 48
-120 138 l-127 121 0 106 c0 59 -3 113 -6 122 -7 19 -30 21 -40 4z"/>
<path d="M1755 1250 c-4 -7 -3 -16 3 -22 14 -14 45 -2 40 15 -6 16 -34 21 -43
7z"/>
<path d="M422 1228 c-20 -20 -14 -38 14 -38 20 0 25 4 22 22 -4 26 -19 33 -36
16z"/>
<path d="M1790 1141 c0 -26 17 -36 35 -21 23 19 18 40 -10 40 -18 0 -25 -5
-25 -19z"/>
<path d="M380 1115 c0 -11 7 -15 23 -13 12 2 22 8 22 13 0 6 -10 11 -22 13
-16 2 -23 -2 -23 -13z"/>
<path d="M283 1042 c-17 -2 -36 -9 -42 -16 -8 -9 -10 -93 -9 -262 l3 -249 30
-15 c39 -20 346 -27 422 -10 83 18 83 18 83 281 0 201 -2 229 -18 248 -16 20
-28 21 -227 23 -116 2 -224 2 -242 0z"/>
<path d="M1704 1042 c-200 -2 -212 -4 -230 -23 -17 -19 -19 -40 -19 -249 0
-256 0 -256 74 -278 60 -19 373 -16 418 3 21 9 41 21 45 28 10 16 10 479 -1
495 -14 23 -68 27 -287 24z"/>
<path d="M1626 433 c-11 -11 -6 -23 8 -23 8 0 17 4 20 9 7 10 -19 23 -28 14z"/>
<path d="M600 406 c-10 -13 -9 -17 4 -22 22 -8 49 3 44 19 -7 18 -33 20 -48 3z"/>
<path d="M1530 366 c0 -18 27 -39 40 -31 5 3 10 15 10 26 0 14 -7 19 -25 19
-15 0 -25 -6 -25 -14z"/>
<path d="M685 340 c-4 -7 -3 -16 3 -22 14 -14 47 -6 47 12 0 18 -40 26 -50 10z"/>
<path d="M1435 310 c-4 -7 -3 -16 3 -22 14 -14 47 -6 47 12 0 18 -40 26 -50
10z"/>
<path d="M790 290 c-13 -8 -13 -11 2 -26 19 -19 38 -11 38 17 0 21 -16 24 -40
9z"/>
<path d="M1340 255 c0 -18 5 -25 20 -25 21 0 24 8 14 34 -10 25 -34 19 -34 -9z"/>
<path d="M890 241 c0 -27 19 -36 37 -18 18 18 9 37 -18 37 -12 0 -19 -7 -19
-19z"/>
<path d="M1237 243 c-15 -14 -7 -43 12 -43 26 0 36 17 21 35 -14 16 -23 19
-33 8z"/>
<path d="M1005 230 c-4 -7 -3 -16 3 -22 14 -14 45 -2 40 15 -6 16 -34 21 -43
7z"/>
<path d="M1110 215 c0 -9 9 -15 25 -15 16 0 25 6 25 15 0 9 -9 15 -25 15 -16
0 -25 -6 -25 -15z"/>
</g>
</svg>
