<?xml version="1.0" standalone="no"?>
<!DOCTYPE svg PUBLIC "-//W3C//DTD SVG 20010904//EN"
 "http://www.w3.org/TR/2001/REC-SVG-20010904/DTD/svg10.dtd">
<svg version="1.0" xmlns="http://www.w3.org/2000/svg"
 width="228.000000pt" height="177.000000pt" viewBox="0 0 228.000000 177.000000"
 preserveAspectRatio="xMidYMid meet">
<metadata>
Created by potrace 1.10, written by Peter Selinger 2001-2011
</metadata>
<g transform="translate(0.000000,177.000000) scale(0.100000,-0.100000)"
fill="#000000" stroke="none">
<path d="M844 1389 c-144 -143 -198 -203 -209 -234 -14 -35 -16 -89 -13 -376
4 -414 -8 -383 175 -473 28 -14 55 -31 58 -36 4 -6 87 -10 214 -10 l208 0 50
53 c93 98 126 176 88 207 -21 18 -20 24 25 92 22 34 40 68 40 75 0 8 -9 32
-20 54 l-21 39 42 59 c43 61 46 80 24 149 l-8 23 243 -2 c238 -1 242 -1 266
22 38 36 33 89 -11 128 l-36 31 -462 0 c-347 0 -466 3 -475 12 -29 29 -13 60
78 154 78 81 90 98 90 128 0 23 -9 45 -26 65 -22 27 -32 31 -76 31 l-50 0
-194 -191z"/>
<path d="M288 1166 c-17 -12 -18 -43 -18 -394 0 -337 2 -381 16 -386 26 -10
222 -7 229 4 3 5 6 179 6 386 0 349 -2 377 -18 390 -24 18 -191 18 -215 0z"/>
</g>
</svg>
