<?xml version="1.0" standalone="no"?>
<!DOCTYPE svg PUBLIC "-//W3C//DTD SVG 20010904//EN"
 "http://www.w3.org/TR/2001/REC-SVG-20010904/DTD/svg10.dtd">
<svg version="1.0" xmlns="http://www.w3.org/2000/svg"
 width="159.000000pt" height="183.000000pt" viewBox="0 0 159.000000 183.000000"
 preserveAspectRatio="xMidYMid meet">
<metadata>
Created by potrace 1.10, written by Peter Selinger 2001-2011
</metadata>
<g transform="translate(0.000000,183.000000) scale(0.100000,-0.100000)"
fill="#000000" stroke="none">
<path d="M725 1330 c-3 -5 -1 -45 5 -87 5 -43 11 -103 13 -133 1 -42 6 -56 18
-58 28 -5 50 162 33 248 -5 24 -11 31 -25 27 -11 -3 -19 -1 -19 4 0 12 -17 11
-25 -1z"/>
<path d="M931 1278 c-6 -16 -15 -28 -21 -28 -5 0 -10 -5 -10 -10 0 -6 -16 -45
-36 -88 -20 -42 -37 -87 -37 -101 -2 -29 19 -40 27 -14 3 10 16 29 29 43 12
14 44 58 70 97 45 68 52 93 25 93 -6 0 -17 8 -24 18 -11 16 -13 15 -23 -10z"/>
<path d="M555 1270 c-3 -5 -12 -7 -20 -4 -21 8 13 -57 68 -132 24 -33 50 -70
56 -82 11 -20 40 -29 53 -16 5 4 -57 142 -83 184 -5 8 -13 25 -19 38 -10 22
-44 30 -55 12z"/>
<path d="M415 1130 c-3 -11 -11 -20 -16 -20 -5 0 -9 -7 -9 -15 0 -8 9 -15 19
-15 11 0 23 -4 26 -10 3 -5 32 -22 63 -36 31 -15 79 -37 105 -49 40 -20 49
-21 54 -9 7 18 -50 70 -132 121 -33 20 -61 41 -63 45 -7 16 -41 7 -47 -12z"/>
<path d="M1040 1120 c-110 -71 -172 -120 -167 -133 6 -17 29 -11 113 29 40 19
78 34 84 34 5 0 10 4 10 9 0 5 13 14 30 19 l30 11 -18 30 c-9 17 -21 31 -27
30 -5 0 -30 -13 -55 -29z"/>
<path d="M373 944 c-7 -3 -13 -14 -13 -24 0 -10 -5 -22 -10 -25 -19 -12 2 -26
29 -20 15 3 76 10 136 15 104 8 138 21 116 43 -10 10 -240 20 -258 11z"/>
<path d="M935 941 c-26 -4 -41 -12 -43 -23 -3 -18 -10 -16 191 -35 85 -8 123
-4 98 11 -6 4 -11 15 -11 26 0 10 -7 21 -16 24 -19 7 -164 5 -219 -3z"/>
<path d="M560 833 c-47 -23 -92 -45 -100 -48 -51 -19 -91 -55 -61 -55 5 0 11
-9 14 -20 5 -20 42 -29 49 -12 2 4 30 25 63 45 98 60 154 117 128 129 -5 2
-46 -15 -93 -39z"/>
<path d="M870 855 c0 -24 190 -165 223 -165 14 0 42 49 33 58 -17 16 -232 122
-249 122 -4 0 -7 -7 -7 -15z"/>
<path d="M825 808 c-4 -10 2 -38 15 -65 25 -55 69 -144 88 -179 l13 -24 30 22
c16 12 29 24 29 26 0 6 -92 143 -112 167 -9 11 -25 31 -36 45 -18 22 -21 23
-27 8z"/>
<path d="M627 738 c-49 -66 -107 -160 -107 -175 0 -3 6 0 14 6 10 8 16 9 21 1
3 -5 16 -10 28 -10 17 0 30 17 60 79 20 43 37 82 37 88 0 6 9 22 21 37 21 26
18 46 -6 46 -7 0 -38 -33 -68 -72z"/>
<path d="M746 768 c-2 -13 -10 -71 -16 -130 -13 -114 -8 -157 15 -138 7 6 19
9 26 8 20 -5 31 70 23 152 -4 41 -7 87 -7 103 0 34 -34 39 -41 5z"/>
</g>
</svg>
