<?xml version="1.0" standalone="no"?>
<!DOCTYPE svg PUBLIC "-//W3C//DTD SVG 20010904//EN"
 "http://www.w3.org/TR/2001/REC-SVG-20010904/DTD/svg10.dtd">
<svg version="1.0" xmlns="http://www.w3.org/2000/svg"
 width="222.000000pt" height="192.000000pt" viewBox="0 0 222.000000 192.000000"
 preserveAspectRatio="xMidYMid meet">
<metadata>
Created by potrace 1.10, written by Peter Selinger 2001-2011
</metadata>
<g transform="translate(0.000000,192.000000) scale(0.100000,-0.100000)"
fill="#000000" stroke="none">
<path d="M1415 1821 c-56 -11 -75 -38 -75 -107 0 -56 -3 -63 -27 -79 -15 -10
-46 -20 -69 -23 -55 -6 -77 -31 -93 -105 -17 -80 -4 -118 55 -152 51 -30 49
-24 28 -162 -6 -40 -4 -43 48 -93 67 -64 88 -70 147 -39 58 31 90 22 145 -38
51 -57 68 -57 193 0 21 10 51 63 45 82 -2 5 -1 24 3 42 7 39 57 73 107 73 26
0 39 7 56 30 18 24 22 43 22 110 l0 80 -43 27 c-60 36 -73 71 -45 129 27 59
19 86 -45 145 -60 56 -99 63 -147 28 -35 -26 -95 -21 -116 10 -32 45 -44 51
-102 50 -31 -1 -70 -4 -87 -8z m120 -83 c15 -18 39 -41 54 -50 36 -24 108 -23
146 2 39 26 47 25 84 -6 34 -28 39 -55 16 -74 -41 -34 -1 -158 64 -197 45 -27
49 -42 23 -93 -14 -29 -23 -35 -56 -37 -42 -2 -64 -18 -107 -77 -21 -29 -29
-50 -29 -82 0 -42 -1 -44 -40 -54 -44 -12 -55 -8 -84 28 -23 29 -90 61 -129
62 -15 0 -46 -10 -67 -22 l-39 -23 -27 21 c-46 34 -49 46 -24 97 l23 45 -19
47 c-13 32 -33 58 -61 79 -38 28 -42 35 -43 73 0 50 26 75 71 66 23 -4 35 1
67 33 44 45 62 82 62 128 0 37 13 52 50 59 14 2 28 5 32 6 3 0 18 -14 33 -31z"/>
<path d="M1503 1579 c-24 -12 -56 -38 -73 -59 -27 -34 -30 -45 -30 -108 0 -50
4 -73 15 -82 8 -7 15 -18 15 -24 0 -19 51 -51 103 -66 82 -22 150 8 203 92 60
93 -2 224 -121 257 -54 15 -64 14 -112 -10z m143 -94 c34 -33 36 -38 31 -81
-15 -133 -207 -121 -207 13 0 17 12 43 31 66 26 31 37 37 69 37 30 0 46 -7 76
-35z"/>
<path d="M610 1289 c-59 -31 -80 -66 -78 -126 2 -44 -1 -55 -22 -73 -22 -18
-33 -20 -93 -15 -66 6 -67 6 -97 -27 -17 -18 -30 -38 -30 -44 0 -6 -7 -17 -15
-24 -10 -8 -15 -30 -15 -64 0 -47 3 -54 40 -89 29 -26 40 -45 40 -66 0 -29
-33 -81 -52 -81 -6 0 -21 -11 -34 -26 -28 -30 -32 -86 -9 -130 8 -16 15 -37
15 -46 0 -9 16 -29 35 -44 30 -23 41 -25 81 -19 41 6 48 4 70 -20 21 -23 24
-36 24 -99 0 -66 2 -75 28 -99 15 -15 33 -27 39 -27 6 0 16 -7 23 -15 8 -10
30 -15 62 -15 45 0 53 4 96 45 65 64 108 59 146 -18 11 -20 19 -22 109 -25 70
-2 101 1 110 10 35 35 47 65 47 113 0 41 5 56 23 73 20 19 30 21 90 15 65 -6
69 -5 97 22 17 16 30 33 30 39 0 5 7 18 17 28 9 10 16 36 17 63 1 39 -4 49
-41 87 -30 30 -43 52 -43 71 0 30 26 77 43 77 6 0 24 12 39 27 23 22 28 35 28
72 0 25 -7 55 -15 65 -8 11 -15 28 -15 37 0 31 -59 64 -118 65 -79 2 -95 22
-93 115 2 86 -11 104 -97 145 -66 31 -92 27 -144 -23 -24 -23 -48 -37 -70 -39
-36 -4 -40 -1 -99 69 -29 34 -35 37 -83 36 -28 -1 -66 -10 -86 -20z m125 -75
c14 -15 25 -31 25 -35 0 -5 10 -17 22 -29 17 -16 35 -20 88 -20 65 0 68 1 111
44 l45 44 42 -19 c54 -25 64 -44 45 -85 -23 -47 -10 -81 53 -142 l55 -53 54 6
c42 6 56 4 58 -6 2 -8 9 -29 15 -48 11 -33 10 -35 -43 -84 l-55 -50 0 -66 c0
-64 2 -69 40 -109 45 -47 46 -48 25 -89 -25 -49 -41 -58 -79 -45 -49 18 -66
15 -117 -20 -59 -40 -83 -83 -75 -135 8 -48 -2 -62 -49 -73 -48 -11 -58 -7
-89 41 -29 43 -55 54 -133 54 -48 0 -56 -3 -96 -43 l-44 -43 -44 23 c-47 25
-49 31 -33 106 5 26 1 39 -22 70 -59 77 -83 92 -146 92 -31 0 -59 3 -61 8 -3
4 -8 28 -12 54 -6 41 -5 49 11 54 11 4 34 21 52 37 30 29 32 35 32 101 0 69
-1 71 -41 112 l-42 43 18 38 c27 57 40 63 96 45 l47 -15 44 33 c76 60 87 78
88 148 0 59 1 62 24 62 14 0 28 5 31 10 11 17 35 11 60 -16z"/>
<path d="M722 965 c-64 -32 -112 -79 -141 -137 -28 -58 -30 -180 -3 -230 21
-40 106 -128 125 -128 7 0 22 -7 33 -15 29 -22 141 -19 196 5 58 25 123 90
148 148 26 58 27 167 3 213 -26 47 -82 108 -127 136 -28 18 -57 26 -110 29
-62 5 -78 2 -124 -21z m181 -70 c49 -20 90 -65 112 -120 26 -69 8 -141 -52
-200 -48 -49 -92 -61 -171 -50 -85 11 -161 99 -162 184 0 63 72 181 110 181
10 0 22 5 25 10 9 15 98 12 138 -5z"/>
</g>
</svg>
