<?xml version="1.0" standalone="no"?>
<!DOCTYPE svg PUBLIC "-//W3C//DTD SVG 20010904//EN"
 "http://www.w3.org/TR/2001/REC-SVG-20010904/DTD/svg10.dtd">
<svg version="1.0" xmlns="http://www.w3.org/2000/svg"
 width="222.000000pt" height="225.000000pt" viewBox="0 0 222.000000 225.000000"
 preserveAspectRatio="xMidYMid meet">
<metadata>
Created by potrace 1.10, written by Peter Selinger 2001-2011
</metadata>
<g transform="translate(0.000000,225.000000) scale(0.100000,-0.100000)"
stroke="none">
<path fill="#000000" d="M316 1823 l2 -158 124 -1 c67 0 140 -4 162 -9 37 -7 38 -7 31 16 -4 13 -17 30 -29 38 -35 24 -215 204 -239 238 -12 18 -29 33 -38 33 -14 0 -16 -19 -13 -157z"/>
<path fill="#000000" d="M1316 1623 c5 -21 9 -81 9 -133 0 -52 -4 -112 -9 -132 -7 -32 -6 -38 7 -38 21 0 167 149 167 170 0 21 -146 170 -167 170 -13 0 -14 -6 -7 -37z"/>
<path fill="#999999" d="M948 1628 c-8 -13 -72 -81 -142 -152 -70 -71 -125 -134 -123 -140 2 -7 41 -12 103 -14 126 -4 181 4 188 26 2 9 6 80 8 156 3 145 -4 170 -34 124z"/>
<path fill="#000000" d="M320 1315 c-11 -13 -7 -21 31 -53 85 -72 279 -271 279 -286 0 -8 -27 -40 -60 -72 -33 -31 -62 -65 -65 -75 -9 -28 -33 -23 -68 14 -45 47 -87 99 -87 109 0 4 -9 8 -20 8 -18 0 -19 -6 -14 -172 l5 -173 87 -82 c78 -74 84 -83 65 -90 -12 -4 -44 -29 -71 -55 -28 -25 -61 -53 -73 -61 -33 -23 -18 -51 22 -43 18 3 90 6 161 6 l130 0 157 159 c205 208 196 196 146 186 -22 -4 -98 -11 -170 -14 l-130 -6 3 -25 c7 -48 6 -155 -1 -184 -6 -22 -11 -26 -20 -17 -12 12 -17 181 -7 209 4 11 -17 14 -100 16 -58 1 -114 7 -125 13 -20 12 -20 12 0 20 11 4 67 8 125 7 63 0 108 4 112 10 4 6 8 59 8 117 0 117 7 169 23 169 12 0 106 -93 130 -129 l16 -24 78 77 c42 42 81 76 85 76 4 0 8 7 8 16 0 14 19 15 165 13 188 -4 207 2 148 46 -21 15 -97 87 -169 161 -73 73 -134 130 -138 127 -3 -4 -6 -80 -6 -170 l0 -163 -166 2 -165 3 -2 164 -2 165 -140 2 c-77 1 -147 4 -156 8 -9 4 -21 0 -29 -9z m133 -548 c-37 -42 -53 -57 -63 -57 -5 0 -10 3 -10 8 1 12 37 52 48 52 5 0 13 7 16 16 3 8 11 12 17 9 7 -5 4 -14 -8 -28z m104 -363 c19 -20 31 -40 26 -45 -9 -9 -83 53 -83 70 0 21 22 11 57 -25z"/>
<path fill="#CCCCCC" d="M1007 644 c-15 -15 -4 -29 111 -144 64 -64 135 -138 157 -163 22 -26 45 -47 52 -47 21 0 25 40 8 77 -14 28 -16 58 -14 152 l4 116 -115 1 c-63 0 -133 4 -155 8 -22 4 -44 4 -48 0z"/>
<path fill="#999999" d="M1595 639 c-22 -5 -71 -12 -110 -16 -74 -9 -86 -20 -42 -41 36 -17 34 -40 -8 -119 -19 -36 -35 -67 -35 -69 0 -14 25 4 92 69 42 39 100 94 128 120 66 63 61 74 -25 56z"/>
<path fill="#000000" d="M946 463 c-9 -18 -23 -33 -32 -33 -28 0 -25 -29 8 -74 18 -25 41 -45 51 -46 16 0 17 7 11 68 -4 37 -10 78 -14 92 l-7 25 -17 -32z"/>
<path fill="#000000" d="M1781 409 c-29 -33 -66 -67 -82 -76 -27 -16 -39 -42 -21 -44 48 -4 323 -1 328 4 5 5 -115 130 -157 163 -11 9 -25 -1 -68 -47z"/>
</g>
</svg>
