<?xml version="1.0" standalone="no"?>
<!DOCTYPE svg PUBLIC "-//W3C//DTD SVG 20010904//EN"
 "http://www.w3.org/TR/2001/REC-SVG-20010904/DTD/svg10.dtd">
<svg version="1.0" xmlns="http://www.w3.org/2000/svg"
 width="180.000000pt" height="168.000000pt" viewBox="0 0 180.000000 168.000000"
 preserveAspectRatio="xMidYMid meet">
<metadata>
Created by potrace 1.10, written by Peter Selinger 2001-2011
</metadata>
<g transform="translate(0.000000,168.000000) scale(0.100000,-0.100000)"
fill="#000000" stroke="none">
<path d="M692 1459 c-18 -17 -36 -45 -40 -62 -8 -29 -11 -31 -48 -29 -37 3
-42 0 -59 -31 -18 -35 -18 -35 -77 -29 -55 4 -61 3 -89 -24 -26 -25 -30 -35
-27 -73 2 -41 0 -45 -27 -54 -57 -19 -94 -81 -72 -120 6 -12 18 -26 25 -30 15
-10 16 -39 0 -55 -36 -36 -78 -216 -78 -335 0 -134 25 -236 93 -377 40 -82
172 -220 211 -220 14 0 26 -4 26 -10 0 -5 14 -10 30 -10 36 0 36 3 9 46 l-21
34 21 0 c12 0 52 -16 90 -37 l69 -36 45 26 c47 28 73 31 140 20 34 -5 38 -8
33 -29 -6 -22 -3 -24 29 -24 19 0 35 5 35 10 0 6 11 10 24 10 22 0 156 111
156 130 0 5 14 29 30 53 17 25 30 49 30 54 0 5 5 14 12 21 14 14 37 74 48 127
5 22 13 58 19 80 6 22 11 83 11 135 0 52 -5 113 -11 135 -6 22 -14 59 -18 83
-4 24 -13 48 -19 54 -7 7 -12 20 -12 29 0 9 -7 22 -15 29 -19 16 -19 46 -1 57
52 31 33 108 -36 140 -41 20 -42 22 -39 64 2 38 -2 48 -28 73 -28 27 -34 28
-89 24 -59 -6 -59 -6 -77 29 -17 31 -22 34 -59 31 -37 -3 -40 -1 -48 28 -4 17
-22 46 -40 63 -26 26 -40 31 -78 31 -38 0 -52 -5 -78 -31z m121 -143 c28 -20
37 -22 41 -10 9 23 24 16 31 -16 4 -16 12 -30 19 -30 26 0 151 -71 188 -107
48 -46 78 -101 78 -143 0 -23 -4 -30 -19 -30 -11 0 -23 5 -26 10 -10 16 -32
11 -38 -9 -2 -11 -20 -24 -43 -31 -22 -6 -53 -18 -71 -26 -44 -20 -103 -19
-103 2 0 41 44 155 66 173 13 10 24 25 24 33 0 17 -130 98 -156 98 -10 0 -41
-12 -69 -25 -27 -14 -67 -25 -87 -25 -51 0 -85 -15 -133 -58 -50 -45 -114 -96
-128 -101 -16 -6 2 51 29 91 36 51 48 61 144 111 71 38 86 50 93 76 9 35 15
38 32 14 11 -15 14 -14 33 5 28 28 51 28 95 -2z m46 -160 c7 -9 8 -17 2 -20
-5 -3 -19 -27 -31 -54 -12 -26 -35 -74 -51 -107 -16 -33 -29 -66 -29 -73 0 -6
-9 -29 -20 -49 -11 -21 -20 -43 -20 -50 0 -7 -7 -16 -17 -21 -10 -6 -14 -16
-10 -26 6 -15 9 -15 37 -1 27 14 33 14 60 0 36 -19 40 -19 40 -1 0 8 -8 17
-17 21 -17 6 -17 7 1 20 11 8 29 12 42 9 12 -3 37 1 56 9 82 36 138 57 153 57
9 0 27 7 40 16 32 21 69 15 73 -12 4 -28 -23 -54 -56 -54 -15 0 -36 -7 -46
-15 -11 -8 -29 -15 -40 -15 -12 0 -30 -7 -40 -15 -11 -8 -32 -15 -46 -15 -15
0 -48 -11 -73 -24 -25 -14 -67 -26 -93 -28 -45 -3 -78 -28 -37 -28 11 0 25 -6
31 -12 9 -9 66 -12 215 -11 111 2 209 0 218 -3 21 -6 32 -44 17 -61 -14 -17
-294 -18 -385 -1 -51 9 -72 19 -106 50 -61 55 -99 47 -65 -15 7 -12 15 -42 18
-66 4 -39 9 -45 49 -67 24 -13 49 -28 55 -34 5 -5 20 -10 32 -10 13 0 25 -4
28 -9 7 -11 88 -51 103 -51 6 0 16 -7 23 -15 7 -8 21 -15 31 -15 9 0 24 -7 33
-15 8 -8 22 -15 32 -15 21 0 64 -38 64 -57 0 -21 -48 -28 -69 -9 -10 9 -22 16
-28 16 -6 0 -16 7 -23 15 -7 8 -20 15 -30 15 -10 0 -23 7 -30 15 -7 8 -16 15
-21 15 -12 0 1 -92 16 -110 7 -8 16 -36 20 -61 5 -35 3 -48 -9 -58 -21 -18
-46 -7 -46 21 0 13 -7 41 -15 63 -8 22 -14 59 -15 82 0 23 -4 45 -10 48 -5 3
-10 14 -10 23 0 15 -55 62 -73 62 -4 0 -7 -22 -7 -50 0 -27 -4 -69 -10 -92 -5
-24 -13 -78 -16 -120 l-6 -78 -33 0 c-44 0 -50 13 -32 63 8 23 18 76 21 117 4
41 11 79 16 84 20 20 9 59 -32 107 -28 34 -44 63 -49 92 -6 42 -7 41 -8 -15
l-1 -57 -101 -101 c-82 -84 -103 -99 -115 -90 -26 23 -14 43 81 135 88 85 95
95 95 131 0 21 7 61 15 88 10 31 12 54 6 65 -9 14 -11 14 -18 -4 -18 -43 -77
-125 -93 -130 -10 -3 -21 -12 -24 -20 -3 -9 -18 -15 -34 -15 -16 0 -35 -7 -42
-16 -17 -20 -74 -15 -78 7 -4 20 66 59 106 59 29 0 55 20 82 60 8 13 23 30 33
39 16 15 24 41 11 41 -3 0 -17 -9 -31 -20 -14 -11 -34 -20 -45 -20 -11 0 -26
-7 -34 -15 -9 -8 -25 -15 -37 -15 -12 -1 -33 -7 -47 -15 -17 -9 -29 -10 -37
-3 -18 15 5 57 36 64 14 3 38 12 53 20 14 8 40 14 57 14 17 0 31 5 31 10 0 6
13 10 29 10 17 0 33 4 36 10 7 11 -82 110 -98 110 -18 0 -67 53 -67 72 0 10 7
21 15 24 8 4 15 17 15 30 0 25 31 47 37 27 2 -6 13 -21 24 -34 10 -12 19 -30
19 -41 0 -10 5 -18 10 -18 6 0 10 -9 10 -19 0 -23 41 -71 60 -71 9 0 11 9 6
33 -4 17 -9 55 -12 82 -3 28 -12 64 -20 82 -21 47 -18 80 11 99 50 33 56 19
54 -142 -1 -114 -4 -147 -15 -151 -8 -3 -14 -11 -14 -19 0 -19 29 -18 36 1 4
8 12 15 20 15 7 0 16 16 20 37 4 21 18 58 31 82 12 24 23 54 23 65 0 12 6 30
13 41 8 11 17 35 21 54 3 19 11 40 17 48 15 17 63 17 78 -1z m295 -675 c33
-28 11 -91 -30 -91 -24 0 -61 23 -106 67 -17 15 -17 17 5 28 28 15 111 12 131
-4z m-522 -226 c-4 -51 -32 -109 -55 -113 -33 -6 -67 25 -67 63 0 28 7 38 43
64 23 16 51 29 62 28 17 -2 20 -8 17 -42z"/>
</g>
</svg>
