<?xml version="1.0" standalone="no"?>
<!DOCTYPE svg PUBLIC "-//W3C//DTD SVG 20010904//EN"
 "http://www.w3.org/TR/2001/REC-SVG-20010904/DTD/svg10.dtd">
<svg version="1.0" xmlns="http://www.w3.org/2000/svg"
 width="210.000000pt" height="204.000000pt" viewBox="0 0 210.000000 204.000000"
 preserveAspectRatio="xMidYMid meet">
<metadata>
Created by potrace 1.10, written by Peter Selinger 2001-2011
</metadata>
<g transform="translate(0.000000,204.000000) scale(0.100000,-0.100000)"
fill="#000000" stroke="none">
<path d="M210 1764 c-6 -14 -10 -37 -10 -52 0 -15 -6 -48 -14 -73 -8 -25 -16
-74 -17 -110 l-4 -64 120 -6 c66 -3 136 -11 155 -17 19 -7 64 -12 100 -12 36
0 70 -4 76 -9 5 -5 32 -20 59 -35 34 -17 57 -38 70 -63 14 -26 29 -39 50 -43
17 -4 40 -12 53 -19 15 -8 28 -9 41 -2 15 8 22 6 33 -11 14 -20 17 -21 47 -8
22 9 34 21 38 41 7 37 23 37 48 -1 14 -20 28 -30 46 -30 46 0 45 2 -38 135 -7
11 -26 47 -42 81 -16 33 -36 66 -44 72 -18 15 -104 42 -136 42 -23 0 -100 22
-156 46 -16 7 -49 19 -72 28 -106 40 -130 49 -161 62 -18 8 -39 14 -47 14 -15
0 -68 21 -117 46 -41 22 -67 18 -78 -12z m740 -454 c0 -32 -26 -43 -36 -15 -9
21 3 45 21 45 10 0 15 -10 15 -30z"/>
<path d="M1715 1586 c-25 -24 -60 -67 -78 -95 -52 -78 -192 -241 -249 -289
-30 -25 -36 -42 -15 -42 24 0 228 -93 224 -103 -1 -5 -24 -18 -50 -28 -78 -31
-141 -18 -212 43 -57 48 -77 55 -83 27 -3 -17 217 -241 233 -237 11 3 39 33
166 174 10 12 19 25 19 29 0 4 13 24 28 44 26 33 40 63 76 159 55 144 54 362
0 362 -7 0 -34 -20 -59 -44z"/>
<path d="M674 1078 c-11 -13 -26 -40 -33 -61 -11 -33 -10 -43 3 -72 22 -46 78
-93 121 -101 63 -12 155 46 155 97 0 34 -37 89 -83 124 -38 29 -54 35 -95 35
-38 0 -53 -5 -68 -22z"/>
<path d="M1190 1026 c0 -7 41 -52 91 -101 91 -88 105 -112 46 -83 -32 15 -67
31 -140 62 -44 19 -73 20 -82 5 -9 -13 23 -49 43 -49 7 0 26 -6 40 -14 85 -45
185 -87 198 -82 7 3 14 12 14 21 0 8 9 15 19 15 24 0 35 15 24 33 -4 8 -56 57
-116 110 -102 92 -137 114 -137 83z"/>
<path d="M568 775 c-41 -28 -54 -65 -46 -139 7 -63 41 -102 98 -116 62 -15
103 4 126 58 13 32 13 46 2 102 -22 115 -93 152 -180 95z"/>
<path d="M888 783 c-69 -43 -63 -159 10 -204 48 -29 137 -31 173 -4 31 23 59
78 59 114 0 75 -167 140 -242 94z"/>
<path d="M1190 578 c-35 -48 -37 -66 -11 -116 43 -83 129 -107 189 -53 41 38
42 74 1 132 -45 64 -66 79 -110 79 -34 0 -43 -5 -69 -42z"/>
</g>
</svg>
