<?xml version="1.0" standalone="no"?>
<!DOCTYPE svg PUBLIC "-//W3C//DTD SVG 20010904//EN"
 "http://www.w3.org/TR/2001/REC-SVG-20010904/DTD/svg10.dtd">
<svg version="1.0" xmlns="http://www.w3.org/2000/svg"
 width="237.000000pt" height="186.000000pt" viewBox="0 0 237.000000 186.000000"
 preserveAspectRatio="xMidYMid meet">
<metadata>
Created by potrace 1.10, written by Peter Selinger 2001-2011
</metadata>
<g transform="translate(0.000000,186.000000) scale(0.100000,-0.100000)"
fill="#000000" stroke="none">
<path d="M1627 1453 c-90 -120 -166 -226 -170 -235 -7 -21 69 -88 100 -88 12
0 32 20 56 58 20 32 45 67 55 78 9 10 29 37 45 60 15 22 35 49 45 60 9 10 29
37 45 60 15 22 35 49 45 60 28 33 62 83 62 93 0 16 -77 71 -99 71 -15 0 -62
-56 -184 -217z"/>
<path d="M1396 1138 c-4 -16 0 -27 12 -36 9 -7 29 -24 45 -38 30 -28 50 -27
67 5 8 17 7 24 -10 38 -11 10 -29 26 -40 36 -29 25 -66 22 -74 -5z"/>
<path d="M606 1114 c-21 -20 -21 -74 -1 -74 10 0 15 10 15 30 0 25 4 30 25 30
16 0 25 6 25 15 0 20 -44 20 -64 -1z"/>
<path d="M1215 1084 c-52 -17 -187 -55 -422 -120 -114 -31 -163 -48 -167 -61
-3 -7 4 -33 15 -58 17 -38 24 -45 47 -45 15 1 38 7 52 15 31 18 93 20 88 3 -3
-7 -18 -15 -34 -19 -41 -9 -94 -38 -94 -52 0 -6 25 -35 55 -64 l55 -53 56 25
c31 14 63 25 70 25 22 0 16 -35 -11 -76 -14 -20 -25 -42 -25 -49 0 -13 122
-115 138 -115 5 0 15 -7 22 -15 19 -22 61 -19 67 5 3 11 12 20 20 20 11 0 13
-9 8 -44 l-7 -44 57 -27 c54 -25 58 -26 76 -9 11 10 25 29 32 43 7 15 22 27
36 29 22 4 23 1 21 -55 -1 -32 -2 -64 -1 -71 1 -18 36 -11 37 8 1 8 2 21 3 28
2 23 20 12 23 -15 2 -22 9 -29 31 -31 l27 -3 0 350 c0 320 -2 354 -18 385 -50
92 -147 127 -257 90z m-60 -144 c3 -6 -5 -14 -18 -19 -14 -6 -28 -15 -32 -20
-3 -6 -17 -11 -30 -11 -13 0 -37 -8 -54 -17 -23 -14 -33 -15 -42 -6 -16 16 58
53 105 53 21 0 36 6 40 15 6 17 22 20 31 5z m142 -238 c-9 -10 -17 -26 -17
-34 0 -9 -7 -21 -15 -28 -8 -7 -15 -18 -15 -24 0 -6 -11 -24 -24 -41 -21 -26
-25 -28 -31 -13 -4 10 0 24 9 33 9 9 16 22 16 29 0 8 7 19 15 26 8 7 15 19 15
28 0 24 42 64 54 52 6 -6 4 -16 -7 -28z"/>
<path d="M352 1037 c-26 -27 -32 -41 -32 -78 0 -37 5 -50 29 -73 20 -20 35
-26 48 -22 15 6 13 10 -15 32 -26 21 -32 33 -32 63 0 47 33 81 78 81 22 0 32
5 32 15 0 11 -11 15 -38 15 -30 0 -45 -7 -70 -33z"/>
<path d="M477 766 c-39 -40 -41 -56 -10 -100 26 -37 33 -41 71 -41 51 0 61 19
12 23 -60 6 -104 67 -64 90 9 5 14 17 13 27 -4 18 -5 18 -22 1z"/>
<path d="M668 535 c-12 -16 -18 -42 -18 -80 0 -49 5 -63 31 -96 30 -38 32 -39
99 -39 62 0 69 2 85 26 17 27 17 27 -6 19 -13 -4 -47 -10 -76 -12 -48 -4 -55
-2 -77 24 -21 23 -25 39 -26 86 0 42 4 59 15 63 18 7 20 34 3 34 -7 0 -21 -11
-30 -25z"/>
<path d="M447 473 c-4 -3 -7 -21 -7 -39 0 -36 25 -58 61 -52 28 4 24 22 -6 26
-21 3 -25 8 -25 38 0 32 -8 42 -23 27z"/>
</g>
</svg>
