<?xml version="1.0" standalone="no"?>
<!DOCTYPE svg PUBLIC "-//W3C//DTD SVG 20010904//EN"
 "http://www.w3.org/TR/2001/REC-SVG-20010904/DTD/svg10.dtd">
<svg version="1.0" xmlns="http://www.w3.org/2000/svg"
 width="171.000000pt" height="192.000000pt" viewBox="0 0 171.000000 192.000000"
 preserveAspectRatio="xMidYMid meet">
<metadata>
Created by potrace 1.10, written by Peter Selinger 2001-2011
</metadata>
<g transform="translate(0.000000,192.000000) scale(0.100000,-0.100000)"
fill="#000000" stroke="none">
<path d="M740 1709 c-37 -15 -58 -43 -71 -93 -14 -57 1 -130 33 -155 28 -23
20 -36 -86 -140 -53 -51 -86 -91 -86 -104 0 -11 23 -44 50 -73 41 -43 50 -59
50 -89 0 -44 -18 -53 -74 -36 -23 7 -60 16 -82 21 -57 12 -108 43 -112 66 -3
20 2 23 88 64 8 4 15 18 15 31 0 35 -35 36 -90 4 -54 -32 -65 -50 -65 -104 0
-67 66 -110 203 -132 101 -17 105 -19 89 -62 -7 -18 -12 -44 -12 -56 0 -13 -7
-53 -15 -90 -24 -110 -35 -172 -45 -255 -10 -76 -12 -81 -55 -121 -34 -31 -45
-49 -45 -71 0 -49 8 -53 113 -55 79 -2 101 1 114 14 19 19 53 103 53 132 0 11
7 33 15 49 8 15 15 36 15 45 0 9 6 36 14 61 95 294 97 306 46 298 -23 -3 -31
-23 -59 -138 -5 -19 -14 -48 -19 -65 -6 -16 -18 -57 -27 -90 -32 -110 -47
-160 -64 -205 -16 -43 -19 -45 -63 -50 -25 -3 -51 -4 -57 -2 -21 7 -11 33 17
43 24 8 32 20 45 69 10 33 17 71 17 86 0 14 6 53 14 87 23 97 35 165 47 257 6
47 16 88 22 92 7 4 37 4 67 0 30 -4 93 -7 140 -7 48 1 88 -4 92 -10 4 -5 8
-22 8 -38 0 -15 6 -53 14 -85 8 -31 22 -93 31 -137 9 -44 23 -103 31 -131 8
-28 14 -62 14 -75 1 -43 37 -109 60 -109 23 0 39 -28 21 -39 -15 -10 -109 3
-122 16 -6 6 -14 26 -19 44 -5 19 -25 79 -45 134 -20 55 -39 109 -42 120 -13
50 -35 85 -53 85 -30 0 -33 -38 -9 -100 11 -30 23 -64 26 -75 3 -11 11 -33 18
-50 18 -42 36 -95 43 -125 8 -39 50 -100 70 -101 38 -2 197 3 201 7 2 2 4 22
4 44 0 40 -11 56 -67 96 -12 8 -22 31 -27 61 -10 71 -29 163 -41 201 -5 19
-14 57 -18 85 -5 29 -16 80 -25 115 -8 35 -13 67 -10 72 4 6 21 10 38 10 76 0
222 47 277 90 35 27 33 95 -4 135 -18 19 -24 35 -20 48 12 38 -32 43 -103 11
-20 -9 -33 -22 -33 -34 0 -24 37 -110 47 -110 21 1 35 20 30 39 -3 14 0 21 8
21 18 0 45 -28 45 -46 0 -19 -74 -64 -107 -64 -16 0 -49 -6 -74 -14 -25 -8
-63 -16 -83 -18 l-38 -3 -19 70 c-21 84 -23 115 -6 116 6 0 33 0 59 -1 97 -3
140 67 97 157 -42 87 -67 113 -107 113 -23 0 -44 -8 -58 -21 -22 -21 -24 -21
-50 -5 -20 14 -24 23 -19 39 26 86 28 101 17 144 -7 24 -20 53 -30 63 -34 37
-108 50 -162 29z m91 -49 c16 0 49 -64 49 -96 0 -42 -39 -98 -71 -102 -34 -4
-76 36 -84 80 -12 64 38 137 83 122 8 -2 18 -4 23 -4z m116 -305 c59 -62 125
-61 78 1 -21 28 -18 44 9 44 20 0 30 -11 51 -57 39 -81 32 -87 -90 -91 -95 -3
-97 -3 -91 -25 4 -12 9 -38 12 -57 3 -19 13 -53 21 -76 8 -23 13 -54 11 -70
l-3 -29 -124 2 c-68 1 -129 7 -134 12 -7 7 -5 34 6 83 20 87 37 176 46 241 4
27 14 53 22 58 8 5 43 9 78 9 63 0 65 -1 108 -45z m-274 -91 c-2 -28 -20 -95
-27 -101 -7 -7 -56 36 -56 48 0 5 14 24 31 44 33 37 55 41 52 9z"/>
</g>
</svg>
