<?xml version="1.0" standalone="no"?>
<!DOCTYPE svg PUBLIC "-//W3C//DTD SVG 20010904//EN"
 "http://www.w3.org/TR/2001/REC-SVG-20010904/DTD/svg10.dtd">
<svg version="1.0" xmlns="http://www.w3.org/2000/svg"
 width="204.000000pt" height="207.000000pt" viewBox="0 0 204.000000 207.000000"
 preserveAspectRatio="xMidYMid meet">
<metadata>
Created by potrace 1.10, written by Peter Selinger 2001-2011
</metadata>
<g transform="translate(0.000000,207.000000) scale(0.100000,-0.100000)"
fill="#000000" stroke="none">
<path d="M303 1651 c-29 -32 -53 -67 -53 -77 0 -18 114 -144 130 -144 4 0 14
7 21 16 12 15 8 21 -29 54 -23 21 -42 40 -42 44 0 3 205 6 455 6 372 0 455 -2
455 -13 0 -8 -12 -20 -26 -27 -37 -20 -50 -48 -30 -68 14 -14 22 -10 85 49 38
35 69 71 70 79 0 8 -28 44 -64 79 -54 54 -68 62 -90 57 -34 -9 -32 -20 10 -52
19 -14 35 -34 35 -44 0 -15 -6 -16 -52 -8 -29 5 -225 8 -443 6 -348 -3 -391
-1 -388 12 2 9 17 24 34 35 35 23 34 49 -1 52 -19 2 -37 -11 -77 -56z"/>
<path d="M1407 1353 c-69 -67 -80 -89 -50 -100 12 -5 28 6 54 35 20 23 39 42
43 42 3 0 6 -205 6 -455 0 -250 -3 -455 -7 -455 -4 0 -24 18 -45 41 -38 41
-60 46 -66 15 -6 -27 108 -136 141 -136 38 0 140 98 135 131 -4 34 -30 34 -53
0 -10 -16 -30 -35 -43 -41 -23 -10 -24 -9 -17 12 12 33 18 752 7 821 -7 44 -6
57 4 57 14 0 35 -19 58 -52 18 -25 46 -18 46 12 0 21 -96 118 -130 131 -11 5
-36 -12 -83 -58z"/>
<path d="M288 883 c-2 -269 0 -493 4 -499 10 -14 974 -12 988 2 7 7 9 181 8
495 l-3 484 -497 3 -497 2 -3 -487z m152 418 c32 -23 111 -94 185 -166 17 -16
53 -48 81 -70 54 -44 112 -94 159 -140 17 -16 53 -48 81 -70 55 -45 108 -92
168 -149 23 -21 58 -50 80 -64 40 -27 61 -65 48 -87 -5 -10 -27 5 -82 57 -41
39 -113 104 -160 144 -47 39 -106 91 -131 115 -25 24 -68 62 -95 84 -55 45
-113 96 -159 140 -17 17 -70 62 -118 100 -48 39 -87 73 -87 78 0 4 -7 7 -15 7
-8 0 -15 6 -15 14 0 8 -8 17 -17 20 -14 6 -15 9 -4 16 18 10 37 4 81 -29z
m123 -13 c25 -24 62 -56 82 -73 54 -44 124 -105 166 -145 20 -19 58 -53 84
-75 99 -83 139 -118 165 -144 15 -14 56 -48 93 -76 72 -55 106 -100 88 -118
-13 -13 -14 -11 -183 145 -20 18 -58 51 -84 73 -57 48 -129 111 -165 145 -38
36 -80 72 -110 95 -15 11 -60 50 -100 87 -41 36 -90 80 -109 97 l-35 30 31 1
c24 0 43 -11 77 -42z m69 33 c13 -5 59 -43 102 -86 44 -42 99 -92 123 -110 25
-19 73 -60 108 -92 95 -88 134 -121 181 -155 24 -17 44 -35 44 -40 0 -4 6 -8
13 -8 21 0 54 -67 40 -81 -9 -9 -17 -5 -35 13 -13 13 -61 58 -108 99 -47 41
-101 88 -120 105 -19 18 -73 65 -120 105 -47 40 -94 82 -105 94 -11 11 -47 41
-80 67 -33 25 -71 58 -84 72 -24 25 -24 26 -3 26 11 0 31 -4 44 -9z m110 -2
c12 -6 33 -23 47 -38 15 -14 47 -43 71 -63 25 -20 70 -61 101 -90 31 -30 79
-72 105 -93 127 -104 184 -159 184 -178 0 -32 -21 -27 -62 15 -24 24 -63 60
-88 80 -25 19 -70 60 -101 89 -31 30 -78 72 -105 94 -54 44 -104 88 -173 153
-39 37 -42 42 -22 42 12 0 32 -5 43 -11z m148 -29 c23 -22 70 -64 103 -93 34
-28 66 -56 73 -62 6 -5 39 -35 74 -65 84 -72 110 -100 110 -116 0 -29 -23 -23
-64 18 -24 24 -67 63 -96 88 -30 25 -79 67 -109 95 -31 27 -67 59 -80 70 -13
11 -31 28 -40 38 -8 9 -19 17 -23 17 -9 0 -48 37 -48 45 0 3 13 5 29 5 21 0
42 -12 71 -40z m77 27 c12 -7 57 -45 100 -86 43 -41 98 -89 123 -108 48 -37
61 -58 51 -85 -5 -13 -21 -3 -82 55 -43 40 -93 86 -114 102 -38 31 -47 39
-109 90 -20 16 -36 33 -36 37 0 12 42 9 67 -5z m108 1 c14 -6 25 -14 25 -18 0
-4 26 -25 58 -49 32 -23 66 -55 76 -71 26 -45 4 -67 -32 -32 -61 58 -143 132
-147 132 -7 0 -45 39 -45 45 0 9 39 5 65 -7z m115 0 c17 -11 22 -10 30 2 5 8
12 11 17 7 4 -5 2 -12 -5 -16 -10 -6 -9 -15 5 -39 13 -22 15 -34 7 -42 -11
-11 -21 -4 -108 72 l-31 27 33 1 c18 0 41 -6 52 -12z m-779 -88 c25 -25 68
-63 94 -85 62 -51 134 -114 160 -140 11 -11 49 -45 85 -75 87 -75 138 -119
175 -155 17 -16 53 -48 81 -70 27 -22 54 -44 60 -50 6 -5 39 -35 74 -65 89
-77 110 -100 110 -121 0 -27 -20 -34 -36 -11 -19 28 -61 69 -119 117 -58 48
-162 141 -190 169 -11 12 -43 39 -70 61 -28 22 -55 44 -61 50 -42 39 -172 155
-239 212 -123 105 -135 116 -171 150 -22 21 -34 42 -34 59 0 24 2 25 18 13 9
-8 38 -34 63 -59z m24 -117 c44 -42 118 -109 165 -149 47 -39 106 -91 131
-115 25 -24 68 -62 95 -84 55 -45 113 -95 159 -140 17 -16 63 -56 102 -87 39
-31 86 -71 104 -87 l33 -31 -26 0 c-47 0 -73 17 -166 108 -50 50 -111 105
-134 123 -24 19 -48 38 -54 44 -90 82 -185 167 -254 226 -47 39 -94 81 -105
93 -31 33 -90 76 -105 76 -14 0 102 -116 186 -185 43 -36 108 -94 204 -182 19
-17 73 -64 120 -104 47 -39 95 -82 107 -95 12 -13 27 -24 33 -24 5 0 10 -5 10
-10 0 -6 8 -14 17 -17 22 -9 53 -35 53 -45 0 -12 -48 -10 -71 3 -11 6 -37 27
-57 48 -20 21 -75 71 -122 111 -47 41 -94 83 -105 95 -11 11 -49 45 -85 75
-91 78 -139 120 -177 157 -18 18 -58 51 -89 74 -30 23 -59 50 -64 60 -15 26
-12 49 5 49 19 0 19 9 0 34 -18 24 -20 56 -2 56 6 0 48 -35 92 -77z m-50 -145
c37 -30 80 -68 160 -143 18 -17 55 -48 81 -70 60 -51 163 -142 189 -169 11
-12 49 -43 85 -70 66 -51 100 -81 100 -91 0 -9 -51 -5 -73 6 -12 7 -47 37 -77
68 -31 31 -84 81 -120 111 -90 77 -139 120 -175 155 -17 17 -53 48 -81 70 -88
72 -98 80 -121 104 -22 23 -32 61 -15 61 4 0 25 -15 47 -32z m-35 -68 c0 -5 7
-10 15 -10 8 0 15 -4 15 -9 0 -5 42 -44 92 -87 51 -44 109 -95 129 -114 20
-19 58 -53 85 -75 107 -90 139 -118 142 -126 2 -5 8 -9 13 -9 9 0 49 -36 49
-45 0 -10 -51 -5 -71 8 -19 11 -121 102 -204 182 -17 17 -53 48 -81 70 -129
104 -204 179 -204 204 0 12 5 21 10 21 6 0 10 -4 10 -10z m49 -137 c26 -27 70
-66 97 -88 57 -46 114 -96 161 -142 19 -18 38 -33 43 -33 6 0 10 -5 10 -10 0
-6 8 -13 18 -17 22 -8 52 -34 52 -45 0 -12 -47 -10 -71 5 -12 6 -45 36 -74 65
-29 29 -66 63 -82 75 -34 25 -139 116 -189 164 -32 31 -46 73 -24 73 6 0 32
-21 59 -47z m35 -128 c43 -41 83 -75 87 -75 5 0 9 -4 9 -8 0 -5 21 -23 46 -41
62 -45 98 -80 91 -87 -3 -4 -22 -3 -40 0 -25 5 -59 29 -121 89 -47 45 -106
100 -131 123 -43 39 -59 74 -32 74 7 0 48 -34 91 -75z m-13 -78 c37 -34 83
-76 103 -94 20 -17 36 -34 36 -37 0 -3 -13 -6 -28 -6 -19 0 -43 14 -75 43 -26
23 -65 58 -87 78 -39 35 -54 79 -27 79 6 0 42 -29 78 -63z m-58 -48 c25 -14
40 -26 73 -59 l24 -25 -26 -3 c-52 -7 -104 36 -104 85 0 16 5 16 33 2z"/>
</g>
</svg>
