<?xml version="1.0" standalone="no"?>
<!DOCTYPE svg PUBLIC "-//W3C//DTD SVG 20010904//EN"
 "http://www.w3.org/TR/2001/REC-SVG-20010904/DTD/svg10.dtd">
<svg version="1.0" xmlns="http://www.w3.org/2000/svg"
 width="204.000000pt" height="225.000000pt" viewBox="0 0 204.000000 225.000000"
 preserveAspectRatio="xMidYMid meet">
<metadata>
Created by potrace 1.10, written by Peter Selinger 2001-2011
</metadata>
<g transform="translate(0.000000,225.000000) scale(0.100000,-0.100000)"
fill="#000000" stroke="none">
<path d="M810 1700 c-54 -9 -116 -32 -161 -59 -19 -12 -43 -25 -54 -30 -24
-10 -125 -104 -125 -115 0 -4 -13 -25 -30 -46 -16 -21 -30 -43 -30 -49 0 -7
-6 -22 -14 -34 -7 -12 -19 -49 -26 -82 -24 -118 -23 -116 -82 -100 -44 12 -35
-22 23 -85 28 -30 65 -74 82 -97 17 -24 35 -43 41 -43 6 0 22 10 36 23 39 35
107 87 114 87 14 0 65 44 60 52 -3 4 -30 8 -60 8 l-54 0 0 34 c0 19 4 37 9 40
5 3 12 18 15 33 6 27 22 65 54 128 28 55 103 163 146 208 23 25 65 59 94 77
29 17 52 35 52 40 0 8 -26 21 -38 19 -4 -1 -27 -5 -52 -9z"/>
<path d="M995 1674 c-22 -13 -47 -27 -55 -30 -19 -9 -89 -62 -116 -89 -18 -17
-22 -35 -26 -133 l-6 -112 187 2 186 3 -4 80 c-1 44 -8 130 -15 190 l-11 110
-50 2 c-37 1 -60 -5 -90 -23z m40 -178 c7 -22 5 -30 -13 -48 -18 -18 -26 -20
-49 -12 -41 14 -42 47 -1 73 40 25 50 23 63 -13z"/>
<path d="M1194 1667 c-2 -7 2 -29 10 -48 8 -20 17 -92 21 -171 l7 -138 47 0
c47 -1 268 -33 309 -45 19 -6 22 -4 22 22 0 16 -5 34 -11 40 -13 13 -33 46
-48 80 -13 29 -154 173 -169 173 -7 0 -12 5 -12 10 0 6 -10 15 -22 21 -29 13
-62 32 -79 46 -24 18 -69 25 -75 10z"/>
<path d="M701 1404 c-12 -19 -21 -38 -21 -41 0 -4 -7 -14 -16 -24 -29 -32 11
-53 57 -29 15 9 19 22 19 70 0 33 -4 60 -9 60 -5 0 -18 -16 -30 -36z"/>
<path d="M618 1225 c-14 -31 -5 -41 44 -48 44 -7 71 13 66 47 -2 17 -11 22
-50 24 -43 3 -49 1 -60 -23z"/>
<path d="M785 1237 c-3 -7 -4 -94 -3 -192 l3 -180 195 0 195 0 0 190 0 190
-193 3 c-151 2 -194 0 -197 -11z m243 -123 c29 -20 31 -93 4 -117 -32 -29 -74
-31 -106 -6 -26 20 -28 26 -22 67 3 25 11 51 17 58 15 19 79 18 107 -2z"/>
<path d="M1245 1243 c-13 -11 -13 -223 0 -223 6 0 42 29 80 65 39 36 85 75
102 88 54 37 44 54 -34 62 -38 3 -84 8 -103 11 -19 2 -39 1 -45 -3z"/>
<path d="M1596 1212 c-2 -4 4 -19 14 -32 14 -19 22 -22 30 -14 17 17 2 54 -20
54 -10 0 -21 -4 -24 -8z"/>
<path d="M1504 1169 c-10 -12 -50 -49 -89 -82 -38 -34 -70 -66 -70 -71 0 -7
17 -10 40 -8 30 2 45 -2 57 -15 16 -17 16 -22 1 -68 -9 -28 -22 -62 -29 -77
-8 -14 -14 -35 -14 -46 0 -12 -4 -23 -9 -26 -5 -3 -12 -17 -15 -30 -19 -76
-186 -285 -246 -308 -24 -9 -24 -10 -7 -23 20 -14 31 -13 82 10 17 8 37 16 45
19 8 4 29 15 45 26 17 11 39 24 50 29 41 18 170 156 212 226 41 68 71 154 75
215 3 32 6 35 41 40 21 3 37 10 36 15 0 6 -35 47 -77 93 -43 45 -78 87 -80 92
-6 17 -28 11 -48 -11z"/>
<path d="M672 1063 c-25 -26 -131 -106 -175 -132 -55 -34 -35 -46 97 -59 123
-12 140 -9 129 22 -4 11 -7 58 -6 104 2 88 -7 102 -45 65z"/>
<path d="M290 995 c0 -3 4 -13 9 -23 5 -9 13 -30 18 -47 7 -25 14 -31 42 -33
52 -5 54 9 6 61 -38 40 -75 61 -75 42z"/>
<path d="M1234 936 c-3 -8 -4 -27 -2 -43 3 -25 8 -28 42 -31 60 -5 83 4 95 39
6 17 8 35 5 40 -9 16 -134 11 -140 -5z"/>
<path d="M350 826 c0 -46 92 -182 170 -252 59 -53 126 -104 136 -104 4 0 15
-6 23 -14 21 -19 77 -30 85 -17 4 6 0 26 -8 46 -9 22 -18 89 -22 174 l-7 139
-81 5 c-87 6 -250 30 -278 42 -14 6 -18 2 -18 -19z"/>
<path d="M1295 815 c-5 -2 -22 -6 -37 -9 -25 -6 -26 -9 -33 -92 -11 -123 3
-126 60 -11 49 100 52 126 10 112z"/>
<path d="M796 732 c13 -169 26 -307 30 -314 3 -5 45 -8 93 -8 67 0 92 4 101
15 7 8 18 15 24 15 6 0 32 18 58 40 53 46 54 51 61 222 l4 97 -188 0 -188 0 5
-67z m228 -73 c13 -19 13 -25 0 -50 -8 -16 -26 -36 -39 -45 -24 -16 -27 -15
-45 1 -23 21 -27 84 -8 103 20 20 75 15 92 -9z"/>
</g>
</svg>
