<?xml version="1.0" standalone="no"?>
<!DOCTYPE svg PUBLIC "-//W3C//DTD SVG 20010904//EN"
 "http://www.w3.org/TR/2001/REC-SVG-20010904/DTD/svg10.dtd">
<svg version="1.0" xmlns="http://www.w3.org/2000/svg"
 width="216.000000pt" height="213.000000pt" viewBox="0 0 216.000000 213.000000"
 preserveAspectRatio="xMidYMid meet">
<metadata>
Created by potrace 1.10, written by Peter Selinger 2001-2011
</metadata>
<g transform="translate(0.000000,213.000000) scale(0.100000,-0.100000)"
fill="#000000" stroke="none">
<path d="M164 1766 c-3 -8 -4 -27 -2 -43 6 -51 78 -40 78 13 0 36 -64 61 -76
30z"/>
<path d="M343 1754 c-3 -8 -1 -20 4 -25 6 -6 310 -10 819 -10 l809 0 0 23 0
23 -813 3 c-731 2 -813 1 -819 -14z"/>
<path d="M167 1443 c-4 -3 -7 -24 -7 -45 0 -44 14 -54 53 -39 38 15 39 67 1
81 -30 12 -38 12 -47 3z"/>
<path d="M350 1424 c-5 -5 -7 -20 -3 -32 l5 -22 809 0 809 0 6 25 c4 14 4 28
1 31 -10 11 -1619 9 -1627 -2z"/>
<path d="M164 1096 c-11 -29 1 -81 19 -84 41 -8 74 57 45 86 -16 16 -57 15
-64 -2z"/>
<path d="M350 1081 c-25 -48 -51 -46 811 -44 446 1 814 4 816 7 3 3 3 17 -1
31 l-6 25 -805 0 c-784 0 -805 0 -815 -19z"/>
<path d="M173 773 c-19 -7 -17 -89 2 -97 32 -12 65 13 65 49 0 11 -4 25 -8 31
-9 14 -43 24 -59 17z"/>
<path d="M359 748 c-12 -5 -19 -15 -17 -25 3 -17 49 -18 818 -18 l815 0 0 23
0 23 -798 2 c-439 1 -807 -1 -818 -5z"/>
<path d="M164 416 c-10 -42 -1 -71 24 -74 30 -4 52 14 52 44 0 49 -64 75 -76
30z"/>
<path d="M343 404 c-3 -8 -1 -20 4 -25 6 -6 313 -10 819 -10 l809 0 0 23 0 23
-813 3 c-731 2 -813 1 -819 -14z"/>
</g>
</svg>
