<?xml version="1.0" standalone="no"?>
<!DOCTYPE svg PUBLIC "-//W3C//DTD SVG 20010904//EN"
 "http://www.w3.org/TR/2001/REC-SVG-20010904/DTD/svg10.dtd">
<svg version="1.0" xmlns="http://www.w3.org/2000/svg"
 width="264.000000pt" height="225.000000pt" viewBox="0 0 264.000000 225.000000"
 preserveAspectRatio="xMidYMid meet">
<metadata>
Created by potrace 1.10, written by Peter Selinger 2001-2011
</metadata>
<g transform="translate(0.000000,225.000000) scale(0.100000,-0.100000)"
fill="#000000" stroke="none">
<path d="M1040 1913 c0 -5 -21 -30 -45 -58 -25 -27 -45 -54 -45 -58 0 -5 -10
-7 -22 -6 -24 3 -78 -26 -78 -42 0 -12 -33 -49 -43 -49 -17 0 -62 -42 -67 -63
-6 -24 -45 -36 -62 -19 -7 7 -3 14 11 22 26 14 18 30 -14 30 -13 0 -28 7 -33
16 -6 10 -28 18 -58 22 -27 2 -52 10 -56 16 -4 6 -10 7 -14 3 -4 -3 -1 -14 6
-22 10 -12 10 -19 2 -27 -8 -8 -13 -7 -18 5 -11 29 -34 20 -34 -13 0 -28 2
-30 40 -30 27 0 43 -5 46 -15 4 -10 20 -15 46 -15 25 0 50 -8 65 -20 15 -12
41 -20 63 -20 28 0 40 -5 48 -22 10 -20 11 -17 6 20 -5 34 -3 42 10 42 21 0
30 18 16 35 -15 18 1 20 18 3 15 -15 29 -2 34 32 2 20 8 24 30 22 33 -3 46 15
23 32 -16 12 -14 14 18 19 38 6 49 15 114 93 32 39 39 54 31 62 -13 13 -38 16
-38 5z m-402 -255 c-5 -15 -78 -24 -78 -9 0 12 18 19 53 20 19 1 27 -3 25 -11z"/>
<path d="M1133 1905 c-3 -9 -4 -17 -2 -18 7 -4 133 -111 149 -127 39 -36 85
-70 97 -70 7 0 13 -6 13 -14 0 -7 6 -19 14 -25 7 -6 17 -41 21 -76 3 -36 10
-67 14 -69 3 -2 17 4 30 13 20 15 22 21 12 39 -6 11 -11 34 -11 50 0 16 -7 35
-15 42 -8 7 -15 20 -15 30 0 10 -24 34 -57 56 -62 42 -62 42 -150 127 -62 58
-89 69 -100 42z"/>
<path d="M243 1764 c-22 -9 -14 -34 10 -34 12 0 30 -9 40 -20 9 -11 24 -20 32
-20 8 0 15 -4 15 -9 0 -15 32 -21 64 -13 24 7 28 13 31 50 l3 42 -71 0 c-40 0
-81 2 -92 5 -11 2 -26 2 -32 -1z"/>
<path d="M1100 1745 c0 -20 -49 -64 -80 -72 -14 -3 -45 -17 -70 -31 -25 -13
-58 -27 -74 -31 -49 -11 -44 -31 8 -31 44 0 116 32 116 51 0 5 14 9 30 9 18 0
33 6 36 15 7 18 40 20 51 2 14 -22 61 -48 68 -36 9 14 -22 59 -40 59 -11 0
-15 11 -15 40 0 29 -4 40 -15 40 -8 0 -15 -7 -15 -15z"/>
<path d="M1000 1603 c0 -12 49 -48 80 -58 33 -10 69 -37 70 -51 0 -6 8 -20 18
-32 9 -11 24 -30 32 -42 8 -12 20 -29 26 -38 6 -9 18 -13 27 -9 21 8 12 34
-25 76 -16 17 -28 33 -28 36 0 4 19 5 42 3 34 -2 43 -7 48 -25 6 -27 71 -63
112 -63 16 0 31 -7 34 -15 8 -20 65 -19 102 2 31 18 81 11 52 -7 -8 -6 -25
-10 -38 -10 -41 0 -18 -25 28 -31 24 -3 46 -11 48 -17 6 -18 97 -15 112 4 15
18 71 15 78 -3 2 -9 -10 -13 -42 -13 -36 0 -44 -3 -40 -15 4 -10 20 -15 51
-15 26 0 51 6 59 15 17 17 61 20 84 5 13 -8 13 -10 0 -14 -8 -3 -28 -6 -44 -8
-51 -5 -44 -28 8 -28 34 0 46 -4 46 -15 0 -11 12 -15 44 -15 26 0 48 -6 56
-15 7 -9 29 -15 55 -15 26 0 48 -6 55 -15 8 -10 31 -15 68 -15 38 0 61 -5 74
-17 10 -9 36 -17 61 -17 36 -1 42 2 42 19 0 16 -7 20 -32 20 -42 0 -52 12 -19
25 37 14 24 30 -24 30 -21 0 -45 7 -54 15 -8 8 -27 15 -43 15 -16 0 -45 9 -66
20 -20 11 -50 20 -66 20 -16 0 -31 5 -33 11 -2 6 -26 13 -53 16 -28 3 -53 10
-56 16 -4 5 -28 12 -55 15 -27 3 -59 11 -71 19 -14 9 -33 12 -55 8 -25 -5 -38
-2 -47 9 -9 11 -30 16 -62 16 -33 0 -51 5 -57 16 -5 9 -26 17 -53 19 -24 2
-45 9 -47 15 -2 5 -28 10 -57 10 -38 0 -54 4 -59 15 -4 10 -20 15 -50 15 -29
0 -46 5 -49 14 -4 10 -24 16 -58 18 -34 2 -54 8 -57 17 -4 11 3 12 30 7 35 -6
81 14 66 30 -11 10 -74 7 -97 -6 -29 -15 -43 -12 -37 8 5 14 -1 17 -37 18 -23
1 -54 5 -69 9 -16 4 -28 3 -28 -2z m490 -183 c0 -12 -28 -25 -36 -17 -9 9 6
27 22 27 8 0 14 -5 14 -10z m213 -65 c1 -5 -13 -11 -30 -13 -31 -3 -42 6 -26
22 10 10 53 3 56 -9z m337 -89 c6 -8 30 -16 53 -18 22 -2 42 -9 45 -15 6 -20
-87 -17 -94 2 -4 11 -21 15 -55 15 -37 0 -49 4 -49 15 0 20 83 21 100 1z m204
-55 c7 -11 -18 -21 -55 -21 -28 0 -37 9 -22 23 10 10 71 8 77 -2z"/>
<path d="M837 1543 c-17 -16 -4 -54 30 -88 30 -30 40 -35 54 -27 21 14 29 6
29 -30 0 -18 -5 -28 -15 -28 -17 0 -21 -45 -6 -55 15 -9 25 -95 13 -107 -8 -8
-13 -7 -18 5 -14 38 -48 9 -37 -32 7 -29 44 -27 78 5 24 22 27 31 22 71 -3 28
-11 50 -21 55 -19 11 -22 58 -3 58 8 0 24 -9 37 -20 13 -11 27 -20 32 -20 4 0
8 -45 8 -100 0 -60 4 -100 10 -100 6 0 10 -13 10 -29 0 -16 7 -36 15 -45 8 -8
15 -18 15 -23 0 -12 28 -50 74 -97 36 -39 39 -40 52 -21 12 16 12 21 -4 35
-34 33 -72 80 -72 89 0 5 -6 16 -13 23 -18 19 -36 91 -47 182 -9 79 -16 94
-72 147 -16 14 -28 31 -28 36 0 6 -19 19 -42 29 -36 15 -39 18 -21 22 13 2 33
17 45 35 20 29 21 30 2 23 -10 -5 -30 -11 -44 -14 -14 -3 -28 -10 -32 -16 -4
-6 -10 -7 -15 -3 -4 5 -1 12 6 16 7 5 10 14 7 20 -8 12 -39 15 -49 4z"/>
<path d="M738 1495 c-13 -28 -1 -80 17 -77 13 1 29 67 21 87 -8 23 -25 18 -38
-10z"/>
<path d="M830 1385 c0 -37 -28 -75 -56 -75 -12 0 -14 7 -9 30 6 27 4 30 -19
30 -33 0 -52 -33 -38 -65 8 -17 17 -22 31 -18 16 4 22 -2 29 -28 7 -28 14 -35
38 -37 23 -2 36 4 57 27 23 26 27 40 27 87 0 42 -4 60 -17 70 -30 23 -43 16
-43 -21z m16 -100 c-9 -7 -16 -17 -16 -24 0 -6 -7 -11 -15 -11 -21 0 -19 23 7
55 19 25 22 25 31 9 7 -13 6 -20 -7 -29z"/>
<path d="M1428 1284 c-10 -21 -9 -31 5 -56 9 -16 17 -40 17 -53 0 -46 78 -139
193 -230 21 -16 47 -38 59 -47 12 -10 27 -18 35 -18 7 0 13 -4 13 -9 0 -5 12
-14 28 -20 15 -6 36 -16 47 -23 81 -52 162 -105 172 -113 38 -31 83 -62 122
-82 30 -16 31 -16 31 3 0 22 -64 81 -135 124 -22 13 -42 26 -45 29 -10 12 -67
47 -105 66 -22 11 -42 23 -45 27 -3 4 -17 12 -30 18 -59 26 -82 44 -200 154
-63 59 -90 96 -90 126 0 21 -47 130 -56 130 -2 0 -10 -12 -16 -26z"/>
<path d="M1263 863 c-20 -8 -15 -31 8 -38 27 -9 65 -42 143 -124 34 -36 78
-83 100 -105 21 -23 46 -52 55 -66 19 -29 47 -63 117 -138 36 -38 56 -53 68
-49 24 10 20 19 -29 71 -25 27 -59 67 -77 89 -29 38 -55 69 -98 116 -8 9 -46
53 -85 97 -38 43 -73 80 -77 82 -4 2 -27 19 -52 38 -45 34 -51 36 -73 27z"/>
</g>
</svg>
