<?xml version="1.0" standalone="no"?>
<!DOCTYPE svg PUBLIC "-//W3C//DTD SVG 20010904//EN"
 "http://www.w3.org/TR/2001/REC-SVG-20010904/DTD/svg10.dtd">
<svg version="1.0" xmlns="http://www.w3.org/2000/svg"
 width="900.000000pt" height="588.000000pt" viewBox="0 0 900.000000 588.000000"
 preserveAspectRatio="xMidYMid meet">
<metadata>
Created by potrace 1.10, written by Peter Selinger 2001-2011
</metadata>
<g transform="translate(0.000000,588.000000) scale(0.100000,-0.100000)"
fill="#000000" stroke="none">
<path d="M417 5866 c-3 -8 -21 -17 -39 -21 -70 -13 -135 -56 -223 -146 -59
-61 -85 -94 -81 -105 3 -9 6 -18 6 -20 0 -2 12 -4 28 -4 21 0 32 8 46 34 24
45 141 156 186 178 19 9 69 27 110 40 52 16 76 28 78 41 3 14 -5 17 -51 17
-38 0 -57 -4 -60 -14z"/>
<path d="M4885 5870 c-8 -12 17 -23 41 -18 10 1 19 9 22 16 5 15 -54 17 -63 2z"/>
<path d="M5442 5868 c7 -20 84 -28 223 -23 72 2 133 4 138 4 4 1 7 8 7 16 0
13 -27 15 -186 15 -143 0 -185 -3 -182 -12z"/>
<path d="M8470 5865 c0 -18 39 -35 80 -35 16 0 31 -4 34 -9 3 -5 23 -12 43
-15 59 -10 102 -36 174 -104 81 -77 145 -194 158 -292 4 -32 11 -46 24 -48 15
-3 17 6 17 72 0 58 -3 76 -14 76 -8 0 -16 16 -20 41 -8 51 -39 100 -107 169
-79 80 -136 116 -200 126 -23 4 -39 12 -39 20 0 11 -18 14 -75 14 -61 0 -75
-3 -75 -15z"/>
<path d="M5005 5789 c-96 -15 -229 -41 -240 -47 -17 -11 -109 -41 -125 -42 -8
0 -27 -6 -41 -14 -14 -7 -43 -16 -65 -20 -21 -5 -43 -11 -49 -15 -5 -4 -32
-16 -60 -26 -27 -10 -57 -23 -65 -29 -8 -7 -49 -29 -90 -49 -132 -67 -174 -94
-267 -172 -7 -5 -18 -14 -25 -20 -121 -93 -220 -186 -305 -285 -79 -93 -74
-86 -109 -144 -16 -26 -37 -60 -47 -74 -9 -15 -20 -35 -23 -44 -4 -10 -10 -18
-14 -18 -5 0 -12 -10 -16 -22 -7 -24 -16 -36 -57 -80 -32 -35 -44 -34 -144 13
-35 16 -78 32 -96 36 -17 3 -37 9 -42 14 -6 4 -31 11 -55 15 -25 4 -50 11 -57
16 -7 5 -36 14 -65 18 -29 5 -84 16 -123 25 -85 19 -261 36 -293 28 -21 -5
-23 -3 -20 23 1 16 -1 29 -7 29 -18 0 -53 -30 -56 -49 -3 -13 -23 -25 -64 -38
-351 -115 -474 -187 -709 -413 -18 -16 -56 -61 -86 -100 -30 -38 -59 -75 -65
-81 -5 -6 -17 -22 -25 -34 -8 -12 -23 -33 -32 -45 -10 -13 -18 -28 -18 -33 0
-6 -3 -12 -8 -14 -11 -5 -82 -151 -82 -169 0 -8 -4 -19 -9 -25 -10 -10 -27
-83 -42 -184 -6 -36 -14 -79 -20 -96 -5 -17 -9 -44 -9 -60 0 -41 -23 -70 -66
-84 -20 -7 -48 -18 -62 -26 -15 -8 -30 -14 -34 -14 -8 0 -109 -60 -118 -69 -3
-4 -23 -15 -45 -26 -127 -64 -395 -322 -472 -454 -14 -26 -30 -48 -34 -51 -4
-3 -19 -28 -33 -55 -15 -28 -31 -57 -36 -65 -26 -42 -100 -205 -100 -221 0
-10 -4 -19 -9 -19 -5 0 -12 -15 -16 -33 -4 -17 -13 -52 -20 -77 -7 -25 -21
-74 -30 -110 -9 -36 -21 -74 -27 -84 -27 -50 -17 -585 12 -696 39 -147 43
-159 79 -242 12 -26 21 -50 21 -54 0 -27 154 -309 223 -407 100 -143 339 -392
476 -496 166 -126 214 -154 291 -165 46 -7 99 -23 203 -59 43 -15 80 -19 150
-18 50 1 99 -3 106 -8 15 -10 16 -10 -54 -24 -43 -10 288 -6 357 3 95 13 1262
25 1553 16 121 -4 270 -14 325 -21 19 -3 60 0 90 5 282 49 264 48 256 15 -6
-24 -4 -25 34 -25 22 0 40 4 40 9 0 5 10 11 22 13 13 2 24 11 27 23 3 17 1 18
-13 6 -9 -7 -23 -10 -32 -7 -21 8 -12 72 18 133 23 46 33 51 57 29 12 -11 30
-13 70 -8 52 7 55 9 64 42 5 19 19 46 31 60 13 14 46 75 75 135 29 61 57 118
62 127 5 10 9 25 9 34 0 9 18 51 41 93 22 42 52 103 65 136 51 122 71 163 138
289 14 27 26 55 26 61 0 7 7 18 15 25 8 7 15 21 15 32 0 11 6 34 14 51 21 49
46 128 46 150 0 10 6 31 14 45 8 15 17 39 21 55 6 28 29 37 38 15 3 -8 6 -6 6
5 1 9 8 17 16 17 17 0 17 1 20 -55 3 -46 40 -115 61 -115 19 0 18 -19 -4 -55
-29 -47 -45 -121 -39 -170 6 -41 -5 -63 -16 -32 -2 7 -8 8 -13 3 -5 -5 -4 -11
4 -13 16 -6 15 -39 -2 -71 -8 -15 -17 -34 -20 -42 -4 -8 -15 -28 -26 -45 -11
-16 -25 -42 -31 -57 -6 -16 -14 -28 -19 -28 -4 0 -10 -8 -14 -17 -3 -10 -15
-31 -26 -48 -11 -16 -23 -37 -27 -45 -10 -22 -122 -171 -155 -204 -15 -17 -28
-33 -28 -38 0 -15 47 -8 61 9 18 21 274 212 316 236 17 9 42 17 55 17 13 0 28
4 34 9 5 6 27 14 49 20 22 5 74 19 115 31 41 12 91 25 110 29 19 4 45 13 57
19 12 7 31 12 42 12 11 0 40 10 65 21 24 12 50 19 59 16 8 -3 22 -29 31 -57
21 -64 10 -87 -55 -115 -24 -10 -107 -49 -184 -85 -191 -92 -232 -110 -247
-110 -8 0 -53 -20 -101 -45 -48 -25 -96 -45 -105 -45 -9 0 -26 -7 -36 -15 -11
-8 -26 -15 -33 -15 -12 0 -116 -44 -176 -75 -16 -8 -35 -15 -43 -15 -21 0 -95
-40 -141 -77 -23 -18 -48 -33 -57 -33 -9 0 -16 -5 -16 -11 0 -18 -90 -129
-106 -129 -19 0 -18 -10 3 -25 24 -17 5 -58 -37 -80 -16 -8 -30 -18 -30 -20 0
-3 34 -5 75 -5 l74 0 11 40 c6 22 8 44 5 49 -9 15 12 57 42 85 36 33 98 37
106 6 l5 -21 36 21 c20 11 47 20 60 20 22 0 169 58 258 101 10 5 34 13 55 18
50 13 189 60 233 79 30 13 101 15 540 11 989 -8 1229 -6 1290 12 30 9 92 25
138 35 45 9 87 23 93 31 6 7 20 13 30 13 25 0 152 51 225 90 139 75 244 163
370 310 22 25 42 47 45 50 11 9 159 237 159 245 0 5 6 16 13 24 7 9 21 43 32
76 10 33 24 74 31 90 12 30 16 44 52 190 42 166 54 350 32 474 -27 160 -33
189 -41 226 -4 22 -14 72 -21 110 -8 39 -18 69 -23 68 -17 -5 -17 -148 0 -189
17 -41 20 -90 6 -99 -6 -3 -13 11 -16 32 -3 21 -10 45 -16 53 -25 40 -31 69
-25 135 4 53 2 75 -9 89 -8 11 -15 26 -15 34 0 8 -13 31 -30 52 -16 21 -30 45
-30 54 0 9 -4 16 -9 16 -5 0 -20 21 -33 48 -13 26 -26 49 -30 50 -5 2 -8 10
-8 17 0 8 -6 20 -12 27 -64 69 -73 116 -28 150 16 12 30 26 30 31 0 14 52 77
64 77 12 0 46 54 46 73 0 7 -9 23 -19 36 l-19 24 -12 -24 c-19 -36 -129 -146
-151 -152 -43 -12 -27 20 45 88 42 39 76 75 76 79 0 4 13 19 30 32 16 14 39
46 50 71 11 25 31 54 45 65 14 11 25 26 25 35 0 41 31 79 78 96 34 12 68 38
116 87 37 39 71 70 76 70 19 0 61 52 58 72 -3 20 -47 60 -104 95 -19 11 -19
11 1 27 11 8 15 16 8 16 -16 0 -106 74 -161 133 -10 11 -25 16 -39 12 -20 -5
-21 -2 -16 31 l6 37 -33 -5 c-45 -7 -94 41 -57 55 6 3 0 6 -14 6 -14 1 -37 12
-51 25 -14 12 -33 26 -42 29 -10 4 -16 18 -16 42 0 29 4 35 21 35 12 0 37 -13
56 -30 18 -16 42 -30 52 -30 19 0 61 -39 61 -57 0 -6 16 -24 36 -40 20 -15 64
-56 97 -91 34 -34 74 -70 88 -80 14 -9 51 -34 82 -54 31 -21 65 -38 76 -38 48
0 121 71 121 118 0 11 6 25 13 29 8 4 26 26 40 48 26 39 26 45 26 187 -1 108
-5 152 -15 165 -7 10 -14 28 -14 41 0 25 -58 112 -105 157 -135 130 -296 215
-408 215 -42 0 -161 -27 -212 -48 -34 -15 -102 -74 -141 -124 -33 -42 -61
-129 -55 -170 2 -15 -2 -17 -24 -8 -39 15 -76 12 -111 -9 -31 -19 -127 -154
-159 -224 -18 -39 -14 -60 7 -39 21 21 44 13 74 -25 42 -54 162 -173 175 -173
6 0 44 -33 84 -72 79 -79 97 -95 193 -178 55 -47 152 -181 152 -209 0 -5 -7
-15 -16 -22 -14 -11 -19 -9 -35 11 -11 14 -28 45 -39 69 -11 25 -42 68 -68 96
-92 100 -132 146 -132 156 0 5 -7 9 -15 9 -23 0 -19 -11 30 -85 52 -79 61
-103 47 -117 -7 -7 -37 17 -94 77 -46 49 -123 128 -172 176 -57 56 -87 93 -83
102 4 10 0 13 -12 10 -11 -3 -42 20 -91 66 -55 53 -81 71 -101 71 -29 0 -59
-31 -59 -60 0 -19 -79 -102 -93 -97 -23 7 -30 58 -13 94 22 46 21 79 -3 86
-10 2 -67 5 -125 6 -59 1 -113 4 -121 8 -9 3 -15 18 -15 37 0 17 -7 41 -15 53
-8 11 -17 39 -21 62 -4 23 -11 44 -15 47 -5 3 -9 20 -9 37 0 18 -7 45 -15 61
-8 15 -15 36 -15 45 0 9 -6 25 -14 36 -7 11 -16 33 -20 48 -4 16 -17 45 -30
65 -13 20 -27 48 -31 61 -16 52 -151 255 -227 343 -38 44 -141 147 -218 219
-89 84 -327 246 -465 318 -33 18 -67 36 -75 40 -8 5 -35 17 -60 26 -25 9 -53
21 -62 26 -10 5 -46 18 -80 30 -35 11 -76 27 -93 34 -16 7 -64 18 -105 25 -41
6 -93 16 -115 22 -44 11 -265 28 -360 26 -33 0 -87 -4 -120 -9z m540 -94 c44
-9 84 -21 89 -26 6 -5 19 -9 31 -9 20 0 191 -57 255 -86 171 -76 407 -221 540
-331 93 -77 259 -245 294 -298 19 -27 44 -61 56 -75 62 -70 213 -360 225 -432
4 -24 11 -47 15 -53 4 -5 11 -29 15 -52 4 -24 10 -45 15 -48 4 -3 11 -21 14
-40 4 -19 11 -35 16 -35 4 0 11 -34 15 -76 l8 -76 46 7 c57 9 182 14 199 7 24
-9 10 -29 -97 -137 -121 -123 -373 -364 -393 -376 -29 -18 -39 31 -13 65 18
24 20 87 3 104 -8 8 -15 56 -18 130 -5 94 -10 126 -28 162 -12 25 -25 63 -28
85 -8 59 -33 132 -50 145 -7 7 -14 21 -14 30 0 10 -6 31 -14 47 -8 15 -24 48
-35 73 -12 25 -26 52 -31 60 -5 8 -11 22 -14 30 -8 21 -24 46 -73 112 -24 31
-43 60 -43 63 0 16 -122 158 -197 230 -119 115 -250 225 -268 225 -5 0 -64 39
-75 50 -9 9 -44 30 -67 39 -11 6 -24 15 -28 20 -3 6 -17 11 -29 11 -13 0 -29
6 -35 14 -6 8 -24 16 -39 19 -15 2 -40 9 -57 15 -144 49 -255 71 -427 83 -210
15 -192 15 -343 -6 -71 -10 -153 -20 -182 -22 -29 -3 -57 -11 -64 -19 -6 -8
-23 -14 -38 -14 -15 0 -36 -7 -47 -15 -22 -15 -101 -45 -120 -45 -6 0 -44 -19
-83 -42 -40 -24 -86 -51 -103 -61 -33 -19 -113 -78 -138 -100 -8 -8 -35 -28
-60 -45 -81 -56 -300 -285 -300 -313 0 -5 -18 -39 -41 -75 -28 -46 -39 -75
-36 -92 3 -18 0 -26 -14 -29 -14 -4 -17 -11 -13 -30 5 -17 0 -31 -14 -46 -11
-12 -26 -33 -32 -47 -6 -14 -18 -37 -26 -53 -17 -31 -18 -41 -8 -119 5 -41 3
-62 -6 -73 -8 -10 -9 -19 -3 -27 5 -7 15 -33 22 -58 7 -25 19 -59 28 -76 15
-32 14 -169 -4 -284 l-8 -54 -45 -9 c-44 -9 -45 -9 -81 32 -40 47 -99 154 -99
180 0 9 -13 32 -28 51 -26 30 -28 38 -19 67 6 20 17 33 27 33 19 0 50 -33 68
-73 9 -22 17 -27 32 -22 14 5 20 2 20 -9 0 -9 -4 -16 -10 -16 -14 0 -12 -56 3
-72 7 -7 17 -24 23 -36 l10 -24 51 41 c50 39 52 42 49 86 -3 57 -13 67 -21 22
-5 -26 -17 -41 -47 -61 l-41 -27 7 52 c6 45 4 53 -13 66 -12 8 -21 20 -21 28
0 8 -6 18 -12 22 -7 4 -24 24 -37 43 -14 19 -34 42 -45 50 -12 8 -48 42 -81
76 -55 56 -199 171 -235 187 -8 4 -22 11 -30 15 -36 21 -62 33 -102 48 -169
61 -152 58 -344 59 -124 0 -189 -4 -205 -12 -26 -14 -96 -39 -144 -53 -66 -19
-102 -37 -149 -72 -27 -21 -55 -38 -62 -38 -18 0 -276 -256 -307 -305 -13 -22
-28 -57 -31 -77 -4 -21 -11 -38 -16 -38 -6 0 -10 -6 -10 -14 0 -7 -7 -19 -15
-26 -8 -7 -17 -28 -21 -49 -4 -20 -11 -41 -16 -47 -16 -22 -38 -125 -39 -187
0 -34 -10 -111 -22 -170 -20 -97 -25 -110 -52 -127 -17 -11 -40 -20 -52 -20
-12 0 -25 -4 -28 -10 -3 -5 -16 -10 -29 -10 -12 0 -31 -7 -42 -15 -10 -8 -25
-15 -33 -15 -33 0 -284 -167 -356 -237 -29 -28 -96 -104 -151 -173 -16 -19
-40 -47 -54 -61 -29 -30 -50 -63 -50 -81 -1 -19 -47 -68 -65 -68 -9 0 -15 -9
-15 -25 0 -13 -6 -28 -14 -32 -7 -4 -16 -33 -19 -63 -3 -35 -21 -88 -48 -145
-23 -49 -49 -117 -57 -150 -18 -73 -27 -296 -13 -336 5 -16 13 -68 16 -116 4
-49 10 -97 15 -108 5 -11 14 -42 19 -70 17 -91 38 -159 65 -217 14 -31 26 -61
26 -67 0 -5 3 -11 8 -13 4 -2 22 -32 41 -68 42 -78 94 -155 141 -207 19 -21
68 -77 108 -125 76 -90 112 -122 181 -160 69 -38 78 -43 92 -55 28 -22 132
-73 150 -73 10 0 20 -4 23 -9 8 -12 87 -40 166 -58 148 -33 322 -37 1650 -37
470 1 878 0 905 0 28 0 94 3 147 8 88 7 99 6 104 -9 4 -9 2 -20 -3 -24 -14 -8
-53 -99 -53 -121 0 -10 -17 -50 -37 -89 -28 -56 -40 -70 -52 -64 -22 10 -59 8
-180 -6 -84 -11 -167 -11 -418 -1 -172 6 -316 9 -320 7 -5 -3 -375 -8 -825
-12 -712 -6 -823 -5 -870 8 -29 8 -81 18 -116 22 -34 4 -64 11 -67 15 -3 5
-23 11 -45 15 -22 4 -40 11 -40 16 0 5 -12 9 -26 9 -14 0 -38 6 -52 14 -15 8
-38 19 -52 25 -14 5 -47 24 -75 41 -27 16 -57 33 -65 37 -54 26 -271 201 -320
258 -14 16 -39 44 -55 61 -17 16 -48 52 -70 80 -22 27 -43 50 -47 52 -12 5
-10 32 2 32 6 0 10 -7 10 -15 0 -8 7 -15 15 -15 25 0 17 16 -32 69 -67 70 -73
78 -73 95 0 7 -7 16 -15 20 -8 3 -15 14 -15 25 0 11 -4 23 -10 26 -5 3 -22 31
-36 60 -14 30 -29 57 -35 60 -5 4 -9 17 -9 29 0 13 -7 29 -15 36 -8 7 -15 17
-15 22 0 5 -18 41 -41 80 -39 70 -45 87 -68 213 -6 33 -16 80 -22 105 -30 125
-27 552 5 657 8 26 21 72 30 102 9 29 16 61 16 71 0 10 6 31 14 47 8 15 21 44
29 63 37 86 84 178 110 214 15 21 27 43 27 48 0 11 61 104 87 133 10 11 34 40
54 65 67 83 213 222 284 269 39 25 72 49 73 54 2 4 8 7 14 7 6 0 44 20 85 45
40 25 80 45 88 45 7 0 20 6 27 14 8 7 29 17 48 21 77 17 95 49 105 180 3 49
10 94 14 100 5 5 12 33 15 60 22 152 104 308 271 515 38 47 205 207 243 233
141 95 196 125 283 157 35 13 68 27 73 32 6 4 19 8 29 8 10 0 33 7 50 15 102
47 312 68 432 44 28 -6 86 -16 130 -23 44 -7 93 -18 108 -24 16 -7 36 -12 46
-12 17 0 59 -15 116 -40 120 -53 185 -85 212 -106 l32 -24 20 25 c11 14 22 38
26 53 3 15 23 52 45 82 22 30 56 82 76 115 96 154 247 327 374 428 36 29 74
60 85 70 41 38 213 147 300 190 123 62 150 73 225 97 36 11 74 24 85 29 19 8
132 42 205 61 62 17 90 18 360 15 206 -2 283 -6 345 -20z m-523 -400 c35 -29
34 -29 195 -10 114 14 130 14 165 0 21 -8 54 -15 72 -15 23 0 38 -7 48 -22 13
-20 17 -21 45 -9 23 9 37 10 51 2 12 -6 37 -11 58 -11 20 0 51 -9 68 -19 17
-11 49 -23 71 -27 21 -4 60 -16 85 -27 52 -23 189 -113 240 -157 l34 -30 -27
0 c-32 0 -99 32 -196 95 -38 25 -77 45 -87 45 -20 0 -95 21 -109 30 -18 13
-119 38 -190 48 -38 6 -104 17 -145 26 -68 15 -200 21 -370 18 -88 -2 -100 6
-75 52 11 20 24 36 28 36 5 0 22 -11 39 -25z m-102 -14 c0 -38 -43 -67 -126
-86 -68 -15 -259 -96 -274 -117 -3 -4 -17 -12 -30 -18 -14 -5 -38 -19 -55 -30
-16 -11 -37 -23 -45 -27 -8 -3 -17 -9 -20 -12 -12 -14 -70 -51 -80 -51 -5 0
-10 -4 -10 -8 0 -5 -21 -23 -46 -41 -61 -44 -79 -62 -160 -156 -38 -44 -79
-92 -92 -105 -32 -34 -92 -134 -92 -153 0 -9 -4 -18 -9 -21 -13 -9 -48 -85
-56 -124 -4 -18 -13 -45 -21 -60 -7 -15 -20 -59 -28 -96 -8 -37 -19 -73 -25
-79 -6 -6 -11 -21 -11 -33 0 -31 -10 -55 -21 -48 -13 8 -11 72 3 110 9 25 9
48 -2 103 -12 63 -11 72 4 96 10 15 30 34 46 43 32 18 60 69 60 108 0 28 12
49 87 150 29 39 53 75 53 81 0 5 26 34 58 65 31 30 65 66 74 80 10 14 49 47
86 72 38 25 87 63 108 83 39 38 117 93 184 129 19 10 42 24 50 30 20 16 244
104 263 104 8 0 30 7 48 15 48 20 79 19 79 -4z m496 -115 c27 -8 76 -18 109
-21 33 -4 76 -12 95 -17 57 -18 144 -51 155 -60 5 -4 19 -8 31 -8 12 0 27 -7
34 -15 7 -8 17 -15 22 -15 6 0 27 -12 47 -27 20 -16 54 -37 76 -48 22 -10 74
-50 115 -88 165 -151 249 -233 249 -244 1 -18 31 -16 31 2 0 8 -7 15 -15 15
-15 0 -21 21 -8 33 6 7 83 -72 83 -86 0 -5 -5 -18 -11 -29 -7 -13 -8 -23 -1
-27 5 -3 12 -16 16 -28 4 -13 12 -23 17 -23 5 0 9 -6 9 -14 0 -7 7 -19 15 -26
8 -7 15 -23 15 -35 0 -12 6 -28 14 -35 8 -6 16 -26 18 -43 5 -50 23 -28 22 26
-2 39 1 47 14 45 11 -2 22 -28 35 -80 19 -78 33 -93 79 -89 9 1 19 -7 23 -19
3 -11 10 -20 15 -20 13 0 18 -52 7 -78 -8 -17 -8 -28 1 -43 7 -10 12 -38 12
-61 1 -24 7 -61 15 -83 17 -45 19 -103 6 -124 -19 -29 -38 6 -45 82 -8 92 -36
217 -53 238 -7 8 -13 19 -13 24 0 16 -42 95 -50 95 -4 0 -10 10 -14 22 -3 15
-9 19 -15 13 -9 -10 10 -81 35 -130 49 -95 87 -343 84 -555 0 -63 2 -138 5
-167 l7 -51 -124 -124 c-67 -68 -206 -211 -308 -318 -102 -107 -216 -224 -253
-260 -38 -36 -141 -137 -230 -225 -89 -89 -184 -178 -210 -200 -27 -21 -64
-62 -83 -91 -20 -29 -57 -72 -83 -96 -26 -24 -57 -59 -69 -79 l-22 -36 29 -6
29 -6 -16 -46 c-12 -33 -26 -50 -51 -63 -30 -16 -59 -55 -97 -131 -15 -28 -54
-62 -64 -56 -13 8 -60 -32 -60 -51 0 -6 -7 -17 -15 -24 -14 -11 -75 -188 -75
-216 0 -8 -13 -40 -29 -71 -16 -32 -37 -83 -46 -113 -9 -30 -25 -65 -35 -78
-10 -13 -26 -45 -35 -72 -9 -27 -23 -54 -31 -60 -7 -7 -14 -24 -14 -37 0 -16
-16 -41 -45 -71 -25 -25 -48 -57 -52 -71 -9 -40 -23 -53 -39 -40 -21 17 -17
90 6 119 11 14 20 36 20 50 0 27 17 58 56 100 12 14 28 45 34 70 7 25 15 50
19 55 4 6 16 33 26 60 22 62 39 103 76 181 16 34 29 68 29 77 0 24 29 87 41
87 6 0 9 6 6 13 -8 22 13 47 138 167 66 63 125 122 132 131 16 22 13 135 -4
178 -22 51 -96 144 -180 224 -40 38 -73 76 -73 84 0 7 -3 13 -8 13 -4 0 -15
15 -25 33 -10 18 -32 48 -50 67 -18 19 -38 45 -44 58 -15 29 -17 72 -3 72 6 0
10 11 10 24 0 13 6 29 14 35 9 7 15 42 19 99 6 104 -11 150 -80 213 l-43 39 0
121 c0 92 -3 120 -12 117 -9 -3 -16 -43 -21 -123 l-8 -118 34 -36 c18 -20 48
-59 65 -87 28 -44 32 -60 32 -117 0 -36 -6 -78 -14 -94 -48 -98 -56 -133 -31
-153 8 -7 15 -19 15 -26 0 -8 5 -14 10 -14 6 0 10 -9 10 -20 0 -11 7 -20 15
-20 18 0 21 -46 3 -52 -14 -5 35 -74 63 -89 10 -5 46 -46 81 -92 34 -45 66
-85 71 -88 10 -7 34 -46 43 -71 3 -9 12 -19 20 -22 8 -3 14 -11 14 -18 0 -7
10 -32 22 -54 l22 -42 -29 -33 c-15 -19 -58 -61 -94 -93 -171 -153 -189 -178
-225 -303 -6 -23 -15 -45 -19 -49 -4 -4 -7 -16 -7 -27 0 -18 -8 -40 -51 -135
-10 -23 -19 -51 -19 -62 0 -10 -4 -21 -9 -24 -5 -4 -17 -32 -26 -64 -9 -31
-21 -64 -26 -72 -5 -8 -13 -25 -18 -37 -6 -11 -14 -24 -19 -27 -5 -3 -17 -32
-27 -66 -10 -33 -21 -60 -25 -60 -4 0 -15 9 -26 21 -16 18 -19 40 -22 151 -3
103 -1 133 11 146 9 11 17 51 22 107 4 50 12 96 19 104 8 10 10 85 9 255 -2
133 -2 264 -2 291 0 28 1 181 2 340 l2 290 28 3 c20 3 37 -6 62 -30 20 -18 44
-36 54 -40 18 -6 18 -4 5 37 -13 46 -10 67 20 137 27 63 21 122 -19 188 -19
32 -35 65 -35 74 0 8 -13 25 -30 38 -28 20 -30 26 -30 85 0 35 6 76 14 91 7
15 16 45 19 66 4 22 11 42 17 46 6 4 14 29 18 56 8 49 44 134 69 165 8 9 23
43 34 75 12 32 26 65 32 72 11 14 89 52 105 52 9 0 57 45 88 83 7 8 8 51 3
135 -7 118 -9 123 -44 177 -39 58 -72 75 -61 30 5 -18 2 -25 -8 -25 -30 0 -27
-22 9 -53 31 -28 38 -41 48 -99 9 -57 8 -75 -6 -121 -20 -64 -37 -80 -95 -95
-42 -10 -46 -9 -96 26 -57 38 -69 64 -82 170 -6 51 -5 55 25 82 17 16 41 36
53 44 17 12 19 19 11 27 -12 12 -25 9 -55 -13 -28 -20 -33 -1 -7 27 13 13 35
25 50 25 14 0 29 4 35 8 5 5 28 14 52 21 53 15 46 31 -15 31 -52 0 -161 -48
-181 -81 -41 -66 -72 -133 -72 -158 0 -35 -13 -41 -95 -41 -35 0 -67 -4 -70
-10 -3 -5 -37 -10 -75 -10 -59 0 -92 -11 -78 -26 4 -3 45 -10 81 -13 4 -1 7
-6 7 -12 0 -7 -21 -10 -62 -8 -68 4 -89 -12 -42 -33 l27 -13 -24 -6 c-32 -9
-114 -11 -122 -3 -3 4 -2 15 3 25 13 22 -5 36 -25 19 -16 -14 -81 -22 -107
-14 -30 9 -20 22 25 33 l42 10 -50 -4 c-98 -10 -148 -20 -153 -32 -2 -9 7 -13
26 -13 17 0 37 -3 46 -6 28 -11 6 -24 -40 -24 -32 0 -44 4 -44 15 0 16 -41 19
-75 5 -19 -7 -18 -8 5 -13 14 -4 34 -8 44 -9 11 -2 21 -9 24 -15 3 -10 -13
-13 -56 -13 -42 0 -63 -5 -72 -16 -8 -9 -25 -14 -44 -12 -25 2 -30 7 -28 23 2
11 8 57 12 102 11 99 36 238 49 261 5 9 12 41 16 69 4 29 11 55 16 59 5 3 9
15 9 27 0 12 7 35 15 51 8 15 15 38 15 50 0 11 6 33 14 47 7 14 16 38 20 55 4
16 11 31 14 34 4 3 19 30 34 61 15 30 53 84 86 120 33 35 78 87 101 116 47 59
219 213 238 213 7 0 13 4 13 8 0 4 15 15 33 23 55 25 122 64 125 72 2 4 8 7
13 7 9 0 48 16 124 50 55 25 100 40 119 40 11 1 44 9 71 20 43 16 81 18 276
19 168 1 238 -3 275 -13z m799 -327 c4 -6 5 -12 2 -15 -7 -7 -37 7 -37 17 0
13 27 11 35 -2z m279 -197 c4 -12 3 -22 -2 -22 -18 0 -72 77 -72 102 0 18 66
-53 74 -80z m2004 32 c118 -35 294 -167 344 -259 49 -88 53 -106 53 -240 0
-101 -3 -135 -15 -149 -8 -10 -34 -39 -57 -65 -24 -27 -43 -51 -43 -55 0 -13
-44 -45 -62 -46 -16 0 -49 25 -162 124 -62 54 -65 57 -190 185 -43 45 -82 81
-87 81 -5 0 -9 7 -9 15 0 8 -6 15 -14 15 -8 0 -16 7 -20 15 -3 8 -12 15 -21
15 -8 0 -15 5 -15 10 0 6 -6 10 -12 10 -17 1 -68 46 -68 60 0 19 -28 10 -33
-12 -5 -16 5 -34 38 -69 48 -51 59 -89 26 -89 -11 0 -23 5 -27 11 -3 6 -17 8
-30 5 -24 -6 -34 9 -11 17 10 4 10 7 0 18 -10 9 -16 10 -24 2 -23 -23 -83 77
-64 107 10 16 22 12 28 -10 8 -29 37 -26 37 5 0 16 -6 25 -15 25 -9 0 -15 9
-15 25 0 30 25 34 33 5 3 -11 10 -20 15 -20 19 0 22 32 7 63 -25 50 -19 71 34
118 74 66 77 68 121 78 23 5 44 12 47 15 13 12 157 5 211 -10z m-1978 -214 c0
-11 -4 -20 -10 -20 -5 0 -10 11 -10 25 0 14 -4 25 -10 25 -5 0 -10 8 -10 17 0
14 3 14 20 -5 11 -12 20 -30 20 -42z m73 6 c5 -15 6 -30 3 -33 -11 -11 -36 20
-36 44 0 32 21 25 33 -11z m-4018 -86 c-3 -5 -19 -10 -36 -10 -16 0 -29 5 -29
10 0 6 16 10 36 10 21 0 33 -4 29 -10z m241 -21 c4 -6 20 -8 40 -5 27 6 43 1
87 -29 42 -28 59 -34 83 -29 21 4 41 -1 65 -15 19 -11 44 -25 57 -31 12 -5 22
-14 22 -19 0 -5 11 -12 25 -15 14 -4 25 -11 25 -16 0 -6 7 -10 15 -10 9 0 18
-7 21 -15 4 -8 10 -15 15 -15 11 0 109 -99 109 -110 0 -22 -24 -7 -78 48 -31
32 -65 61 -74 65 -10 3 -18 11 -18 17 0 5 -11 10 -24 10 -14 0 -28 5 -31 10
-3 6 -13 10 -22 10 -9 0 -35 8 -57 19 -72 33 -99 39 -186 46 -47 4 -103 13
-125 21 -22 7 -52 14 -67 14 -64 0 -22 45 48 53 21 2 44 4 51 5 6 1 15 -3 19
-9z m5104 -12 c8 -7 31 -32 50 -57 36 -47 102 -115 162 -165 45 -38 258 -238
354 -332 40 -40 86 -79 102 -87 49 -25 46 -40 -15 -82 -30 -21 -67 -55 -81
-76 -34 -52 -63 -51 -102 4 -16 22 -30 46 -30 53 0 11 -42 52 -206 206 -22 20
-52 51 -69 70 -16 19 -43 42 -58 52 -32 20 -106 87 -146 131 -14 15 -45 46
-68 69 -50 46 -55 79 -20 117 12 14 37 44 55 68 35 44 47 49 72 29z m-5410 -7
c13 -8 12 -12 -5 -29 -11 -11 -33 -22 -48 -25 -16 -3 -34 -9 -40 -14 -7 -5
-27 -12 -45 -15 -18 -4 -59 -27 -91 -52 -36 -28 -67 -45 -84 -45 -15 0 -30 -7
-33 -15 -4 -8 -13 -15 -21 -15 -8 0 -32 -13 -53 -30 -21 -16 -43 -30 -49 -30
-6 0 -11 -4 -11 -9 0 -6 -11 -22 -25 -37 -95 -103 -209 -344 -225 -478 -4 -34
-18 -94 -29 -134 -22 -72 -25 -141 -6 -144 19 -2 44 57 44 105 1 26 8 64 16
84 8 19 15 52 15 72 1 20 9 54 20 76 11 22 19 48 20 58 0 9 4 25 9 35 5 9 24
49 42 87 106 230 201 335 304 335 29 0 47 5 51 14 9 24 89 74 129 82 22 3 52
13 67 20 15 8 43 14 63 14 20 0 44 4 54 10 22 11 260 -9 280 -24 14 -11 84
-33 136 -43 17 -3 36 -10 44 -16 7 -6 21 -16 32 -22 94 -53 149 -94 165 -123
17 -32 17 -34 -1 -64 -18 -31 -44 -64 -75 -97 -8 -9 -24 -36 -34 -61 -11 -25
-30 -55 -43 -67 -22 -22 -23 -23 -4 -33 11 -5 27 -7 36 -4 13 6 14 3 4 -19
-10 -23 -8 -29 20 -59 17 -18 31 -38 31 -44 0 -6 16 -28 36 -48 33 -34 38 -36
53 -22 10 9 22 16 28 16 6 0 16 7 23 15 16 19 104 21 98 3 -3 -7 -21 -14 -41
-16 -19 -2 -41 -10 -47 -18 -7 -8 -23 -14 -36 -14 -15 0 -24 -6 -24 -16 0 -12
7 -15 28 -11 48 10 116 29 135 38 9 5 38 12 62 16 25 3 50 12 56 19 6 8 28 14
48 14 20 0 42 5 48 11 5 5 56 14 112 18 56 4 107 13 113 19 7 7 34 12 61 12
26 0 58 6 70 12 12 7 60 15 107 19 195 15 390 55 390 80 0 5 18 9 39 9 22 0
46 3 55 6 24 9 9 24 -24 24 -39 0 -48 18 -13 26 15 4 40 16 54 27 33 23 63 19
67 -10 2 -12 10 -27 18 -33 26 -22 15 -51 -38 -98 -29 -26 -109 -101 -178
-168 -69 -67 -143 -137 -164 -155 -114 -98 -232 -239 -229 -274 1 -18 -6 -26
-30 -35 -39 -14 -25 -24 45 -33 42 -6 127 -52 143 -78 9 -13 43 -11 48 4 3 9
10 9 31 -3 20 -10 26 -19 22 -35 -4 -14 4 -31 22 -51 44 -48 62 -81 62 -114 0
-34 -2 -35 -30 -18 -15 10 -22 10 -32 0 -6 -6 -33 -12 -59 -12 -26 0 -51 -4
-54 -10 -3 -5 -17 -10 -30 -10 -13 0 -39 -6 -57 -14 -18 -8 -45 -17 -60 -21
-19 -4 -28 -12 -28 -25 0 -22 -20 -26 -37 -9 -6 6 -21 8 -34 4 -21 -7 -21 -8
-3 -18 10 -6 32 -21 47 -34 35 -28 57 -29 64 -2 5 18 11 19 44 14 37 -6 39 -5
37 17 -3 19 2 24 26 26 16 2 33 -1 39 -7 6 -6 17 -11 25 -11 12 0 12 3 1 16
-10 13 -10 17 2 24 7 5 23 7 35 4 15 -4 29 2 43 17 15 17 31 22 61 21 l41 -2
-3 66 c-2 64 -1 67 32 95 33 28 39 30 112 26 73 -3 79 -6 115 -41 37 -36 38
-38 38 -109 0 -51 -6 -84 -20 -114 l-20 -42 -74 -1 c-59 0 -81 5 -110 22 -20
12 -39 26 -42 31 -10 15 -74 4 -71 -12 6 -26 -6 -55 -35 -87 -72 -80 -193
-237 -193 -251 0 -5 -13 -23 -29 -41 -16 -17 -32 -41 -36 -51 -3 -11 -31 -44
-61 -73 -29 -29 -54 -57 -54 -61 0 -14 -44 -72 -82 -106 -33 -30 -38 -40 -38
-78 0 -43 -16 -58 -26 -25 -4 9 -12 31 -19 47 -7 17 -21 59 -31 95 -10 36 -30
86 -46 111 -15 25 -28 57 -28 71 0 13 -5 29 -12 36 -9 9 -6 18 13 38 16 17 24
37 24 60 0 27 6 38 25 48 43 23 94 39 137 43 23 3 47 11 54 19 6 8 24 14 39
14 32 0 110 47 110 67 0 7 7 13 15 13 9 0 32 8 53 17 20 9 52 20 71 23 19 3
36 11 39 19 4 11 -3 12 -34 7 -22 -4 -43 -12 -48 -17 -6 -5 -31 -9 -57 -9 -32
0 -49 -5 -53 -15 -3 -9 -19 -15 -41 -15 -28 0 -35 -4 -35 -20 0 -15 -7 -20
-28 -20 -16 0 -36 -8 -46 -19 -10 -11 -37 -21 -68 -24 -28 -4 -56 -11 -62 -17
-5 -5 -19 -10 -30 -10 -11 0 -27 -7 -36 -15 -14 -13 -20 -12 -50 13 -22 19
-31 34 -27 44 9 25 140 71 192 66 31 -2 45 1 45 9 0 15 11 16 63 4 42 -10 47
-1 17 31 -24 26 -78 29 -92 5 -7 -13 -23 -17 -69 -17 -40 0 -65 -5 -75 -15
-20 -20 -83 -20 -90 0 -8 21 3 60 23 80 16 16 18 16 30 -1 17 -24 32 -5 25 31
-3 19 15 43 105 132 105 105 143 150 143 174 0 6 -14 26 -32 44 -31 33 -34 34
-105 33 -41 -1 -76 -5 -79 -10 -3 -4 0 -9 5 -9 6 -1 23 -3 39 -5 119 -14 132
-18 132 -49 0 -17 -27 -49 -92 -109 -51 -47 -97 -86 -101 -86 -22 0 -121 -88
-152 -136 -39 -59 -53 -69 -106 -79 -31 -6 -38 -3 -52 19 -28 42 -23 58 18 50
42 -8 111 4 99 16 -5 5 -33 10 -63 12 -49 3 -55 5 -56 27 -1 13 -9 28 -18 33
-10 5 -17 16 -17 25 0 23 -21 80 -46 128 -56 108 -98 180 -110 193 -8 7 -14
20 -14 28 0 8 -7 17 -15 20 -8 4 -15 17 -15 31 0 14 -13 45 -30 70 -16 24 -30
53 -30 65 0 18 4 20 31 14 23 -4 41 0 68 16 l36 23 -83 5 c-95 6 -118 21 -108
74 8 39 15 45 30 24 7 -10 28 -21 47 -24 19 -4 43 -13 54 -21 11 -7 30 -13 43
-13 12 0 25 -7 28 -15 4 -8 18 -15 33 -15 14 0 72 -16 129 -35 56 -19 109 -35
117 -35 8 0 15 -9 15 -20 0 -15 7 -20 25 -20 14 0 29 -8 35 -20 6 -11 21 -20
34 -20 13 0 29 -7 36 -15 7 -8 24 -15 39 -15 15 0 32 -5 39 -12 12 -12 69 -35
109 -45 12 -3 28 0 35 6 7 7 22 18 33 26 19 13 19 14 -10 21 -16 4 -36 13 -43
21 -7 7 -19 13 -27 13 -7 0 -40 14 -73 30 -34 17 -72 30 -85 30 -14 0 -30 7
-37 15 -7 8 -21 15 -30 15 -10 0 -31 7 -47 15 -47 25 -96 43 -133 50 -19 4
-39 11 -45 15 -5 4 -32 10 -60 14 -97 12 -208 58 -236 97 -10 15 -19 40 -19
55 0 15 -8 37 -18 48 -16 19 -41 71 -55 117 -4 11 -14 15 -36 11 -33 -5 -41
-19 -16 -28 17 -7 20 -34 4 -34 -6 0 -22 9 -36 20 -14 11 -40 21 -57 21 -26 1
-23 3 17 11 46 10 65 28 28 28 -10 0 -32 3 -48 6 -19 4 -35 1 -44 -8 -8 -8
-22 -17 -31 -21 -24 -9 -23 -27 2 -27 11 0 20 -7 20 -15 0 -8 -9 -15 -20 -15
-11 0 -20 -5 -20 -11 0 -5 -14 -23 -32 -39 -26 -24 -30 -32 -20 -42 10 -10 14
-8 18 10 4 12 10 22 16 22 5 0 22 14 38 30 20 20 39 30 59 30 42 0 105 -35
136 -76 23 -29 26 -43 22 -82 -4 -44 -16 -87 -41 -141 -6 -13 -23 -28 -39 -33
-15 -6 -31 -18 -36 -27 -4 -9 -4 -115 1 -236 5 -121 11 -335 14 -475 3 -211 7
-257 19 -266 23 -17 18 -32 -12 -36 -41 -5 -38 -24 9 -52 24 -14 58 -41 77
-60 32 -33 33 -37 27 -93 -4 -32 -7 -67 -7 -78 0 -24 128 -149 286 -280 26
-22 53 -45 59 -51 61 -59 148 -123 160 -118 9 3 17 -2 20 -14 4 -11 13 -23 21
-26 8 -3 15 -11 15 -19 0 -13 227 -235 285 -279 65 -49 202 -171 243 -216 18
-20 42 -56 52 -79 21 -48 36 -54 49 -20 9 24 5 44 -14 67 -16 19 -75 130 -75
141 0 4 -19 36 -43 71 -24 35 -46 70 -50 78 -4 8 -21 38 -38 65 -16 28 -37 64
-45 80 -48 99 -94 148 -159 170 -84 29 -86 34 -87 171 0 126 -4 141 -59 217
-16 22 -29 47 -29 55 0 8 -12 40 -26 69 -29 62 -26 83 11 83 18 0 29 -8 37
-27 6 -16 23 -55 39 -88 15 -33 30 -67 33 -75 3 -8 10 -22 15 -30 5 -8 19 -37
31 -65 23 -52 74 -110 89 -101 5 3 8 28 8 54 -1 49 25 111 51 120 17 5 15 -33
-2 -47 -7 -6 -16 -32 -20 -57 -4 -36 -1 -54 16 -87 36 -69 38 -76 38 -100 0
-13 -5 -38 -11 -54 -9 -27 -6 -36 20 -76 17 -25 31 -49 31 -55 0 -5 7 -15 15
-22 8 -7 15 -21 15 -32 0 -10 7 -21 15 -24 8 -4 15 -14 15 -24 0 -10 7 -23 15
-30 8 -7 15 -16 15 -21 0 -4 12 -25 26 -46 14 -21 30 -47 35 -58 5 -11 18 -33
29 -50 11 -16 24 -39 30 -50 5 -11 14 -27 18 -35 5 -8 21 -41 37 -72 28 -58
41 -68 63 -46 11 11 22 9 84 -23 23 -12 38 -11 38 1 0 6 -4 10 -10 10 -5 0
-18 8 -29 19 -10 10 -24 20 -31 23 -8 2 -15 36 -19 96 -5 66 -11 95 -22 104
-9 7 -19 20 -22 28 -3 8 -6 -11 -6 -42 -1 -32 -5 -58 -11 -58 -17 0 -30 20
-105 165 -14 28 -37 68 -50 90 -13 22 -24 47 -25 55 0 8 -14 28 -30 44 -17 16
-30 38 -30 48 0 10 -6 21 -14 24 -16 6 -34 62 -39 124 -2 27 -16 64 -32 90
-30 48 -35 86 -17 123 6 12 19 40 28 62 20 45 59 105 98 150 14 17 43 54 64
83 20 30 62 84 93 120 102 122 169 217 169 238 0 25 24 49 40 39 5 -3 10 -16
10 -28 1 -20 2 -20 11 -4 5 9 20 17 33 17 20 0 25 -8 35 -52 27 -116 32 -205
20 -365 -6 -87 -10 -198 -10 -248 0 -49 1 -166 2 -260 2 -173 -11 -309 -30
-328 -7 -7 -13 -4 -18 11 -6 15 -9 -2 -10 -51 -1 -39 -5 -103 -8 -141 -5 -44
-3 -72 4 -79 14 -14 14 -37 1 -37 -5 0 -10 7 -10 16 0 9 -6 14 -12 11 -23 -7
-3 -124 30 -177 15 -23 22 -51 22 -84 0 -43 -4 -53 -39 -87 -44 -44 -74 -49
-143 -22 -72 27 -103 66 -128 161 -7 28 -16 42 -28 42 -9 0 -37 18 -62 40 -25
22 -48 40 -53 40 -4 0 -56 47 -115 104 -59 57 -127 120 -152 140 -62 50 -57
45 -131 128 -37 41 -98 95 -135 120 -38 25 -103 81 -145 124 -66 69 -133 131
-268 251 -20 18 -39 33 -43 33 -27 1 2 -35 140 -172 86 -85 167 -167 180 -182
23 -28 28 -46 12 -46 -5 0 -10 -7 -10 -16 0 -8 -14 -29 -30 -46 -17 -16 -72
-84 -122 -150 -50 -65 -113 -138 -140 -161 -28 -23 -56 -54 -64 -69 -16 -31
-64 -40 -64 -13 0 8 5 15 10 15 6 0 10 7 10 15 0 9 9 33 19 54 18 34 20 68 26
342 5 256 8 305 20 307 8 2 15 -2 15 -9 0 -7 2 -10 5 -7 5 5 -4 34 -28 85 -5
12 -7 32 -4 43 3 12 2 30 -2 39 -16 33 -39 87 -45 104 -3 9 -13 17 -21 17 -19
0 -12 -38 11 -56 14 -11 19 -46 8 -57 -4 -3 -17 2 -30 12 -18 14 -34 18 -64
14 -28 -4 -46 -1 -58 9 -9 8 -25 18 -34 21 -22 8 -78 85 -78 108 0 10 -4 21
-10 24 -15 9 -12 50 7 83 19 33 75 68 92 58 21 -14 30 4 15 32 -7 15 -14 34
-14 43 0 8 -6 21 -12 28 -10 9 -13 108 -15 416 0 222 -4 418 -8 435 -7 31 7
61 21 47 4 -3 9 -79 12 -169 7 -184 7 -211 3 -506 -2 -117 0 -216 3 -219 22
-23 26 46 28 488 1 499 0 519 -43 519 -14 0 -25 -13 -39 -45 -11 -25 -30 -56
-42 -69 -26 -26 -26 -26 -102 -153 -31 -50 -56 -94 -56 -97 0 -6 -61 -108 -69
-116 -4 -3 -23 -31 -44 -62 -34 -50 -39 -64 -40 -120 0 -35 -2 -50 -4 -35 -3
18 -13 31 -29 37 -13 6 -27 16 -30 23 -5 15 21 82 36 92 5 3 10 12 10 20 0 8
11 26 25 41 13 14 34 47 46 72 21 42 77 134 97 157 4 6 11 17 15 25 4 8 13 24
20 35 62 100 80 125 88 125 5 0 9 5 9 10 0 13 32 45 53 53 13 5 15 14 10 39
-3 18 -9 40 -14 49 -4 8 -11 38 -15 67 -5 37 -14 58 -35 78 -28 27 -38 54 -20
54 6 0 13 -4 16 -10 12 -20 33 -9 39 20 4 21 11 30 25 30 26 0 37 18 16 26 -9
4 -24 -1 -34 -10 -20 -18 -31 -20 -31 -6 0 6 7 10 15 10 8 0 15 6 15 14 0 8
20 31 44 50 34 29 52 36 87 37 24 0 53 4 63 8 34 13 -2 25 -76 25 -57 0 -69 3
-74 18 -6 21 -15 23 -32 6 -8 -8 -8 -15 -1 -24 12 -14 3 -28 -40 -67 -62 -56
-101 -102 -101 -121 0 -12 -7 -34 -15 -49 -8 -15 -12 -33 -9 -40 2 -7 -2 -21
-11 -32 -11 -16 -16 -17 -23 -7 -10 15 -78 13 -75 -3 0 -5 23 -16 50 -23 26
-7 60 -17 75 -21 28 -9 37 5 38 59 0 14 4 31 9 39 12 19 30 -15 41 -77 4 -26
14 -61 21 -79 11 -26 11 -36 -1 -58 -20 -38 -34 -25 -40 35 -6 69 -25 76 -35
13 -7 -52 -24 -83 -65 -122 -22 -21 -85 -97 -190 -228 -6 -7 -10 -16 -10 -21
0 -5 -13 -27 -28 -48 -16 -21 -31 -46 -35 -54 -4 -8 -11 -22 -17 -30 -5 -8
-19 -36 -30 -62 -11 -27 -27 -48 -34 -48 -32 0 -106 52 -125 88 -6 12 -18 22
-25 22 -8 0 -16 7 -20 15 -3 8 -10 15 -15 15 -6 0 -30 14 -54 30 -25 17 -52
30 -60 30 -9 0 -19 5 -22 10 -9 14 -85 50 -107 50 -10 0 -26 4 -36 9 -9 6 -29
12 -43 15 -20 4 -32 18 -48 55 -11 27 -21 52 -21 55 0 11 66 33 119 39 29 4
64 13 77 22 13 8 43 15 67 15 24 0 52 7 63 15 10 8 33 15 51 15 37 0 53 18 28
32 -14 8 -15 12 -4 19 8 5 24 9 37 9 30 0 28 18 -4 30 -14 6 -22 14 -19 20 9
14 32 12 63 -4 31 -17 161 -46 204 -46 16 0 31 6 34 15 4 9 20 15 43 16 20 0
45 4 56 8 18 7 18 8 1 18 -20 11 -14 33 10 33 8 0 14 6 14 14 0 42 -113 63
-148 29 -12 -13 -35 -18 -80 -19 -35 -1 -68 -6 -75 -13 -6 -6 -37 -11 -68 -11
-37 0 -61 -5 -69 -14 -6 -8 -28 -16 -47 -18 -37 -3 -60 -28 -26 -28 10 0 25
-5 33 -11 10 -7 -10 -8 -67 -3 -59 5 -83 3 -83 -5 0 -6 7 -11 15 -11 8 0 15
-4 15 -10 0 -5 -13 -10 -30 -10 -19 0 -47 -13 -76 -35 -25 -19 -57 -35 -70
-35 -26 0 -71 -24 -91 -49 -23 -27 -16 -87 15 -118 34 -35 112 -98 132 -107 8
-3 29 -15 45 -26 17 -11 37 -23 45 -27 41 -20 208 -138 239 -171 20 -20 46
-43 59 -49 33 -19 102 -16 117 4 12 15 15 14 45 -15 18 -18 38 -50 45 -70 32
-98 21 -86 243 -266 128 -102 142 -124 96 -144 -30 -14 -47 -7 -89 38 -16 18
-70 65 -120 105 -49 40 -101 83 -114 96 -45 42 -184 21 -168 -26 2 -5 34 -10
74 -10 67 0 72 -2 117 -40 26 -22 74 -59 107 -81 71 -50 103 -90 122 -154 8
-27 -12 -49 -51 -55 -20 -4 -46 -10 -57 -15 -64 -26 -192 -64 -267 -80 -97
-21 -90 -17 -172 -77 -44 -31 -65 -41 -83 -37 -14 4 -36 -2 -59 -15 -52 -31
-60 -13 -20 44 18 28 55 84 82 125 27 41 51 77 54 80 3 3 11 16 18 30 7 14 21
39 32 55 29 46 50 87 50 99 0 6 7 24 16 41 21 40 21 141 0 164 -9 10 -16 25
-16 34 0 9 -5 19 -10 22 -6 3 -15 26 -21 51 -9 35 -16 44 -33 44 -12 0 -47 22
-77 48 -29 27 -65 58 -79 69 -14 12 -56 47 -95 80 -38 32 -74 61 -80 66 -117
86 -165 113 -165 92 0 -16 37 -58 69 -77 20 -12 47 -33 61 -45 14 -13 28 -23
31 -23 7 0 28 -18 133 -113 43 -40 83 -74 89 -76 6 -2 25 -20 43 -40 30 -32
32 -39 27 -81 -10 -72 -9 -72 -142 -249 -51 -69 -99 -137 -104 -151 -6 -14
-21 -38 -33 -55 -42 -59 -104 -186 -104 -214 0 -31 -26 -49 -44 -31 -17 17
-45 11 -61 -13 -8 -13 -27 -30 -41 -37 -14 -8 -39 -31 -55 -52 -52 -65 -41
-187 22 -251 15 -15 35 -27 44 -27 9 0 25 -5 36 -10 10 -6 44 -14 75 -18 69
-9 84 -25 61 -70 -18 -37 -18 -37 28 -18 37 16 46 41 23 64 -10 10 -10 15 2
22 24 15 49 12 82 -12 32 -23 39 -29 95 -80 16 -15 61 -48 99 -74 38 -26 92
-64 119 -84 28 -20 70 -46 95 -59 52 -27 136 -81 165 -108 26 -23 74 -57 151
-108 33 -22 68 -48 78 -57 27 -28 30 -77 8 -133 -18 -46 -23 -50 -57 -55 -21
-3 -40 -10 -42 -17 -4 -12 59 -35 80 -28 7 2 24 6 38 9 23 5 26 10 26 51 0 68
13 72 55 16 32 -42 46 -52 102 -70 85 -27 99 -27 163 9 61 35 70 36 77 12 10
-31 164 -60 180 -33 7 11 -17 21 -51 21 -14 0 -37 6 -51 14 -15 8 -36 17 -47
21 -16 5 -17 8 -5 15 8 6 25 10 38 10 12 0 22 4 22 9 0 12 -26 21 -60 21 -39
0 -60 35 -33 56 15 12 66 14 290 12 279 -3 332 4 216 30 -84 18 -358 32 -416
21 -32 -6 -55 -5 -68 1 -20 11 -26 56 -8 62 6 2 9 13 6 23 -5 19 -5 19 -12 -2
-8 -24 -20 -29 -30 -14 -7 13 27 80 41 81 6 0 32 24 58 53 26 28 54 59 62 68
8 9 14 21 14 27 0 7 3 12 8 12 4 0 22 23 41 50 19 28 37 50 40 50 6 0 25 40
36 78 8 28 25 19 25 -14 0 -16 5 -24 13 -22 15 6 22 47 9 60 -11 11 27 88 43
88 14 0 165 -109 165 -119 0 -4 9 -19 21 -32 12 -13 26 -31 33 -39 6 -9 43
-42 81 -74 39 -32 111 -99 160 -150 50 -50 117 -108 151 -128 59 -36 76 -57
89 -108 4 -14 20 -46 36 -73 16 -26 29 -52 29 -58 0 -12 -36 -3 -65 17 -11 8
-36 14 -56 14 -20 0 -56 7 -79 15 -23 8 -59 15 -79 15 -42 0 -128 26 -151 46
-20 17 -91 27 -109 15 -22 -14 -5 -28 46 -36 27 -4 55 -15 64 -24 13 -13 41
-20 110 -25 54 -4 100 -13 109 -20 8 -8 39 -14 69 -15 57 -1 88 -15 57 -27
-28 -11 -127 1 -136 17 -7 11 -40 13 -164 11 -99 -2 -194 2 -263 12 -59 8
-163 17 -230 20 -104 5 -123 4 -123 -9 0 -24 73 -36 180 -31 60 4 101 2 105
-4 7 -11 -3 -15 -60 -25 -38 -7 -39 -8 -15 -17 17 -7 59 -6 130 3 164 21 364
18 423 -5 61 -24 166 -18 206 12 25 18 28 18 38 4 8 -14 16 -15 45 -5 65 19
133 -32 109 -83 -11 -25 -14 -26 -186 -44 -84 -9 -145 -9 -255 0 -98 8 -237 9
-430 4 -157 -4 -397 -6 -535 -4 -137 2 -479 5 -760 5 -315 1 -531 5 -565 12
-30 5 -97 16 -147 23 -123 18 -124 44 -1 55 20 2 50 13 67 26 l29 22 44 -21
c90 -42 114 -47 142 -29 14 9 36 17 50 17 30 0 42 15 20 24 -9 3 -48 6 -87 6
-44 0 -83 6 -101 15 -15 8 -42 15 -60 15 -17 0 -40 7 -50 15 -11 8 -28 15 -38
15 -10 0 -18 5 -18 11 0 5 -13 15 -30 20 -16 6 -30 15 -30 20 0 5 -11 9 -25 9
-32 0 -32 -14 0 -28 14 -6 25 -16 25 -22 0 -5 11 -10 24 -10 13 0 26 -7 30
-15 3 -8 12 -15 21 -15 23 0 18 -18 -7 -26 -14 -4 -25 -1 -32 8 -6 8 -35 23
-64 32 -29 10 -57 26 -62 37 -6 10 -18 19 -27 19 -45 0 -215 138 -249 202 -8
16 -20 28 -27 28 -29 1 -177 243 -177 290 0 5 -4 10 -10 10 -5 0 -10 5 -10 12
0 6 -13 39 -29 72 -16 34 -39 93 -52 131 -13 39 -29 81 -36 95 -7 14 -13 30
-13 36 0 7 -7 25 -15 40 -8 16 -15 36 -15 45 0 9 -7 33 -15 52 -17 41 -19 123
-5 182 6 22 15 87 20 144 5 58 14 109 20 115 5 5 10 21 10 36 0 14 7 38 15 54
8 15 15 35 15 43 0 16 28 83 72 168 53 104 213 311 260 336 24 13 48 -40 49
-105 1 -110 24 -164 49 -116 14 26 -4 166 -24 189 -8 9 -17 31 -21 49 -6 29
-2 37 37 75 41 42 173 117 204 117 8 0 17 7 20 15 8 19 70 20 81 2 10 -17 70
-30 78 -16 4 5 -3 30 -15 54 -26 54 -20 96 20 135 16 15 34 51 44 86 10 32 24
77 32 99 8 23 14 51 14 63 0 13 7 33 15 46 11 16 15 44 13 97 -3 99 12 157 55
213 20 26 46 69 58 94 43 89 170 223 261 276 25 15 49 33 52 41 3 8 12 15 21
15 8 0 15 6 15 13 0 18 75 60 185 106 54 22 111 27 135 11z m703 -214 c9 -13
35 -33 59 -45 62 -30 108 -75 108 -105 0 -36 -32 -34 -64 5 -14 17 -26 35 -26
40 0 12 -99 109 -111 109 -5 0 -9 5 -9 10 0 19 28 10 43 -14z m4621 -295 c211
-209 257 -251 346 -316 57 -41 74 -59 102 -112 l17 -32 -39 -43 c-26 -27 -40
-36 -40 -26 0 9 6 18 13 21 9 4 9 7 0 17 -10 11 -14 10 -19 -3 -3 -9 -10 -17
-15 -17 -12 0 -71 -60 -114 -117 -56 -74 -21 -66 53 11 35 37 66 65 70 61 3
-3 1 -14 -6 -23 -7 -9 -16 -26 -21 -37 -13 -26 -132 -149 -199 -203 -59 -49
-83 -49 -107 -1 -9 16 -60 73 -114 126 -105 104 -126 123 -138 123 -10 0 -100
87 -174 167 -30 33 -89 88 -130 122 -41 34 -77 68 -81 75 -4 7 -1 30 6 51 13
38 60 86 137 144 62 46 199 175 205 194 13 42 49 16 248 -182z m-4543 119 c26
-14 25 -56 -1 -63 -11 -3 -20 -10 -20 -16 0 -16 36 -13 50 4 18 22 54 15 58
-11 2 -12 21 -57 43 -99 27 -54 36 -82 29 -89 -16 -16 -12 -24 12 -28 31 -4
33 -25 3 -31 -19 -3 -30 1 -38 14 -14 23 -72 25 -122 5 -34 -15 -62 -19 -102
-17 -36 2 -47 67 -18 101 7 8 21 33 30 55 10 22 25 48 34 58 14 16 13 18 -7
24 -27 7 -28 23 -2 56 11 14 20 30 20 36 0 14 6 14 31 1z m1437 -104 c-2 -15
-7 -28 -13 -29 -12 -2 -19 38 -10 60 9 25 27 1 23 -31z m-1528 -3 c-1 -18 -18
-35 -24 -24 -4 6 -4 16 -1 21 7 12 25 13 25 3z m3628 -210 c2 -83 -2 -115 -12
-125 -7 -8 -21 -29 -30 -47 -29 -56 -41 -34 -41 75 0 85 4 108 26 159 15 33
30 69 34 80 7 19 8 18 14 -5 4 -14 8 -75 9 -137z m-3672 110 c-11 -11 -19 6
-11 24 8 17 8 17 12 0 3 -10 2 -21 -1 -24z m1615 -23 c10 -6 19 -17 19 -25 0
-8 8 -15 18 -15 11 0 27 -9 36 -19 14 -15 15 -24 6 -40 -6 -12 -15 -21 -20
-21 -6 0 -10 -29 -10 -65 0 -49 -4 -67 -15 -71 -8 -4 -15 -17 -15 -30 0 -13
-4 -24 -10 -24 -5 0 -10 11 -10 25 0 14 4 25 9 25 12 0 21 172 10 193 -17 31
-26 10 -31 -71 -3 -43 -10 -87 -15 -98 -5 -10 -17 -34 -26 -52 -19 -37 -22
-88 -7 -97 6 -3 10 -22 10 -41 0 -19 -4 -34 -10 -34 -5 0 -10 -18 -10 -39 0
-70 -23 -97 -35 -41 -4 17 -10 30 -14 30 -16 0 -66 -103 -66 -138 0 -30 -5
-39 -27 -50 -16 -7 -28 -17 -28 -21 0 -5 -9 -11 -20 -14 -11 -3 -20 -10 -20
-16 0 -16 27 -13 34 4 6 17 46 21 46 4 0 -6 -9 -13 -20 -16 -11 -3 -20 -10
-20 -15 0 -6 -17 -8 -43 -4 -33 5 -47 3 -57 -9 -16 -19 -59 -20 -66 0 -4 8
-12 15 -20 15 -7 0 -18 9 -24 20 -6 11 -17 20 -24 20 -8 0 -19 7 -26 15 -7 8
-21 15 -31 15 -10 0 -30 10 -44 23 -25 21 -25 24 -12 55 7 18 35 48 60 66 79
56 147 117 253 226 139 144 174 183 174 196 0 29 60 138 78 143 2 1 12 -4 23
-9z m-581 -30 c0 -13 -80 -13 -100 0 -11 7 2 10 43 10 31 0 57 -4 57 -10z
m2884 -18 c5 -8 -37 -52 -49 -52 -3 0 -5 7 -5 15 0 8 5 15 10 15 6 0 10 7 10
15 0 16 25 21 34 7z m56 -39 c0 -27 -78 -121 -123 -150 -23 -14 -57 -39 -75
-54 -22 -20 -44 -29 -67 -29 -30 0 -35 -3 -35 -24 0 -22 -86 -145 -103 -146
-21 -1 -387 -387 -479 -505 -12 -16 -39 -43 -58 -60 -19 -16 -53 -48 -75 -70
-178 -182 -291 -301 -345 -365 -59 -70 -106 -119 -206 -212 -21 -20 -59 -58
-83 -83 -24 -25 -49 -44 -55 -42 -6 2 -12 24 -14 49 -3 44 -1 48 47 88 28 24
54 52 57 64 9 27 451 468 503 500 22 14 58 50 80 80 23 30 62 72 88 93 99 80
218 207 208 223 -4 6 3 10 15 10 17 0 20 4 15 20 -5 15 -3 18 9 14 16 -6 86
61 86 82 0 5 45 53 101 105 64 59 110 112 125 142 21 40 29 47 54 47 19 0 30
5 30 14 0 16 86 106 102 106 5 0 27 13 47 29 20 16 55 39 79 51 23 12 45 26
48 31 9 15 24 10 24 -8z m90 -28 c0 -8 -6 -15 -14 -15 -17 0 -28 14 -19 24 12
12 33 6 33 -9z m-3812 -2 c-10 -2 -26 -2 -35 0 -10 3 -2 5 17 5 19 0 27 -2 18
-5z m1232 -5 c0 -14 -238 -251 -269 -268 -44 -23 -19 12 70 97 50 48 112 109
138 134 48 49 61 57 61 37z m-1110 -24 c0 -12 -10 -14 -47 -12 -66 4 -70 28
-4 28 39 0 51 -4 51 -16z m3689 -73 c17 -21 31 -46 31 -54 0 -34 80 -127 109
-127 6 0 15 -9 21 -20 11 -21 1 -50 -26 -78 -8 -7 -33 -39 -58 -70 -24 -31
-112 -127 -196 -212 -301 -306 -437 -447 -580 -599 -80 -85 -176 -187 -215
-226 -126 -128 -390 -408 -472 -501 -44 -50 -97 -108 -119 -128 -123 -113
-147 -137 -141 -142 14 -15 79 10 126 47 68 55 76 33 22 -58 -23 -38 -41 -73
-41 -77 0 -5 -11 -21 -25 -38 -14 -16 -25 -36 -25 -44 0 -19 -26 -18 -34 1 -3
8 -10 15 -16 15 -16 0 -12 -27 5 -34 8 -3 15 -16 15 -29 0 -13 6 -29 13 -36
10 -10 7 -16 -12 -32 -13 -10 -29 -19 -37 -19 -15 0 -82 -38 -102 -57 -7 -7
-25 -13 -40 -13 -20 0 -23 -3 -14 -12 19 -19 15 -24 -35 -43 -27 -10 -59 -26
-72 -37 -13 -10 -29 -18 -36 -18 -7 0 -33 -11 -59 -25 -66 -35 -82 -34 -59 5
10 17 37 53 60 79 44 50 78 121 108 226 10 33 21 68 26 77 14 28 10 55 -10 69
-12 9 -21 32 -25 62 -6 47 7 65 19 26 4 -11 20 -25 36 -31 16 -5 29 -14 29
-20 0 -21 110 -108 138 -108 10 0 10 5 -2 21 -10 16 -12 28 -5 46 5 13 6 41 3
61 -5 29 -14 42 -44 61 -51 32 -209 188 -221 217 -10 28 7 74 28 74 7 0 13 5
13 10 0 6 7 10 15 10 8 0 15 -4 15 -10 0 -5 -4 -10 -10 -10 -16 0 -12 -27 5
-34 8 -3 15 -15 15 -26 0 -11 4 -20 9 -20 16 0 23 38 12 59 -16 29 -13 61 5
61 11 0 14 6 9 20 -7 21 10 28 18 8 3 -8 29 13 67 52 59 64 167 173 243 247
21 21 52 55 70 76 18 21 81 89 140 150 59 62 112 117 117 122 52 54 143 146
178 179 23 23 59 57 80 77 20 20 45 50 54 68 10 17 24 34 32 37 7 3 40 30 71
60 52 48 56 56 44 71 -13 16 -12 17 3 5 19 -15 31 -2 21 24 -5 14 -3 16 11 11
13 -5 27 1 44 18 14 15 39 34 54 43 15 9 28 23 28 32 0 9 14 30 30 48 17 18
30 37 30 43 0 5 6 9 14 9 8 0 16 7 20 15 3 8 11 15 19 15 7 0 21 15 32 33 18
30 129 147 140 147 3 0 31 27 63 60 33 33 62 60 66 60 4 0 17 10 29 23 18 19
63 42 89 46 3 1 20 -17 37 -38z m269 -180 c3 -8 -1 -12 -9 -9 -7 2 -15 10 -17
17 -3 8 1 12 9 9 7 -2 15 -10 17 -17z m-4348 -61 c0 -10 -5 -22 -10 -25 -13
-8 -24 20 -16 41 8 20 26 9 26 -16z m1170 21 c0 -12 -20 -25 -27 -18 -7 7 6
27 18 27 5 0 9 -4 9 -9z m3236 -6 c4 -8 12 -15 18 -15 13 0 141 -111 187 -162
26 -28 75 -145 66 -154 -3 -3 -16 6 -30 20 -15 14 -31 26 -38 26 -7 0 -9 9 -5
24 5 20 0 30 -27 50 -19 15 -41 26 -50 26 -10 0 -17 5 -17 10 0 6 -9 10 -19
10 -25 0 -34 15 -33 51 0 16 -9 38 -24 54 -13 14 -24 30 -24 34 0 5 -7 11 -15
15 -8 3 -15 10 -15 16 0 15 20 12 26 -5z m-4501 -15 c4 -6 30 -25 58 -44 61
-39 103 -107 86 -139 -9 -16 -8 -18 11 -12 17 5 21 3 20 -12 -4 -32 0 -43 13
-40 8 1 11 -9 9 -30 -3 -27 0 -33 16 -33 15 0 18 -6 14 -32 -4 -28 -3 -30 18
-25 19 5 21 3 16 -18 -5 -19 -3 -22 13 -18 16 4 19 -3 25 -54 4 -32 13 -67 21
-77 8 -11 15 -31 15 -44 0 -13 5 -32 10 -43 6 -11 13 -57 17 -104 4 -72 3 -86
-11 -91 -9 -3 -16 -18 -16 -33 0 -14 -7 -35 -15 -45 -20 -26 -20 -92 0 -100 8
-3 15 -16 15 -28 0 -26 -47 -58 -86 -58 -24 0 -100 -35 -110 -51 -10 -18 -39
-9 -71 23 -18 18 -33 37 -33 42 0 6 34 24 76 39 134 50 205 139 209 260 1 21
-2 40 -7 43 -4 3 -8 15 -8 27 0 23 -32 123 -50 155 -5 9 -39 78 -75 152 -36
74 -70 142 -76 150 -5 8 -18 35 -30 60 -11 25 -29 59 -39 75 -11 17 -24 40
-30 53 -5 13 -14 20 -20 17 -15 -9 -12 -45 5 -51 8 -4 15 -17 15 -30 0 -14 7
-27 15 -30 8 -4 15 -15 15 -25 0 -18 29 -89 41 -99 3 -3 16 -27 28 -55 13 -27
27 -57 32 -65 34 -59 49 -92 49 -110 0 -11 5 -29 12 -40 9 -15 9 -24 -1 -43
-11 -22 -11 -29 3 -48 9 -13 16 -32 16 -43 0 -11 7 -27 16 -37 12 -13 16 -37
16 -84 -1 -79 -25 -125 -80 -149 -20 -10 -49 -24 -64 -32 -14 -7 -36 -14 -47
-14 -21 0 -21 2 -21 284 0 244 -2 285 -15 296 -12 10 -15 28 -13 63 4 62 23
73 32 17 3 -22 10 -40 14 -40 7 0 62 -111 76 -152 10 -32 26 -19 26 21 0 25
-5 41 -15 45 -8 3 -15 15 -15 27 0 12 -11 32 -25 45 -14 13 -28 37 -32 54 -3
17 -14 37 -25 44 -11 8 -25 36 -33 62 -7 27 -21 64 -30 83 -23 45 -31 116 -15
136 14 17 26 19 35 5z m4452 -22 c23 -22 31 -58 13 -58 -5 0 -10 -9 -10 -20 0
-11 7 -20 15 -20 8 0 25 -10 38 -22 91 -85 125 -118 149 -144 14 -16 40 -42
57 -57 36 -33 39 -57 10 -83 -12 -10 -32 -36 -46 -57 -13 -20 -179 -194 -369
-385 -189 -191 -404 -410 -477 -487 -73 -76 -226 -234 -342 -350 -206 -206
-344 -359 -438 -482 -26 -33 -65 -76 -86 -95 -39 -32 -65 -88 -42 -88 23 0
114 88 221 215 113 133 338 361 398 402 28 20 52 42 52 50 0 7 5 13 10 13 6 0
10 5 10 10 0 10 40 49 133 133 17 15 37 27 44 27 7 0 13 5 13 10 0 6 5 10 10
10 6 0 20 10 31 21 18 18 20 25 11 40 -8 13 -9 20 -1 25 6 4 15 0 20 -7 4 -7
11 -10 16 -6 4 5 1 12 -6 16 -20 13 -3 33 21 25 14 -4 18 -3 13 6 -4 7 0 13
11 16 11 3 38 32 61 65 29 39 50 59 64 59 11 0 18 4 14 9 -6 11 72 100 96 110
9 3 49 44 89 91 39 47 91 105 114 130 23 25 59 65 80 90 21 25 95 105 165 179
69 73 134 146 144 162 21 32 47 37 71 13 17 -16 21 -51 8 -70 -4 -7 -26 -22
-49 -33 -41 -22 -55 -40 -57 -73 -1 -9 -143 -162 -317 -340 -174 -178 -336
-345 -360 -373 -54 -61 -180 -192 -404 -419 -93 -95 -204 -210 -245 -256 -102
-113 -227 -238 -286 -286 -62 -50 -71 -59 -119 -119 -56 -69 -64 -77 -157
-147 -102 -78 -125 -88 -193 -88 -51 0 -56 -2 -97 -45 -40 -42 -47 -46 -98
-49 -39 -2 -72 -12 -114 -34 -32 -18 -67 -32 -76 -32 -10 0 -39 -9 -65 -21
-26 -11 -85 -32 -132 -45 -82 -24 -127 -45 -148 -70 -17 -20 -88 -54 -113 -54
-19 0 -22 -4 -17 -20 10 -32 -24 -38 -45 -9 -18 23 -18 24 13 43 46 29 120 65
133 66 7 0 14 7 18 15 3 8 11 15 18 15 7 0 34 11 60 25 26 14 54 25 63 25 20
0 109 37 155 65 19 11 64 34 100 49 36 16 81 35 100 44 19 8 67 29 105 47 87
40 120 52 165 61 65 12 156 74 190 128 20 33 20 35 3 64 -22 39 -9 83 27 92
24 6 25 7 3 14 -11 4 -33 22 -47 40 -14 19 -59 67 -101 107 -81 79 -96 116
-55 141 11 7 20 16 20 20 0 5 14 27 30 50 17 22 30 52 30 65 0 24 15 31 24 11
3 -10 9 -8 19 5 8 9 21 17 30 17 18 0 75 65 134 153 14 20 29 37 33 37 4 0 43
42 86 92 44 51 134 147 202 214 67 67 122 127 122 133 0 6 7 11 15 11 20 0 19
10 -2 26 -23 17 -33 17 -34 2 0 -7 -27 -32 -60 -56 -32 -24 -59 -51 -59 -60 0
-9 -17 -28 -37 -42 -45 -30 -113 -100 -113 -117 0 -6 -24 -30 -52 -52 -69 -53
-97 -81 -104 -106 -4 -11 -17 -32 -31 -47 -14 -14 -22 -31 -19 -37 9 -14 -11
-46 -67 -102 -47 -48 -67 -59 -67 -39 0 6 -7 10 -15 10 -8 0 -15 -4 -15 -10 0
-5 -7 -10 -15 -10 -36 0 1 67 59 106 20 14 36 29 36 33 0 12 55 76 115 134 58
56 39 36 359 360 136 139 264 272 284 297 47 59 133 139 150 140 7 0 18 12 24
28 17 38 134 182 170 209 17 12 38 35 48 50 20 34 206 222 273 278 27 22 59
55 72 74 13 18 34 39 47 45 14 7 23 21 24 36 2 49 6 51 41 18z m-3317 -78 c0
-12 -32 -50 -42 -50 -14 0 -9 19 10 39 19 22 32 26 32 11z m-2625 -10 c11 -17
-113 -130 -143 -130 -14 0 -60 -17 -101 -37 -65 -32 -95 -56 -209 -172 -115
-117 -195 -215 -238 -293 -7 -11 -17 -25 -23 -31 -6 -6 -11 -18 -11 -26 0 -8
-6 -22 -14 -30 -7 -9 -23 -43 -34 -76 -11 -33 -30 -82 -42 -110 -24 -57 -35
-106 -50 -232 -5 -48 -13 -108 -17 -133 l-7 -45 -7 60 c-23 190 -23 212 1 282
12 37 27 75 34 83 29 39 46 82 46 119 0 31 7 49 30 74 17 19 30 38 30 41 0 4
11 22 24 39 13 18 33 53 46 79 12 25 47 74 76 108 30 34 61 74 68 89 20 37
141 137 229 188 75 44 93 56 132 86 13 9 28 17 33 17 5 0 15 7 22 15 7 8 27
17 46 21 19 3 37 10 40 15 7 12 31 11 39 -1z m1261 -17 c-22 -95 -30 -673 -10
-783 5 -32 -12 -61 -24 -42 -6 9 -18 11 -35 6 -27 -6 -39 10 -14 19 10 4 10 7
0 18 -10 9 -13 10 -13 1 0 -7 -5 -12 -11 -12 -6 0 -8 8 -4 19 9 29 -61 83 -97
75 -30 -6 -36 4 -15 25 10 11 7 12 -15 7 -27 -6 -40 8 -15 17 9 3 9 8 -2 18
-10 11 -15 11 -18 2 -6 -17 -21 -16 -39 1 -16 17 -19 36 -4 36 6 0 10 -7 10
-15 0 -8 7 -15 15 -15 20 0 19 27 -1 38 -29 16 -14 107 29 183 46 78 60 103
67 109 3 3 28 50 55 105 73 146 115 215 132 215 12 0 14 -7 9 -27z m-203 -22
c-10 -8 -30 -39 -43 -68 -5 -13 -14 -23 -20 -23 -5 0 -10 -9 -10 -19 0 -11 -6
-26 -13 -33 -7 -7 -28 -44 -47 -83 -19 -38 -39 -73 -43 -76 -11 -8 -34 -47
-43 -72 -8 -21 -37 -19 -42 4 -1 8 18 46 43 84 26 39 51 79 56 90 5 11 15 29
21 39 101 156 141 205 146 179 2 -8 0 -18 -5 -22z m2050 -27 c2 -25 0 -58 -6
-74 -10 -27 -8 -32 31 -68 23 -21 42 -44 42 -50 0 -19 -21 -25 -33 -9 -7 7
-29 26 -49 42 -41 30 -51 72 -23 95 10 8 15 30 15 61 0 62 16 64 23 3z m-1645
-145 c-1 -88 2 -110 16 -124 14 -14 16 -35 14 -131 -4 -152 -22 -155 -26 -4
-2 81 -7 119 -17 130 -14 16 -20 172 -8 234 11 58 22 2 21 -105z m5035 -2 c3
-8 1 -20 -4 -28 -17 -27 -10 -67 16 -87 14 -11 25 -24 25 -30 0 -6 15 -28 33
-50 19 -22 42 -65 51 -96 15 -45 28 -65 72 -102 51 -44 67 -75 44 -89 -5 -3
-15 5 -22 19 -10 24 -48 37 -48 18 0 -4 18 -36 40 -70 23 -35 40 -73 40 -90 0
-32 63 -176 81 -188 8 -5 10 -32 5 -89 -5 -75 -4 -85 16 -110 30 -39 39 -170
13 -189 -15 -10 -20 -34 -25 -113 -4 -54 -12 -108 -17 -118 -6 -11 -18 -51
-28 -90 -41 -166 -70 -228 -177 -387 -72 -107 -254 -295 -341 -352 -79 -52
-187 -106 -210 -106 -17 0 -40 -8 -122 -45 -52 -23 -93 -34 -158 -41 -34 -4
-70 -11 -80 -16 -10 -5 -43 -16 -73 -24 -68 -17 -431 -19 -639 -3 -77 6 -232
12 -345 13 -148 1 -212 5 -232 15 -23 12 -29 11 -49 -3 -19 -13 -51 -16 -171
-16 -165 0 -175 5 -108 53 49 35 131 57 218 58 75 1 112 9 115 24 1 6 -17 11
-40 13 -24 2 -43 7 -43 11 0 4 21 23 48 42 78 56 703 690 791 803 14 18 46 48
70 67 25 19 61 52 81 73 19 22 65 71 102 110 36 39 92 100 125 135 32 35 126
132 208 215 83 84 191 197 240 251 94 102 181 189 227 224 14 12 43 45 64 74
51 69 73 91 111 106 28 12 34 11 54 -8 16 -14 22 -31 21 -56 -1 -19 3 -35 9
-35 5 0 14 -10 19 -22 14 -33 34 -63 70 -107 11 -13 20 -30 20 -38 0 -7 4 -13
9 -13 5 0 12 -10 16 -22 3 -13 10 -32 15 -43 41 -94 50 -116 50 -129 0 -8 4
-17 9 -21 6 -3 13 -27 17 -53 3 -26 12 -69 19 -97 15 -62 10 -505 -6 -550 -10
-26 -66 -146 -146 -311 -14 -28 -35 -62 -46 -75 -12 -13 -40 -47 -62 -74 -44
-56 -107 -126 -146 -165 -70 -69 -299 -230 -327 -230 -7 0 -31 -14 -54 -30
-30 -22 -52 -30 -83 -30 -22 0 -46 -5 -52 -11 -9 -9 -26 -9 -69 0 -82 16 -139
14 -155 -5 -12 -15 -41 -16 -272 -12 -170 4 -263 10 -270 17 -7 7 -51 11 -112
11 -113 0 -158 -14 -79 -25 27 -3 108 -16 179 -27 81 -13 195 -22 300 -24 156
-4 179 -2 283 22 104 25 114 26 130 10 24 -21 108 -21 164 0 161 61 397 218
478 317 14 17 43 49 64 71 49 52 166 210 188 256 44 93 78 173 78 186 0 8 14
39 31 69 l31 54 -1 294 c0 240 -3 299 -16 330 -8 20 -15 52 -15 72 0 19 -4 35
-10 35 -5 0 -13 12 -16 28 -4 15 -20 54 -35 88 -16 34 -29 66 -29 72 0 7 -4
12 -8 12 -5 0 -17 19 -27 43 -10 23 -34 57 -52 74 -18 18 -33 37 -33 43 0 16
27 12 34 -6 3 -8 10 -12 16 -9 11 7 -11 46 -48 84 -13 14 -33 47 -44 74 -24
54 -53 72 -103 63 -40 -8 -61 10 -68 56 -6 43 9 61 29 34 14 -20 34 -16 94 15
41 23 46 23 53 6z m-3448 -27 c-3 -5 -12 -10 -20 -10 -8 0 -17 5 -20 10 -4 6
5 10 20 10 15 0 24 -4 20 -10z m-2305 -240 c0 -5 -13 -10 -30 -10 -16 0 -30 5
-30 10 0 6 14 10 30 10 17 0 30 -4 30 -10z m1338 -193 c1 -23 11 -54 22 -69
36 -50 22 -159 -25 -198 -11 -9 -14 -22 -10 -41 5 -21 2 -30 -14 -39 -22 -11
-27 -39 -12 -68 20 -37 41 -86 41 -96 0 -6 7 -24 15 -39 8 -15 14 -40 15 -55
0 -15 3 -57 6 -93 4 -52 2 -68 -10 -78 -10 -8 -16 -29 -16 -52 0 -36 -2 -39
-27 -39 -18 1 -37 11 -53 30 -13 17 -29 30 -35 30 -6 0 -52 41 -103 90 -50 50
-96 90 -101 90 -5 0 -24 19 -43 43 -18 23 -39 47 -47 53 -9 7 -15 35 -16 83
-2 78 6 91 57 91 29 0 48 17 48 42 0 19 39 27 41 8 1 -5 3 -14 4 -20 1 -5 3
-14 4 -19 0 -6 15 -18 31 -28 17 -9 30 -23 30 -29 0 -16 48 -46 55 -35 3 6 0
13 -7 18 -12 8 -31 34 -44 61 -3 6 -3 20 1 30 6 15 10 13 34 -13 15 -17 34
-41 43 -54 9 -13 21 -20 27 -16 16 9 13 45 -4 51 -25 10 -17 31 15 38 17 3 30
9 30 13 0 9 -89 43 -113 43 -8 0 -34 17 -56 38 -33 31 -41 45 -41 74 0 23 6
38 15 42 8 3 15 16 15 29 0 14 7 30 15 37 8 7 15 18 15 26 0 28 29 42 88 41
32 0 67 5 78 11 28 17 29 16 32 -31z m-588 -57 c0 -66 -11 -97 -24 -64 -8 20
-8 92 0 121 11 42 24 12 24 -57z m-836 -25 c7 -27 -4 -55 -57 -151 -46 -82
-139 -238 -147 -244 -3 -3 -15 -23 -27 -45 -28 -54 -143 -215 -154 -215 -16 0
-10 87 6 100 8 7 15 21 15 31 0 9 6 24 14 31 7 8 16 23 20 34 3 11 24 39 46
63 22 23 40 49 40 57 0 8 4 14 8 14 4 0 21 26 37 58 16 31 48 86 72 122 24 36
55 89 69 118 27 56 48 67 58 27z m-167 -133 c-9 -10 -17 -26 -17 -35 0 -9 -6
-20 -14 -24 -8 -4 -26 -32 -41 -60 -14 -29 -33 -53 -41 -53 -25 0 -18 18 46
118 18 28 36 52 40 52 4 0 10 10 14 22 4 18 8 20 17 11 10 -10 9 -17 -4 -31z
m3094 -155 c-1 -12 -15 -9 -19 4 -3 6 1 10 8 8 6 -3 11 -8 11 -12z m-1943 -52
c-8 -19 -8 -31 0 -50 6 -14 9 -32 6 -40 -4 -10 6 -27 26 -46 44 -43 24 -55
-23 -14 l-37 32 6 72 c5 49 11 71 20 71 11 0 11 -5 2 -25z m-1306 -17 c-7 -7
-12 -20 -12 -30 0 -10 -7 -21 -15 -24 -8 -4 -15 -14 -15 -24 0 -10 -7 -25 -15
-34 -8 -8 -15 -26 -15 -40 0 -14 -5 -28 -11 -31 -5 -4 -14 -18 -19 -31 -11
-29 -30 -32 -30 -4 0 21 39 103 52 108 4 2 8 12 8 23 0 11 7 22 15 25 8 4 15
18 15 34 0 18 7 30 23 37 26 12 36 8 19 -9z m6550 -74 c-2 -13 -8 -24 -13 -24
-11 0 -12 64 -2 100 7 23 8 22 14 -13 3 -21 4 -49 1 -63z m-3242 59 c0 -20 -3
-24 -11 -16 -7 7 -9 19 -6 27 10 24 17 19 17 -11z m-2446 -44 c16 -36 16 -42
3 -57 -17 -19 -20 -76 -5 -105 10 -19 -7 -87 -22 -87 -5 0 -12 -15 -16 -32 -7
-33 -27 -71 -51 -96 -7 -7 -13 -18 -13 -23 0 -6 -13 -22 -28 -37 -16 -15 -53
-56 -83 -90 -29 -35 -66 -70 -81 -78 -27 -14 -40 -54 -18 -54 17 0 11 -36 -9
-54 -23 -21 -71 -12 -78 15 -3 11 -9 19 -14 19 -5 0 -27 16 -49 36 -21 20 -43
33 -48 30 -5 -3 -16 4 -25 15 -9 10 -24 19 -32 19 -8 0 -15 4 -15 9 0 5 -10
13 -22 17 -13 4 -25 10 -28 13 -7 10 -126 81 -134 81 -4 0 -20 10 -36 22 -21
15 -30 30 -30 51 0 29 0 29 48 22 26 -4 55 -11 65 -16 13 -8 17 -6 17 10 0 15
15 24 73 41 39 13 77 26 82 30 6 4 24 11 42 14 17 4 37 14 44 22 6 8 17 14 24
14 7 0 36 13 66 28 30 16 81 37 114 47 33 10 67 24 76 31 8 8 23 14 31 14 24
0 48 11 48 21 0 15 -75 10 -96 -6 -10 -8 -33 -15 -50 -15 -19 0 -34 -6 -38
-15 -3 -8 -16 -15 -29 -15 -14 0 -30 -7 -37 -15 -7 -8 -18 -15 -26 -15 -12 0
-66 -21 -106 -41 -10 -5 -26 -9 -35 -9 -10 0 -30 -6 -44 -14 -29 -15 -147 -51
-198 -60 -19 -3 -40 -14 -46 -23 -18 -24 -69 -7 -73 24 -6 42 15 63 63 63 49
0 101 17 185 60 125 64 149 75 230 105 25 9 58 23 73 31 16 8 43 14 61 14 18
0 37 5 43 11 10 10 32 17 131 41 24 5 46 16 49 23 8 22 28 7 47 -36z m-2134
-72 c0 -45 5 -100 11 -122 6 -22 14 -77 18 -122 7 -85 26 -123 60 -123 16 0
32 -34 52 -113 5 -21 13 -45 19 -55 5 -9 39 -80 75 -157 36 -77 70 -147 76
-155 5 -8 13 -25 19 -37 5 -12 19 -32 31 -44 37 -37 69 -91 69 -116 0 -17 15
-39 44 -67 49 -46 113 -136 96 -136 -16 0 -51 22 -79 51 -70 71 -101 108 -101
121 0 19 -85 135 -110 150 -11 7 -20 17 -20 21 0 5 -20 32 -45 59 -25 28 -56
71 -68 97 -13 25 -29 55 -35 66 -12 22 -42 92 -60 140 -6 17 -14 50 -18 75 -3
25 -11 54 -16 64 -32 60 -59 355 -42 458 11 63 24 32 24 -55z m2227 -33 c17
-13 38 -24 46 -24 8 0 33 -14 57 -31 l43 -31 -8 -132 c-5 -72 -8 -144 -8 -161
0 -16 4 -142 8 -278 l8 -249 -29 4 -29 3 -6 180 c-3 99 -6 181 -7 183 -1 2 -6
0 -12 -3 -5 -3 -10 -35 -10 -70 0 -56 -5 -96 -26 -192 -2 -13 -11 -23 -19 -23
-13 0 -15 39 -13 298 2 288 -3 365 -24 329 -16 -30 -29 -289 -22 -455 6 -144
9 -164 25 -173 19 -10 27 -59 10 -59 -23 0 -67 23 -94 50 -17 16 -39 32 -49
36 -10 3 -18 10 -18 15 0 5 -4 9 -10 9 -5 0 -40 20 -76 45 -52 36 -69 43 -80
34 -11 -9 -14 -8 -14 6 0 10 -7 23 -17 30 -15 11 -15 15 0 52 9 23 14 43 12
45 -3 2 15 25 39 50 99 105 256 315 256 342 0 8 11 21 25 30 14 10 30 29 36
43 7 19 13 23 21 15 7 -7 10 -57 9 -141 -1 -88 2 -131 9 -131 13 0 15 7 29
109 13 104 2 162 -39 191 -16 11 -38 20 -49 20 -22 0 -47 43 -35 61 6 10 15 6
61 -27z m613 -174 c6 0 10 -7 10 -15 0 -8 5 -15 10 -15 12 0 32 -15 58 -42 9
-10 21 -18 28 -18 6 0 16 -11 22 -25 18 -40 -14 -32 -59 15 -22 22 -41 40 -44
40 -6 0 -45 38 -45 45 0 3 -27 31 -60 63 -33 33 -57 62 -53 65 3 4 32 -20 65
-53 32 -33 63 -60 68 -60z m-1691 39 c28 -14 42 -29 46 -49 3 -16 13 -31 21
-34 10 -4 14 -22 14 -64 0 -32 6 -65 13 -73 6 -9 46 -35 87 -59 41 -24 131
-80 200 -125 69 -45 153 -99 186 -121 109 -70 198 -132 229 -160 17 -14 48
-38 70 -52 156 -98 169 -114 122 -145 -22 -14 -27 -14 -68 10 -24 13 -51 31
-59 39 -8 9 -46 37 -85 65 -38 27 -74 52 -80 56 -5 5 -28 22 -50 39 -22 17
-49 34 -60 38 -11 4 -89 54 -175 112 -142 96 -190 132 -304 230 -39 33 -56 36
-56 8 0 -9 -12 -14 -37 -15 -141 -3 -204 19 -239 87 -22 41 -25 78 -9 108 8
15 15 33 15 38 0 16 43 58 60 58 8 0 26 7 40 15 35 20 73 18 119 -6z m1279
-269 c0 -151 -11 -208 -21 -111 -9 83 -9 212 0 292 l8 64 6 -60 c4 -33 7 -116
7 -185z m692 158 c0 -51 -16 -56 -35 -12 -14 34 -14 39 2 56 21 23 33 8 33
-44z m1500 -5 c0 -9 7 -25 17 -35 9 -10 13 -21 10 -24 -6 -6 -57 43 -57 56 0
9 12 20 22 20 4 0 8 -8 8 -17z m-1567 -109 c8 -8 -3 -34 -14 -34 -5 0 -9 9 -9
20 0 19 11 26 23 14z m85 -14 c12 -12 22 -26 22 -33 1 -7 6 -5 14 6 7 9 18 17
23 17 16 0 83 -62 113 -105 15 -22 36 -49 47 -60 24 -27 63 -83 63 -90 0 -3 5
-11 10 -18 6 -7 26 -33 45 -59 37 -50 35 -72 -3 -33 -13 13 -53 44 -90 68 -37
25 -102 81 -145 125 -42 44 -84 83 -92 86 -8 3 -15 13 -15 23 0 10 -7 31 -15
47 -26 49 -15 61 23 26z m-48 -55 c0 -8 -7 -15 -15 -15 -16 0 -20 12 -8 23 11
12 23 8 23 -8z m406 -72 c-11 -11 -17 4 -9 23 7 18 8 18 11 1 2 -10 1 -21 -2
-24z m-1079 -235 c-2 -13 -4 -5 -4 17 -1 22 1 32 4 23 2 -10 2 -28 0 -40z
m2703 -11 c32 -32 60 -86 60 -118 0 -15 -5 -17 -31 -12 -30 6 -116 -8 -174
-29 -48 -17 -82 -21 -89 -10 -7 12 65 52 93 52 10 0 24 6 30 14 7 8 26 18 42
21 41 9 44 21 15 56 -58 68 -12 90 54 26z m-2749 -215 c32 -13 86 -89 94 -135
9 -48 -10 -112 -40 -131 -54 -35 -171 -9 -228 52 -21 22 -29 42 -33 83 -5 50
-3 56 27 88 56 58 108 71 180 43z m1589 -277 c0 -8 -7 -15 -15 -15 -16 0 -20
12 -8 23 11 12 23 8 23 -8z m-3270 -24 c0 -5 26 -22 58 -37 49 -24 54 -29 32
-32 -13 -2 -26 1 -28 7 -2 6 -12 11 -22 11 -10 0 -22 5 -25 11 -4 5 -18 14
-32 20 -13 5 -21 13 -18 19 8 13 35 13 35 1z m3370 -2 c0 -6 -8 -28 -19 -48
-10 -20 -30 -61 -44 -92 -32 -68 -50 -84 -91 -81 -22 2 -38 -3 -50 -17 -20
-22 -60 -28 -71 -11 -3 6 0 13 8 16 8 3 23 31 33 62 21 64 59 132 74 132 6 0
10 7 10 15 0 13 7 15 34 9 24 -4 42 -1 58 10 26 18 58 21 58 5z m-164 -308
c-9 -14 -56 -14 -56 -1 0 14 43 30 54 20 4 -5 5 -13 2 -19z"/>
<path d="M6050 5170 c0 -6 11 -15 25 -20 14 -5 25 -14 25 -19 0 -5 8 -12 18
-15 51 -19 121 -75 242 -196 102 -103 170 -181 170 -196 0 -7 7 -14 15 -18 8
-3 15 -12 15 -20 0 -8 3 -16 8 -18 4 -1 20 -22 36 -45 16 -24 32 -43 36 -43 4
0 11 -11 14 -25 4 -14 11 -25 16 -25 6 0 10 11 10 25 0 14 -3 25 -8 25 -4 0
-18 23 -31 50 -13 28 -27 50 -32 50 -4 0 -10 8 -13 18 -4 9 -29 42 -56 72 -28
30 -62 73 -78 95 -27 39 -46 58 -146 143 -92 78 -117 96 -153 112 -13 5 -23
14 -23 20 0 5 -9 10 -19 10 -10 0 -21 7 -25 15 -6 17 -46 21 -46 5z"/>
<path d="M6710 4441 c0 -17 5 -31 11 -31 5 0 15 -13 20 -30 6 -16 15 -30 20
-30 15 0 10 47 -5 53 -8 3 -16 18 -18 33 -4 40 -28 43 -28 5z"/>
<path d="M2335 4450 c-4 -6 10 -10 35 -10 25 0 39 4 35 10 -3 6 -19 10 -35 10
-16 0 -32 -4 -35 -10z"/>
<path d="M2265 4420 c-3 -5 3 -10 14 -10 12 0 21 5 21 10 0 6 -6 10 -14 10 -8
0 -18 -4 -21 -10z"/>
<path d="M2205 4390 c-3 -5 3 -10 14 -10 12 0 21 5 21 10 0 6 -6 10 -14 10 -8
0 -18 -4 -21 -10z"/>
<path d="M6780 4310 c0 -18 4 -29 10 -25 6 3 10 15 10 25 0 10 -4 22 -10 25
-6 4 -10 -7 -10 -25z"/>
<path d="M3210 4305 c0 -12 42 -45 58 -45 13 0 10 6 -13 25 -29 23 -45 31 -45
20z"/>
<path d="M3290 4241 c0 -11 26 -22 34 -14 3 3 3 10 0 14 -7 12 -34 11 -34 0z"/>
<path d="M3409 4140 c46 -44 86 -80 88 -80 10 0 1 44 -14 68 -23 35 -41 50
-75 63 -16 6 -28 15 -28 20 0 5 -12 9 -27 9 -25 0 -20 -7 56 -80z"/>
<path d="M3577 4014 c-12 -16 -17 -34 -13 -50 8 -32 22 -31 29 4 3 15 8 37 12
50 10 29 -5 28 -28 -4z"/>
<path d="M758 613 c32 -44 141 -143 212 -191 36 -25 68 -49 71 -54 7 -11 46
-35 72 -44 9 -3 17 -10 17 -15 0 -5 8 -9 18 -9 16 1 16 1 0 14 -10 7 -18 18
-18 25 0 6 -6 11 -14 11 -8 0 -16 7 -20 15 -3 8 -10 15 -16 15 -7 0 -38 20
-70 45 -32 25 -61 45 -64 45 -4 0 -34 27 -68 60 -33 33 -62 60 -64 60 -2 0
-15 11 -30 25 -36 33 -50 32 -26 -2z"/>
<path d="M1310 220 c0 -5 7 -10 15 -10 8 0 15 5 15 10 0 6 -7 10 -15 10 -8 0
-15 -4 -15 -10z"/>
<path d="M1375 189 c-10 -16 1 -22 26 -14 17 6 19 9 8 16 -19 12 -26 11 -34
-2z"/>
<path d="M4171 4564 c-16 -20 -18 -31 -10 -45 5 -10 13 -19 17 -19 19 0 41 27
44 55 4 39 -23 45 -51 9z"/>
<path d="M4467 4303 c-12 -11 -8 -46 8 -62 8 -9 25 -29 38 -45 24 -30 47 -29
47 2 -1 21 -84 115 -93 105z"/>
<path d="M5198 4203 c-25 -13 -46 -48 -35 -60 10 -10 60 22 68 44 10 29 1 33
-33 16z"/>
<path d="M4607 4163 c-15 -8 -25 -18 -22 -24 9 -14 20 -11 49 16 30 27 17 31
-27 8z"/>
<path d="M5306 4033 c11 -54 12 -55 34 -43 35 19 19 70 -22 70 -15 0 -17 -5
-12 -27z"/>
<path d="M3955 3851 c-3 -5 -1 -12 5 -16 14 -9 52 4 45 16 -8 12 -42 12 -50 0z"/>
<path d="M5147 3583 c-4 -3 -7 -15 -7 -25 0 -28 34 -19 38 10 3 21 -16 31 -31
15z"/>
<path d="M5127 3383 c-4 -3 -7 -28 -7 -55 0 -35 4 -50 15 -55 24 -8 26 -1 19
61 -6 53 -12 64 -27 49z"/>
<path d="M5408 3256 c6 -22 34 -66 65 -101 10 -11 28 -33 40 -49 12 -16 38
-47 57 -70 19 -22 40 -47 45 -54 6 -7 39 -41 74 -75 55 -54 106 -119 147 -189
15 -24 49 -49 58 -41 5 5 -45 109 -67 138 -4 5 -18 25 -32 43 -13 19 -38 45
-57 58 -18 14 -52 50 -75 82 -24 31 -66 82 -93 112 -28 30 -68 78 -89 106 -43
56 -83 78 -73 40z"/>
<path d="M5236 3121 c-8 -13 11 -61 24 -61 15 0 8 62 -7 67 -6 2 -14 0 -17 -6z"/>
<path d="M4853 3014 c-4 -11 2 -23 18 -34 28 -22 47 -15 25 9 -9 10 -16 23
-16 29 0 18 -20 14 -27 -4z"/>
<path d="M5329 2923 c-1 -4 0 -12 1 -18 2 -5 6 -28 9 -50 4 -27 12 -41 24 -43
22 -4 24 43 2 52 -10 3 -15 16 -13 32 3 23 -20 50 -23 27z"/>
<path d="M4974 2736 c-8 -21 3 -49 16 -41 5 3 10 15 10 25 0 25 -18 36 -26 16z"/>
<path d="M4997 2563 c-9 -8 81 -53 107 -53 17 0 16 4 -9 30 -28 29 -80 41 -98
23z"/>
<path d="M5476 2493 c11 -82 39 -80 32 3 -2 27 -8 40 -20 42 -16 3 -17 -3 -12
-45z"/>
<path d="M5146 2478 c4 -13 14 -29 23 -35 20 -16 60 -27 68 -19 11 11 -67 76
-92 76 -3 0 -3 -10 1 -22z"/>
<path d="M4730 2426 c0 -33 103 -191 177 -271 10 -11 30 -36 43 -55 13 -19 32
-44 42 -54 10 -11 30 -38 45 -60 16 -23 43 -58 62 -78 36 -40 65 -51 54 -21
-6 16 -83 131 -104 157 -5 6 -31 40 -58 76 -27 36 -83 106 -125 155 -41 50
-76 97 -76 105 0 14 -41 60 -54 60 -3 0 -6 -6 -6 -14z"/>
<path d="M4830 2410 c0 -5 4 -10 9 -10 5 0 11 -9 14 -20 7 -26 27 -26 27 0 0
10 -9 24 -19 30 -25 13 -31 13 -31 0z"/>
<path d="M5507 2333 c-4 -3 -7 -15 -7 -25 0 -28 34 -19 38 10 3 21 -16 31 -31
15z"/>
<path d="M8180 4396 c0 -2 30 -33 68 -69 56 -54 97 -91 238 -222 6 -5 35 -30
65 -55 29 -25 74 -64 100 -87 45 -42 69 -53 69 -33 0 12 -78 90 -161 160 -88
76 -134 117 -191 172 -86 83 -188 156 -188 134z"/>
<path d="M2686 4114 c-11 -27 -7 -62 9 -78 8 -8 15 -24 15 -35 0 -12 9 -38 20
-58 11 -21 20 -54 20 -75 0 -20 4 -39 9 -43 13 -7 41 22 41 43 0 30 -21 92
-30 92 -6 0 -10 8 -10 18 0 9 -7 30 -15 46 -8 15 -15 39 -15 51 0 33 -10 55
-25 55 -7 0 -16 -7 -19 -16z"/>
<path d="M2320 4042 c0 -30 30 -63 53 -60 27 4 25 30 -4 59 -24 24 -49 25 -49
1z"/>
<path d="M3303 3266 c-29 -14 -29 -23 -1 -32 14 -4 25 -1 33 10 14 19 59 22
53 4 -3 -7 -14 -14 -26 -16 -12 -2 -22 -7 -22 -12 0 -10 81 -50 102 -50 9 0
21 -7 28 -15 7 -8 22 -15 33 -15 11 0 25 -7 32 -17 7 -9 19 -14 29 -10 19 8
21 27 2 27 -7 0 -19 7 -26 15 -7 8 -24 15 -37 15 -35 0 -24 21 17 35 l35 12
-38 6 c-20 3 -44 13 -53 21 -8 9 -26 16 -39 16 -13 0 -27 5 -30 10 -8 13 -64
11 -92 -4z m165 -48 c-5 -15 -58 -24 -58 -10 0 15 12 22 38 22 14 0 22 -5 20
-12z"/>
<path d="M3590 3101 c0 -13 37 -24 50 -16 6 4 8 11 5 16 -8 12 -55 12 -55 0z"/>
<path d="M3742 3044 c1 -9 9 -19 16 -22 9 -3 13 2 10 14 -1 9 -9 19 -16 22 -9
3 -13 -2 -10 -14z"/>
<path d="M3870 2923 c0 -28 3 -34 10 -23 13 20 13 60 0 60 -5 0 -10 -17 -10
-37z"/>
<path d="M4055 2950 c-3 -6 2 -13 12 -16 10 -3 33 -12 52 -20 24 -11 37 -12
44 -5 8 8 6 11 -6 11 -10 0 -25 9 -34 20 -18 21 -58 27 -68 10z"/>
<path d="M1677 2863 c-9 -9 24 -53 39 -53 8 0 14 6 14 14 0 15 -44 48 -53 39z"/>
<path d="M4155 2860 c-3 -6 2 -13 12 -16 10 -3 25 -10 33 -15 30 -18 83 -39
98 -39 24 0 -13 36 -62 60 -47 22 -72 25 -81 10z"/>
<path d="M3774 2825 c-4 -8 -12 -15 -20 -15 -8 0 -14 -7 -14 -15 0 -8 6 -15
13 -15 17 0 59 44 50 53 -11 11 -23 8 -29 -8z"/>
<path d="M2185 2619 c-4 -6 -5 -12 -2 -15 7 -7 37 7 37 17 0 13 -27 11 -35 -2z"/>
<path d="M3712 2559 c2 -6 8 -10 13 -10 5 0 11 4 13 10 2 6 -4 11 -13 11 -9 0
-15 -5 -13 -11z"/>
<path d="M4507 2443 c-3 -5 -5 -57 -5 -117 -1 -133 -10 -194 -29 -204 -8 -5
-18 -33 -22 -63 -5 -30 -19 -87 -31 -126 -18 -56 -21 -78 -13 -95 10 -22 12
-21 32 23 11 26 27 52 35 58 9 8 17 44 21 106 7 86 9 94 29 97 27 4 30 38 21
206 -5 92 -10 122 -20 122 -8 0 -16 -3 -18 -7z"/>
<path d="M1581 2274 c-24 -85 -6 -191 29 -169 15 9 10 159 -7 189 -10 18 -12
16 -22 -20z"/>
<path d="M1407 2094 c-4 -4 -7 -14 -7 -23 0 -20 42 -101 52 -101 5 0 8 17 8
38 -1 37 -39 100 -53 86z"/>
<path d="M1490 1921 c-12 -23 -4 -51 15 -51 15 0 26 35 18 56 -7 20 -20 17
-33 -5z"/>
<path d="M4490 1892 c0 -15 -8 -39 -17 -52 -17 -24 -20 -41 -39 -270 -4 -47
-13 -97 -21 -112 -11 -22 -11 -37 -2 -73 6 -25 9 -69 6 -98 -6 -62 17 -266 29
-254 9 9 27 180 30 277 5 208 25 505 34 514 11 11 13 56 4 80 -10 26 -24 18
-24 -12z"/>
<path d="M1523 1844 c-35 -37 -63 -71 -63 -77 0 -6 -6 -18 -14 -26 -21 -23
-46 -134 -46 -200 0 -52 10 -86 41 -143 19 -36 7 -57 -93 -155 -110 -108 -170
-175 -211 -236 -22 -32 -24 -42 -15 -63 13 -27 23 -30 35 -10 7 13 87 106 141
164 12 14 22 28 22 31 0 3 23 31 51 61 28 30 60 72 72 93 23 41 46 47 74 19
10 -10 41 -28 68 -40 78 -36 79 -37 92 -75 14 -43 18 -155 8 -250 -4 -40 -3
-72 2 -80 6 -6 13 -24 17 -39 7 -31 23 -37 33 -12 3 8 -4 25 -16 38 -21 22
-22 25 -7 60 11 27 16 77 17 182 1 146 -5 174 -37 174 -8 0 -22 4 -32 9 -9 4
-35 17 -56 27 -42 20 -106 80 -106 98 0 6 -9 28 -20 49 -16 29 -20 56 -20 124
0 92 18 153 54 182 10 8 26 31 37 50 10 20 29 48 40 63 19 23 19 49 1 48 -4
-1 -35 -30 -69 -66z"/>
<path d="M3240 1591 c0 -6 4 -11 9 -11 5 0 11 -13 14 -30 9 -44 97 -94 97 -55
0 8 -4 15 -10 15 -5 0 -24 15 -42 33 -48 47 -68 62 -68 48z"/>
<path d="M2133 987 c-13 -13 -23 -30 -23 -40 0 -9 -4 -17 -10 -17 -5 0 -18 -8
-27 -18 -18 -18 -25 -27 -115 -134 -45 -52 -56 -77 -42 -90 7 -8 66 47 98 90
14 19 43 53 65 77 23 24 41 48 41 53 0 4 14 21 30 37 30 29 40 65 18 64 -7 0
-23 -10 -35 -22z"/>
<path d="M3546 701 c-19 -7 -18 -8 4 -14 14 -3 36 -3 49 0 23 6 24 7 6 14 -25
10 -35 10 -59 0z"/>
<path d="M2783 578 c2 -7 10 -13 17 -13 7 0 15 6 18 13 2 7 -5 12 -18 12 -13
0 -20 -5 -17 -12z"/>
<path d="M7400 3554 c0 -4 21 -28 48 -54 26 -26 72 -75 102 -109 30 -34 82
-82 115 -108 33 -26 89 -75 124 -110 35 -35 70 -63 76 -63 7 0 16 -7 19 -16 3
-8 10 -12 16 -9 12 7 -189 215 -275 284 -33 27 -86 74 -118 105 -31 31 -61 56
-66 56 -5 0 -11 7 -15 15 -5 15 -26 21 -26 9z"/>
<path d="M7992 3113 c-30 -38 -16 -49 19 -14 32 33 35 41 16 41 -7 0 -23 -12
-35 -27z"/>
<path d="M7180 3170 c0 -6 -12 -16 -26 -22 -22 -10 -51 -37 -140 -131 -12 -12
-38 -37 -58 -55 -21 -19 -42 -43 -47 -55 -20 -45 -36 -64 -118 -145 -47 -45
-81 -85 -78 -89 7 -6 86 61 95 80 2 4 8 7 14 7 17 0 108 97 108 116 0 21 66
82 97 90 24 6 53 44 53 69 0 8 4 15 10 15 13 0 80 66 80 79 0 7 12 16 26 21
14 6 22 14 19 20 -8 13 -35 13 -35 0z"/>
<path d="M6668 2641 c-10 -10 -18 -21 -18 -24 0 -14 16 -5 33 18 21 29 10 32
-15 6z"/>
<path d="M6585 2550 c-4 -6 -3 -16 3 -22 6 -6 12 -6 17 2 4 6 3 16 -3 22 -6 6
-12 6 -17 -2z"/>
<path d="M6474 2426 c-11 -13 -30 -27 -42 -30 -30 -10 -28 -26 3 -26 14 0 25
5 25 10 0 13 37 50 50 50 6 0 10 5 10 10 0 18 -24 10 -46 -14z"/>
<path d="M6373 2355 c-3 -9 -3 -18 0 -21 9 -9 27 6 27 22 0 19 -19 18 -27 -1z"/>
<path d="M6331 2301 c-12 -16 -21 -33 -21 -38 0 -4 -14 -17 -30 -28 -16 -11
-30 -23 -30 -27 0 -12 -38 -48 -50 -48 -5 0 -10 -7 -10 -15 0 -8 7 -15 15 -15
8 0 15 5 15 10 0 10 36 50 45 50 13 0 105 98 105 113 0 29 -18 28 -39 -2z"/>
<path d="M5976 1935 c-4 -10 1 -15 14 -15 11 0 20 7 20 15 0 8 -6 15 -14 15
-8 0 -16 -7 -20 -15z"/>
<path d="M5937 1872 c-21 -23 -22 -42 -2 -42 8 0 15 6 15 14 0 8 7 17 16 20 8
3 12 10 9 16 -9 15 -20 12 -38 -8z"/>
<path d="M5815 1729 c-10 -15 3 -25 16 -12 7 7 7 13 1 17 -6 3 -14 1 -17 -5z"/>
<path d="M5383 1613 c-20 -8 -15 -23 7 -23 11 0 28 -8 38 -18 10 -10 24 -16
32 -14 7 3 17 -3 22 -12 10 -18 48 -22 48 -5 0 6 -9 13 -19 16 -11 3 -22 11
-25 19 -3 8 -12 14 -19 14 -8 0 -20 7 -27 15 -12 15 -34 18 -57 8z"/>
<path d="M5550 1512 c0 -5 9 -17 20 -27 16 -14 20 -15 20 -4 0 16 -19 39 -32
39 -4 0 -8 -4 -8 -8z"/>
<path d="M5394 1243 c-4 -16 -13 -37 -20 -48 -16 -22 -19 -81 -5 -89 11 -7 21
17 21 49 0 12 7 28 15 35 17 14 21 80 5 80 -5 0 -13 -12 -16 -27z"/>
<path d="M5323 974 c-26 -41 -29 -54 -10 -54 22 0 47 34 47 63 0 36 -10 33
-37 -9z"/>
<path d="M3285 2259 c-4 -6 -4 -13 -1 -16 8 -8 36 5 36 17 0 13 -27 13 -35 -1z"/>
<path d="M7359 3029 c-19 -17 -54 -47 -79 -67 -57 -46 -200 -185 -200 -194 0
-5 -36 -45 -81 -90 -45 -46 -94 -101 -111 -124 -16 -23 -40 -46 -53 -52 -13
-6 -26 -20 -30 -31 -3 -12 -10 -21 -15 -21 -14 0 -40 -30 -40 -46 0 -34 85 9
115 59 9 15 28 35 43 45 34 22 155 143 207 206 22 27 64 72 93 100 102 97 222
229 222 242 0 15 -42 -1 -71 -27z"/>
<path d="M7554 2747 c-17 -12 -57 -52 -89 -89 -33 -38 -62 -68 -66 -68 -4 0
-21 -12 -37 -27 -16 -16 -56 -53 -89 -83 -32 -30 -62 -63 -66 -72 -3 -10 -13
-18 -21 -18 -8 0 -18 -10 -22 -22 -4 -12 -17 -31 -30 -41 -13 -10 -24 -23 -24
-28 0 -5 -25 -36 -56 -67 -68 -69 -109 -121 -101 -128 5 -5 85 65 185 164 29
29 64 59 78 68 13 9 24 22 24 30 0 15 132 154 146 154 13 0 144 133 144 146 0
6 11 21 25 34 14 13 25 29 25 37 0 7 5 13 10 13 6 0 10 5 10 10 0 15 -11 12
-46 -13z"/>
<path d="M6720 2365 c0 -8 -5 -15 -12 -15 -7 0 -54 -44 -106 -97 -71 -74 -92
-101 -85 -112 16 -26 29 -23 64 15 19 20 63 65 98 100 51 52 61 67 52 78 -8
10 -9 16 -1 21 13 8 13 25 0 25 -5 0 -10 -7 -10 -15z"/>
<path d="M6406 1553 c-11 -11 -6 -23 9 -23 8 0 15 4 15 9 0 13 -16 22 -24 14z"/>
<path d="M6287 1433 c-12 -11 -8 -23 8 -23 8 0 15 7 15 15 0 16 -12 20 -23 8z"/>
<path d="M6183 1326 c-25 -26 -29 -36 -13 -36 13 0 50 37 50 50 0 16 -14 11
-37 -14z"/>
<path d="M6065 1205 c-31 -36 -59 -58 -82 -64 -42 -12 -60 -6 -93 31 -13 15
-30 28 -37 28 -6 0 -20 11 -31 25 -11 13 -22 21 -26 18 -21 -21 20 -88 48 -77
22 8 96 -71 96 -102 0 -16 6 -24 18 -24 25 0 139 110 146 141 3 15 17 34 31
43 14 9 23 21 20 26 -14 23 -46 6 -90 -45z"/>
<path d="M8030 1879 c-23 -9 -23 -11 -7 -20 22 -13 57 -2 57 17 0 16 -14 17
-50 3z"/>
<path d="M7430 926 c0 -19 46 -76 61 -76 22 0 16 23 -14 58 -18 19 -47 30 -47
18z"/>
<path d="M7518 835 c-3 -4 -3 -15 -1 -26 7 -24 28 -20 28 6 0 18 -16 30 -27
20z"/>
<path d="M6734 725 c-9 -14 -13 -29 -9 -33 4 -4 10 -1 12 6 3 6 11 12 19 12 8
0 14 6 14 14 0 27 -19 27 -36 1z"/>
<path d="M3532 2021 c4 -13 18 -16 19 -4 0 4 -5 9 -11 12 -7 2 -11 -2 -8 -8z"/>
<path d="M3590 1956 c0 -8 5 -18 10 -21 6 -3 10 3 10 14 0 12 -4 21 -10 21 -5
0 -10 -6 -10 -14z"/>
<path d="M2460 1890 c0 -5 -9 -10 -19 -10 -26 0 -51 -10 -51 -21 0 -16 60 -10
66 6 4 8 14 15 23 15 9 0 23 5 31 10 11 7 7 10 -17 10 -18 0 -33 -4 -33 -10z"/>
<path d="M7730 4065 c0 -8 5 -15 10 -15 6 0 10 7 10 15 0 8 -4 15 -10 15 -5 0
-10 -7 -10 -15z"/>
<path d="M7762 4019 c1 -12 9 -24 16 -27 9 -3 13 3 10 19 -1 12 -9 24 -16 27
-9 3 -13 -3 -10 -19z"/>
<path d="M8320 3159 c0 -29 52 -107 123 -184 10 -11 37 -48 59 -82 23 -35 45
-63 49 -63 5 0 9 -6 9 -14 0 -8 6 -21 13 -28 12 -13 97 -179 118 -233 32 -79
48 -132 49 -155 0 -14 6 -36 13 -51 8 -14 17 -65 20 -113 4 -48 13 -98 20
-109 8 -16 12 -87 12 -247 0 -190 -3 -234 -18 -285 -30 -95 -35 -117 -42 -160
-3 -22 -10 -56 -15 -75 -5 -19 -17 -66 -26 -105 -10 -38 -23 -77 -31 -86 -7
-8 -13 -23 -13 -31 0 -9 -6 -20 -13 -26 -7 -6 -30 -44 -50 -84 -40 -78 -47
-90 -89 -156 -16 -24 -28 -47 -28 -52 0 -5 -6 -13 -12 -17 -7 -4 -31 -30 -52
-58 -21 -27 -53 -63 -70 -78 -17 -16 -59 -55 -92 -88 -34 -32 -67 -59 -73 -59
-6 0 -19 -8 -29 -17 -58 -57 -190 -143 -292 -190 -8 -3 -19 -12 -23 -20 -4 -7
-16 -13 -25 -13 -10 0 -25 -9 -35 -20 -9 -11 -26 -20 -37 -20 -12 0 -20 -7
-20 -16 0 -14 -7 -15 -40 -10 -40 6 -50 0 -29 -21 14 -14 -22 -27 -50 -18 -12
4 -23 0 -28 -10 -9 -16 -97 -40 -203 -55 -30 -4 -68 -13 -83 -19 -34 -13 -116
-15 -697 -15 -245 0 -546 0 -670 0 -354 0 -830 12 -885 23 -27 5 -84 15 -125
21 -41 6 -85 16 -97 20 -23 9 -33 4 -33 -16 0 -22 55 -44 107 -44 48 0 113
-26 121 -48 5 -15 -44 -16 -53 -2 -10 16 -111 12 -125 -5 -6 -8 -34 -16 -63
-18 -29 -2 40 -4 153 -4 113 0 194 1 180 4 -53 8 -70 14 -70 23 0 17 55 11
106 -11 48 -22 51 -22 599 -15 302 3 654 5 780 4 415 -5 749 -3 820 6 82 10
188 36 265 66 30 12 64 25 75 29 67 25 105 46 105 56 0 7 11 16 25 19 14 4 25
11 25 16 0 6 11 15 25 20 14 5 63 34 108 64 45 30 104 66 131 80 67 36 110 68
227 171 19 17 59 60 89 95 30 36 65 76 77 90 13 14 40 50 60 80 21 30 41 57
44 60 11 8 99 171 99 183 0 5 13 31 30 58 36 58 57 130 65 227 4 39 11 74 15
77 4 3 11 31 15 62 4 32 11 65 16 74 27 52 50 445 30 513 -15 47 -31 141 -41
235 -5 46 -14 89 -20 95 -5 5 -10 26 -10 46 0 19 -6 46 -13 60 -7 14 -21 48
-31 75 -10 28 -25 57 -32 66 -8 8 -14 21 -14 28 0 16 -70 145 -81 149 -5 2 -9
8 -9 12 0 20 -109 170 -169 235 -20 22 -50 61 -65 88 -33 55 -56 62 -56 16z"/>
<path d="M8330 3017 c0 -8 -27 -41 -60 -73 -33 -33 -60 -62 -60 -66 0 -5 9 -8
19 -8 23 0 133 118 129 139 -4 19 -28 26 -28 8z"/>
<path d="M8242 2711 c4 -13 18 -16 19 -4 0 4 -5 9 -11 12 -7 2 -11 -2 -8 -8z"/>
<path d="M8280 2659 c0 -11 5 -17 10 -14 6 3 10 13 10 21 0 8 -4 14 -10 14 -5
0 -10 -9 -10 -21z"/>
<path d="M0 2573 c0 -54 3 -73 10 -63 13 20 13 127 0 135 -6 4 -10 -22 -10
-72z"/>
<path d="M8310 2615 c0 -8 4 -15 9 -15 5 0 11 -10 13 -22 2 -12 9 -23 16 -26
18 -6 15 37 -3 44 -8 4 -15 12 -15 20 0 8 -4 14 -10 14 -5 0 -10 -7 -10 -15z"/>
<path d="M2 2390 l0 -65 10 44 c6 29 6 51 0 65 -8 16 -11 7 -10 -44z"/>
<path d="M0 2199 c0 -46 4 -69 9 -60 9 14 7 119 -3 129 -3 3 -6 -28 -6 -69z"/>
<path d="M16 1793 c-3 -181 -9 -418 -12 -528 -5 -168 -4 -198 8 -187 9 9 13
45 15 117 0 57 7 121 13 141 14 41 18 752 6 773 -4 6 -11 11 -15 11 -5 0 -11
-147 -15 -327z"/>
<path d="M105 1806 c-13 -19 -15 -30 -7 -38 20 -20 49 25 32 52 -6 9 -13 5
-25 -14z"/>
<path d="M0 830 c0 -18 4 -29 10 -25 13 8 13 42 0 50 -6 4 -10 -7 -10 -25z"/>
<path d="M4830 612 c0 -5 -15 -26 -34 -47 -40 -45 -62 -82 -53 -91 8 -9 77 60
77 78 0 7 7 22 15 32 17 23 19 36 5 36 -5 0 -10 -4 -10 -8z"/>
<path d="M76 398 c-14 -90 -14 -153 -2 -182 8 -17 36 -53 64 -81 47 -47 71
-63 160 -101 20 -10 45 -21 54 -25 23 -12 161 -12 154 0 -3 4 -25 11 -48 14
-30 4 -49 14 -63 31 -12 14 -25 26 -31 26 -6 0 -33 16 -60 35 -55 39 -62 41
-78 20 -10 -14 -15 -12 -43 15 -23 23 -35 47 -47 101 -9 39 -16 89 -16 109 0
21 -3 45 -6 54 -11 27 -33 18 -38 -16z"/>
<path d="M8960 408 c0 -28 -93 -197 -122 -224 -112 -100 -212 -150 -323 -161
-100 -10 -98 -22 4 -23 162 0 229 28 347 145 62 62 87 102 99 155 4 16 13 30
21 30 10 0 14 13 14 45 0 38 -3 45 -20 45 -11 0 -20 -5 -20 -12z"/>
<path d="M7612 20 c-58 -14 -48 -20 33 -20 52 0 76 3 69 10 -14 14 -65 20
-102 10z"/>
<path d="M3655 10 c-4 -6 5 -10 19 -10 14 0 26 5 26 10 0 6 -9 10 -19 10 -11
0 -23 -4 -26 -10z"/>
<path d="M1298 3 c23 -2 59 -2 80 0 20 2 1 4 -43 4 -44 0 -61 -2 -37 -4z"/>
</g>
</svg>
